<svg xmlns="http://www.w3.org/2000/svg" width="60.049" height="55.535" viewBox="0 0 60.049 55.535">
  <g id="Group_771" data-name="Group 771" transform="translate(-538.27 -311)">
    <path id="Path_770" data-name="Path 770" d="M373.1,42.417a18.6,18.6,0,0,0-36.4,0Z" transform="translate(212.965 292.221)" fill="#994ce8"/>
    <path id="Path_771" data-name="Path 771" d="M372.157,41.677h-38.1l.177-.83a19.3,19.3,0,0,1,37.744,0ZM335.781,40.3h34.653a17.913,17.913,0,0,0-34.653,0Z" transform="translate(214.755 293.649)" fill="#263357"/>
    <path id="Path_772" data-name="Path 772" d="M397,30c5.586,2.312,11.1,5.419,13.794,13.279h2.319A18.424,18.424,0,0,0,397,30Z" transform="translate(172.057 290.648)" fill="#994ce8"/>
    <path id="Path_773" data-name="Path 773" d="M351.15,54.3a.711.711,0,0,1-.344-.093.691.691,0,0,1-.251-.942,15.052,15.052,0,0,1,.949-1.441.692.692,0,1,1,1.1.836,13.509,13.509,0,0,0-.859,1.286A.7.7,0,0,1,351.15,54.3Z" transform="translate(203.628 276.03)" fill="#263357"/>
    <path id="Path_774" data-name="Path 774" d="M358.116,39.3a.688.688,0,0,1-.489-1.174,14.929,14.929,0,0,1,10.5-4.374h0a.691.691,0,0,1,0,1.38h0A13.53,13.53,0,0,0,358.6,39.1.688.688,0,0,1,358.116,39.3Z" transform="translate(198.904 288.104)" fill="#263357"/>
    <path id="Path_775" data-name="Path 775" d="M372.3,70.712a1.325,1.325,0,0,1-1.325,1.325h-36.19a1.322,1.322,0,0,1-1.322-1.325h0a1.322,1.322,0,0,1,1.322-1.322h36.19A1.325,1.325,0,0,1,372.3,70.712Z" transform="translate(215.163 263.926)" fill="#ebf2ff"/>
    <path id="Path_776" data-name="Path 776" d="M369.513,71.266h-36.19a2.013,2.013,0,0,1,0-4.026h36.19a2.013,2.013,0,0,1,0,4.026Zm-36.19-2.647a.643.643,0,0,0,0,1.286h36.19a.643.643,0,0,0,0-1.286Z" transform="translate(216.621 265.385)" fill="#263357"/>
    <path id="Path_777" data-name="Path 777" d="M373.592,80.267H339.387l-.367-2.647h34.936Z" transform="translate(211.391 258.343)" fill="#ebf2ff"/>
    <path id="Path_778" data-name="Path 778" d="M372.121,79.506H337.915a.691.691,0,0,1-.695-.595l-.363-2.65a.688.688,0,0,1,.685-.781h34.942a.688.688,0,0,1,.682.781l-.363,2.65a.688.688,0,0,1-.682.595Zm-33.614-1.38h33.013l.174-1.27H338.339Z" transform="translate(212.863 259.795)" fill="#263357"/>
    <path id="Path_779" data-name="Path 779" d="M336.8,101.107a.823.823,0,0,1-.125,0,32.655,32.655,0,0,1-3.255-.765c-14.247-3.017-24.04-16.4-22.249-30.482a.689.689,0,0,1,1.367.174c-1.7,13.363,7.619,26.092,21.226,28.973a31.514,31.514,0,0,0,3.165.743.688.688,0,0,1-.119,1.367Z" transform="translate(230.424 264.016)" fill="#263357"/>
    <path id="Path_780" data-name="Path 780" d="M339.1,153.336c.965-1.93,4.094-2.779,5.146-.9.418.836-.733,1.885-2.251,1.93A4.708,4.708,0,0,1,339.1,153.336Z" transform="translate(211.336 208.301)" fill="#be80fe"/>
    <path id="Path_781" data-name="Path 781" d="M340.02,153.6a5.5,5.5,0,0,1-3.216-1.187l-.444-.347.251-.5a4.454,4.454,0,0,1,3.824-2.338,2.8,2.8,0,0,1,2.537,1.412,1.608,1.608,0,0,1-.074,1.557,3.338,3.338,0,0,1-2.753,1.4Zm-1.83-1.93a3.8,3.8,0,0,0,1.83.544h.084a2.007,2.007,0,0,0,1.608-.73c.077-.132.051-.187.042-.209a1.434,1.434,0,0,0-1.319-.675,3.107,3.107,0,0,0-2.245,1.077Z" transform="translate(213.195 209.767)" fill="#263357"/>
    <path id="Path_782" data-name="Path 782" d="M351.037,136.22c1.981.913,3.653,4.258,1.563,5.094-.836.418-2.509-.836-2.386-2.338A3.7,3.7,0,0,1,351.037,136.22Z" transform="translate(203.811 218.589)" fill="#be80fe"/>
    <path id="Path_783" data-name="Path 783" d="M350.779,140.322a2.7,2.7,0,0,1-1.885-.946,2.988,2.988,0,0,1-.823-2.152,4.409,4.409,0,0,1,1.007-3.232l.341-.373.457.212a5.309,5.309,0,0,1,2.927,4.338,2.148,2.148,0,0,1-1.373,2.01,1.5,1.5,0,0,1-.65.142Zm-.994-4.95a3.116,3.116,0,0,0-.338,1.759v.135a1.589,1.589,0,0,0,.46,1.177,1.386,1.386,0,0,0,.868.5.19.19,0,0,0,.061,0l.051-.023a.769.769,0,0,0,.534-.778A3.928,3.928,0,0,0,349.785,135.373Z" transform="translate(205.263 220.353)" fill="#263357"/>
    <path id="Path_784" data-name="Path 784" d="M321.35,138.845c1.229-.9,2.894-2.155,4.576-.9,1.672,1.672-.839,2.509-1.907,2.309A4.5,4.5,0,0,1,321.35,138.845Z" transform="translate(223.378 217.778)" fill="#be80fe"/>
    <path id="Path_785" data-name="Path 785" d="M322.267,139.518a2.685,2.685,0,0,1-.47-.042,5.187,5.187,0,0,1-3.075-1.65l-.463-.563.643-.466a6.109,6.109,0,0,1,3.432-1.528,3.139,3.139,0,0,1,1.93.669l.074.061a1.857,1.857,0,0,1,.643,2.116A3.029,3.029,0,0,1,322.267,139.518Zm-1.93-2.068a3.891,3.891,0,0,0,1.666.666,1.206,1.206,0,0,0,.251.023,1.829,1.829,0,0,0,1.421-.55c.045-.109-.077-.322-.322-.579a1.762,1.762,0,0,0-1.052-.36,3.8,3.8,0,0,0-1.952.8Z" transform="translate(225.474 219.233)" fill="#263357"/>
    <path id="Path_786" data-name="Path 786" d="M335.879,123.13c1.894.852,2.718,5.123.209,5.541a2.686,2.686,0,0,1-1.608-2.849A4.345,4.345,0,0,1,335.879,123.13Z" transform="translate(214.471 227.469)" fill="#be80fe"/>
    <path id="Path_787" data-name="Path 787" d="M334.581,127.7l-.161-.055c-.965-.322-2.129-1.2-2.074-3.518v-.064A5.024,5.024,0,0,1,334,120.9l.322-.254.379.17c1.544.695,2.361,2.894,2.152,4.5a2.525,2.525,0,0,1-2.113,2.345Zm-.859-3.505c-.019,1.113.289,1.782.965,2.081.273-.077.7-.322.8-1.126a3.586,3.586,0,0,0-.965-2.817A3.965,3.965,0,0,0,333.723,124.191Z" transform="translate(215.919 229.152)" fill="#263357"/>
    <path id="Path_788" data-name="Path 788" d="M309.57,120.05c1.762-1.434,4.39-.489,4.6,1.463-.209.627-1.531.9-2.647.556A3.712,3.712,0,0,1,309.57,120.05Z" transform="translate(231.369 230.028)" fill="#be80fe"/>
    <path id="Path_789" data-name="Path 789" d="M310.754,121.479a4.162,4.162,0,0,1-1.222-.18,4.357,4.357,0,0,1-2.377-2.4l-.215-.482.412-.322a3.7,3.7,0,0,1,2.364-.846,3.256,3.256,0,0,1,3.354,2.772l.016.148-.045.142A2.238,2.238,0,0,1,310.754,121.479Zm-2.065-2.628a2.614,2.614,0,0,0,1.254,1.132,2.791,2.791,0,0,0,.81.119,1.9,1.9,0,0,0,.9-.19,1.95,1.95,0,0,0-1.93-1.286A2.313,2.313,0,0,0,308.69,118.852Z" transform="translate(233.154 231.458)" fill="#263357"/>
    <path id="Path_790" data-name="Path 790" d="M325.314,109.15c1.071,1.717,1.113,4.6-1.4,5.017a3.236,3.236,0,0,1-.347-3.065A3.56,3.56,0,0,1,325.314,109.15Z" transform="translate(222.038 236.953)" fill="#be80fe"/>
    <path id="Path_791" data-name="Path 791" d="M322.2,113.024l-.254-.293a3.912,3.912,0,0,1-.46-3.788,4.258,4.258,0,0,1,2.068-2.3l.563-.277.322.531a4.859,4.859,0,0,1,.486,4.329,2.968,2.968,0,0,1-2.348,1.733Zm1.393-4.76a2.9,2.9,0,0,0-.827,1.2l-.029.064a2.5,2.5,0,0,0,.058,1.965,1.508,1.508,0,0,0,.878-.823A3.264,3.264,0,0,0,323.593,108.264Z" transform="translate(223.489 238.839)" fill="#263357"/>
    <path id="Path_792" data-name="Path 792" d="M304.12,96.376c2.171-.556,4.052,1.4,3.287,3.139a2.9,2.9,0,0,1-2.161-.418A3.155,3.155,0,0,1,304.12,96.376Z" transform="translate(235.067 245.684)" fill="#be80fe"/>
    <path id="Path_793" data-name="Path 793" d="M305.419,98.814a3.753,3.753,0,0,1-1.981-.589A3.616,3.616,0,0,1,302,94.932v-.54l.524-.135a3.576,3.576,0,0,1,3.84,1.425,2.756,2.756,0,0,1,.248,2.66l-.135.322-.322.08A2.865,2.865,0,0,1,305.419,98.814Zm-2.01-3.3a1.958,1.958,0,0,0,.772,1.547,2.328,2.328,0,0,0,1.257.373,1.441,1.441,0,0,0-.241-1A2.1,2.1,0,0,0,303.409,95.517Z" transform="translate(236.505 247.135)" fill="#263357"/>
    <path id="Path_794" data-name="Path 794" d="M319.063,92a3.078,3.078,0,0,1,0,2.573,2.531,2.531,0,0,1-2.441,1.463c-.386-.023-.351-1.955.28-2.788A3.264,3.264,0,0,1,319.063,92Z" transform="translate(226.755 248.588)" fill="#be80fe"/>
    <path id="Path_795" data-name="Path 795" d="M315.426,95.189a2.315,2.315,0,0,1-.338-.026.871.871,0,0,1-.682-.534,4.218,4.218,0,0,1,.5-3.354,3.94,3.94,0,0,1,2.6-1.521l.47-.074.238.425a3.743,3.743,0,0,1,.026,3.216A3.293,3.293,0,0,1,315.426,95.189Zm1.75-3.933a2.409,2.409,0,0,0-1.158.839,3.166,3.166,0,0,0-.4,1.7A2,2,0,0,0,317,92.726,2.527,2.527,0,0,0,317.176,91.256Z" transform="translate(228.195 250.161)" fill="#263357"/>
    <path id="Path_796" data-name="Path 796" d="M303.509,74.52c1.422.405,3.3,1.518,2.747,3.888a2.185,2.185,0,0,1-2.161-.965A4.082,4.082,0,0,1,303.509,74.52Z" transform="translate(235.52 260.446)" fill="#be80fe"/>
    <path id="Path_797" data-name="Path 797" d="M304.4,77.273a2.917,2.917,0,0,1-2.341-1.286,4.778,4.778,0,0,1-.72-3.467l.141-.74.724.206c1.965.556,3.859,2.087,3.216,4.708l-.1.441-.444.08A2.757,2.757,0,0,1,304.4,77.273Zm-1.737-3.634a2.946,2.946,0,0,0,.482,1.512,1.778,1.778,0,0,0,1.023.72,2.292,2.292,0,0,0-1.492-2.232Z" transform="translate(237 262.305)" fill="#263357"/>
    <path id="Path_798" data-name="Path 798" d="M360.48,163.044a3.993,3.993,0,0,1,5.789-1.811c-.733,1.409-1.145,2.155-2.721,2.573A4.744,4.744,0,0,1,360.48,163.044Z" transform="translate(196.832 202.018)" fill="#be80fe"/>
    <path id="Path_799" data-name="Path 799" d="M361.167,163.06a5.625,5.625,0,0,1-2.968-.9l-.508-.351.289-.544a4.7,4.7,0,0,1,4.155-2.763,5.721,5.721,0,0,1,2.554.659l.624.322-.322.621c-.73,1.405-1.254,2.422-3.158,2.911l-.074.016A4.418,4.418,0,0,1,361.167,163.06Zm-1.608-1.73a4.017,4.017,0,0,0,1.971.322,2.62,2.62,0,0,0,1.891-1.544,3.84,3.84,0,0,0-1.286-.235,3.126,3.126,0,0,0-2.579,1.457Z" transform="translate(198.725 203.474)" fill="#263357"/>
    <path id="Path_800" data-name="Path 800" d="M371.389,145c2.251,1.019,3.92,4.364,1.83,5.2-.836.418-2.509-.839-2.435-2.322A3.885,3.885,0,0,1,371.389,145Z" transform="translate(189.885 212.633)" fill="#be80fe"/>
    <path id="Path_801" data-name="Path 801" d="M371.394,149.158a2.73,2.73,0,0,1-1.878-.923,3.052,3.052,0,0,1-.878-2.119,4.557,4.557,0,0,1,.746-3.345l.322-.441.5.228a5.543,5.543,0,0,1,3.19,4.464,2.123,2.123,0,0,1-1.364,1.994A1.511,1.511,0,0,1,371.394,149.158Zm-1.2-5.033a3.323,3.323,0,0,0-.193,1.82l.016.077v.08a1.634,1.634,0,0,0,.5,1.184,1.428,1.428,0,0,0,.878.5.148.148,0,0,0,.061,0l.051-.023a.753.753,0,0,0,.524-.756A4.1,4.1,0,0,0,370.2,144.125Z" transform="translate(191.341 214.444)" fill="#263357"/>
    <path id="Path_802" data-name="Path 802" d="M396.582,101.087a.688.688,0,0,1-.122-1.367,31.028,31.028,0,0,0,3.116-.73C413.225,96.1,422.545,83.366,420.844,70a.689.689,0,1,1,1.367-.174c1.791,14.07-8,27.465-22.3,30.495a31.494,31.494,0,0,1-3.216.753.753.753,0,0,1-.113.01Z" transform="translate(172.813 264.036)" fill="#263357"/>
    <path id="Path_803" data-name="Path 803" d="M439.223,153.336c-.965-1.93-4.094-2.779-5.146-.9-.418.836.73,1.885,2.251,1.93a4.715,4.715,0,0,0,2.894-1.032Z" transform="translate(146.963 208.301)" fill="#be80fe"/>
    <path id="Path_804" data-name="Path 804" d="M435.007,153.607h-.138a3.338,3.338,0,0,1-2.753-1.4,1.576,1.576,0,0,1-.087-1.528,2.8,2.8,0,0,1,2.55-1.441,4.454,4.454,0,0,1,3.824,2.338l.248.5-.444.347A5.467,5.467,0,0,1,435.007,153.607Zm-1.759-2.293s-.022.058.055.183a2.028,2.028,0,0,0,1.608.73H435a3.772,3.772,0,0,0,1.827-.544,3.1,3.1,0,0,0-2.251-1.071,1.438,1.438,0,0,0-1.331.7Z" transform="translate(148.4 209.76)" fill="#263357"/>
    <path id="Path_805" data-name="Path 805" d="M431.2,136.22c-1.981.913-3.653,4.258-1.56,5.094.836.418,2.509-.836,2.383-2.338A3.679,3.679,0,0,0,431.2,136.22Z" transform="translate(150.57 218.589)" fill="#be80fe"/>
    <path id="Path_806" data-name="Path 806" d="M428.574,140.322h0a1.5,1.5,0,0,1-.643-.142,2.142,2.142,0,0,1-1.373-2.01,5.326,5.326,0,0,1,2.923-4.338l.46-.212.338.373a4.383,4.383,0,0,1,1.007,3.232,2.962,2.962,0,0,1-.823,2.152A2.692,2.692,0,0,1,428.574,140.322Zm.991-4.95a3.95,3.95,0,0,0-1.637,2.763.772.772,0,0,0,.531.778l.051.023a.256.256,0,0,0,.064,0h0a1.386,1.386,0,0,0,.868-.5,1.589,1.589,0,0,0,.473-1.158v-.135A3.116,3.116,0,0,0,429.565,135.373Z" transform="translate(152.006 220.353)" fill="#263357"/>
    <path id="Path_807" data-name="Path 807" d="M457.173,138.845c-1.229-.9-2.894-2.155-4.573-.9-1.672,1.672.836,2.509,1.907,2.309A4.48,4.48,0,0,0,457.173,138.845Z" transform="translate(134.718 217.778)" fill="#be80fe"/>
    <path id="Path_808" data-name="Path 808" d="M452.7,139.518h0a2.976,2.976,0,0,1-2.692-1.4,1.868,1.868,0,0,1,.643-2.116l.074-.061a3.139,3.139,0,0,1,1.93-.669,6.091,6.091,0,0,1,3.432,1.531l.643.463-.466.563a5.2,5.2,0,0,1-3.1,1.656A2.709,2.709,0,0,1,452.7,139.518ZM451.6,137.01c-.235.248-.357.47-.322.579a1.815,1.815,0,0,0,1.418.55,1.2,1.2,0,0,0,.222-.016,4.017,4.017,0,0,0,1.7-.672,3.865,3.865,0,0,0-1.975-.8A1.749,1.749,0,0,0,451.6,137.01Z" transform="translate(136.175 219.233)" fill="#263357"/>
    <path id="Path_809" data-name="Path 809" d="M446.78,123.13c-1.894.852-2.718,5.123-.209,5.541a2.69,2.69,0,0,0,1.608-2.849,4.345,4.345,0,0,0-1.4-2.692Z" transform="translate(139.493 227.469)" fill="#be80fe"/>
    <path id="Path_810" data-name="Path 810" d="M445.172,127.7l-.167-.029a2.529,2.529,0,0,1-2.113-2.344c-.209-1.608.608-3.808,2.152-4.5l.38-.17.322.254a5.02,5.02,0,0,1,1.653,3.155v.064c.055,2.319-1.1,3.194-2.074,3.518Zm.064-5.368a3.573,3.573,0,0,0-.965,2.817,1.205,1.205,0,0,0,.807,1.126c.679-.3.987-.965.965-2.081A4,4,0,0,0,445.236,122.329Z" transform="translate(140.946 229.152)" fill="#263357"/>
    <path id="Path_811" data-name="Path 811" d="M470.089,120.05c-1.762-1.434-4.39-.489-4.6,1.463.209.627,1.531.9,2.647.556A3.712,3.712,0,0,0,470.089,120.05Z" transform="translate(125.594 230.028)" fill="#be80fe"/>
    <path id="Path_812" data-name="Path 812" d="M465.642,121.452h0a2.226,2.226,0,0,1-2.287-1.18l-.045-.142v-.148a3.257,3.257,0,0,1,3.358-2.772,3.708,3.708,0,0,1,2.364.846l.408.322-.212.482a4.352,4.352,0,0,1-2.38,2.4A4.155,4.155,0,0,1,465.642,121.452Zm-.9-1.56a2.02,2.02,0,0,0,.9.183h0a2.822,2.822,0,0,0,.81-.119,2.608,2.608,0,0,0,1.252-1.132,2.309,2.309,0,0,0-1.023-.235A1.962,1.962,0,0,0,464.738,119.892Z" transform="translate(127.073 231.485)" fill="#263357"/>
    <path id="Path_813" data-name="Path 813" d="M458.384,109.15c-1.071,1.717-1.116,4.6,1.393,5.017a3.227,3.227,0,0,0,.351-3.065,3.573,3.573,0,0,0-1.743-1.952Z" transform="translate(130.886 236.953)" fill="#be80fe"/>
    <path id="Path_814" data-name="Path 814" d="M458.565,113.024l-.383-.061a2.968,2.968,0,0,1-2.351-1.733,4.858,4.858,0,0,1,.486-4.329l.322-.531.56.277a4.248,4.248,0,0,1,2.071,2.3,3.911,3.911,0,0,1-.46,3.789Zm-1.4-4.76a3.3,3.3,0,0,0-.08,2.4,1.521,1.521,0,0,0,.881.823,2.548,2.548,0,0,0,.058-1.965l-.029-.064a2.872,2.872,0,0,0-.823-1.193Z" transform="translate(132.361 238.839)" fill="#263357"/>
    <path id="Path_815" data-name="Path 815" d="M477.94,96.376c-2.171-.556-4.052,1.4-3.287,3.139a2.894,2.894,0,0,0,2.161-.418A3.164,3.164,0,0,0,477.94,96.376Z" transform="translate(119.496 245.684)" fill="#be80fe"/>
    <path id="Path_816" data-name="Path 816" d="M473.759,98.785a2.84,2.84,0,0,1-.714-.084l-.322-.08-.135-.322a2.756,2.756,0,0,1,.244-2.66,3.576,3.576,0,0,1,3.843-1.425l.524.135v.544a3.689,3.689,0,0,1-1.441,3.29A3.776,3.776,0,0,1,473.759,98.785Zm-.019-1.376A2.322,2.322,0,0,0,475,97.036a1.988,1.988,0,0,0,.769-1.547h-.029a2.11,2.11,0,0,0-1.762.917A1.476,1.476,0,0,0,473.74,97.409Z" transform="translate(120.937 247.164)" fill="#263357"/>
    <path id="Path_817" data-name="Path 817" d="M464.021,92a3.1,3.1,0,0,0,0,2.573,2.531,2.531,0,0,0,2.441,1.463c.389-.023.351-1.955-.28-2.788A3.258,3.258,0,0,0,464.021,92Z" transform="translate(126.78 248.588)" fill="#be80fe"/>
    <path id="Path_818" data-name="Path 818" d="M464.758,95.176h0a3.3,3.3,0,0,1-2.82-1.885,3.769,3.769,0,0,1,.026-3.216l.238-.415.473.074a3.949,3.949,0,0,1,2.608,1.531,4.172,4.172,0,0,1,.5,3.345.862.862,0,0,1-.679.534,2.36,2.36,0,0,1-.341.032Zm-1.75-3.933a2.515,2.515,0,0,0,.177,1.467,1.984,1.984,0,0,0,1.376,1.068,3.157,3.157,0,0,0-.389-1.682A2.438,2.438,0,0,0,463.008,91.242Z" transform="translate(128.24 250.175)" fill="#263357"/>
    <path id="Path_819" data-name="Path 819" d="M479.723,74.52c-1.425.405-3.306,1.518-2.746,3.888a2.185,2.185,0,0,0,2.161-.965A4.082,4.082,0,0,0,479.723,74.52Z" transform="translate(117.87 260.446)" fill="#be80fe"/>
    <path id="Path_820" data-name="Path 820" d="M475.884,77.3h0a2.821,2.821,0,0,1-.489-.045l-.444-.08-.1-.441c-.617-2.621,1.264-4.152,3.216-4.708l.724-.206.141.74a4.852,4.852,0,0,1-.72,3.467A2.925,2.925,0,0,1,475.884,77.3Zm1.733-3.634a2.319,2.319,0,0,0-1.5,2.232,1.779,1.779,0,0,0,1.023-.72,2.975,2.975,0,0,0,.479-1.512Z" transform="translate(119.327 262.278)" fill="#263357"/>
    <path id="Path_821" data-name="Path 821" d="M416.669,163.044a3.993,3.993,0,0,0-5.789-1.811c.73,1.409,1.145,2.155,2.718,2.573A4.753,4.753,0,0,0,416.669,163.044Z" transform="translate(162.641 202.018)" fill="#be80fe"/>
    <path id="Path_822" data-name="Path 822" d="M412.115,163.04h0a4.419,4.419,0,0,1-.592-.042l-.074-.016c-1.9-.489-2.431-1.505-3.158-2.911l-.322-.621.624-.322a5.7,5.7,0,0,1,2.55-.659,4.678,4.678,0,0,1,4.158,2.763l.289.544-.508.351A5.634,5.634,0,0,1,412.115,163.04Zm-.36-1.4a4.029,4.029,0,0,0,1.971-.322,3.126,3.126,0,0,0-2.573-1.45,3.821,3.821,0,0,0-1.286.235A2.587,2.587,0,0,0,411.755,161.638Z" transform="translate(164.615 203.495)" fill="#263357"/>
    <path id="Path_823" data-name="Path 823" d="M410.683,145c-2.251,1.019-3.92,4.364-1.83,5.2.836.418,2.508-.839,2.435-2.322a3.9,3.9,0,0,0-.6-2.882Z" transform="translate(164.665 212.633)" fill="#be80fe"/>
    <path id="Path_824" data-name="Path 824" d="M407.766,149.158h0a1.5,1.5,0,0,1-.643-.142,2.119,2.119,0,0,1-1.364-1.994,5.537,5.537,0,0,1,3.19-4.464l.5-.228.322.441a4.554,4.554,0,0,1,.746,3.345,3.036,3.036,0,0,1-.881,2.119A2.73,2.73,0,0,1,407.766,149.158Zm1.2-5.033a4.087,4.087,0,0,0-1.833,2.869.753.753,0,0,0,.521.756l.055.023a.148.148,0,0,0,.061,0,1.434,1.434,0,0,0,.878-.5,1.647,1.647,0,0,0,.5-1.184v-.158a3.354,3.354,0,0,0-.174-1.811Z" transform="translate(166.116 214.444)" fill="#263357"/>
    <rect id="Rectangle_109" data-name="Rectangle 109" width="1.376" height="8.828" transform="translate(567.353 311.026)" fill="#263357"/>
    <path id="Path_825" data-name="Path 825" d="M400.459,7.437H393.84V2.14h6.619l-1.322,2.586Z" transform="translate(174.201 309.548)" fill="#f7ffbc"/>
    <path id="Path_826" data-name="Path 826" d="M399.007,6.673h-6.619a.688.688,0,0,1-.688-.688V.688A.688.688,0,0,1,392.388,0h6.619a.691.691,0,0,1,.614,1L398.454,3.28l1.174,2.4a.688.688,0,0,1-.621.991ZM393.083,5.3h4.824l-.839-1.721a.685.685,0,0,1,0-.617l.81-1.579h-4.8Z" transform="translate(175.653 311)" fill="#263357"/>
    <path id="Path_827" data-name="Path 827" d="M335.538,89.4a3.152,3.152,0,0,1-1.026-.174,2.531,2.531,0,0,1-1.608-1.634,2.673,2.673,0,0,1,.241-2.357,3.023,3.023,0,0,1,2.251-1.257c.595-.061,4.879-.074,5.364-.077v1.38c-1.811,0-4.824.026-5.223.068a1.679,1.679,0,0,0-1.251.643,1.354,1.354,0,0,0-.077,1.187,1.132,1.132,0,0,0,.759.746,1.415,1.415,0,0,0,1.071,0l.762,1.148a2.312,2.312,0,0,1-1.264.328Z" transform="translate(215.654 254.083)" fill="#263357"/>
    <path id="Path_828" data-name="Path 828" d="M351.089,89.427a2.322,2.322,0,0,1-1.27-.338l.765-1.148a1.415,1.415,0,0,0,1.071,0,1.132,1.132,0,0,0,.759-.746,1.341,1.341,0,0,0-.08-1.187,1.669,1.669,0,0,0-1.248-.643c-.4-.042-3.415-.064-5.226-.068V83.94c.486,0,4.769,0,5.368.077a3.026,3.026,0,0,1,2.251,1.257,2.676,2.676,0,0,1,.238,2.357,2.518,2.518,0,0,1-1.608,1.634A3.12,3.12,0,0,1,351.089,89.427Z" transform="translate(206.75 254.055)" fill="#263357"/>
    <path id="Path_829" data-name="Path 829" d="M341.833,100.333a.688.688,0,0,1-.688-.688V91.6a.7.7,0,0,1-.54-.621.679.679,0,0,1,.614-.736,1.145,1.145,0,0,1,.92.322,1.537,1.537,0,0,1,.383,1.145v7.95A.688.688,0,0,1,341.833,100.333Z" transform="translate(210.318 249.781)" fill="#263357"/>
    <path id="Path_830" data-name="Path 830" d="M358.073,102.058a.688.688,0,0,1-.688-.688V91.6a1.5,1.5,0,0,1,.386-1.093,1.145,1.145,0,0,1,.917-.322.688.688,0,0,1,.074,1.36v9.831a.688.688,0,0,1-.688.679Zm.55-11.173-.061.688h0Z" transform="translate(198.934 249.821)" fill="#263357"/>
    <path id="Path_831" data-name="Path 831" d="M350.548,100.955a.688.688,0,0,1-.688-.688V90.548a.688.688,0,0,1,1.376,0v9.709a.688.688,0,0,1-.688.7Z" transform="translate(204.037 250.039)" fill="#263357"/>
    <path id="Path_832" data-name="Path 832" d="M434.833,90.809a2.332,2.332,0,0,1-1.27-.322l.765-1.145a1.444,1.444,0,0,0,1.071,0,1.142,1.142,0,0,0,.775-.756,1.354,1.354,0,0,0-.08-1.187,1.66,1.66,0,0,0-1.248-.643c-.4-.042-3.415-.068-5.226-.071V85.31c.489,0,4.769,0,5.368.077a3.026,3.026,0,0,1,2.251,1.257A2.663,2.663,0,0,1,437.477,89a2.518,2.518,0,0,1-1.608,1.634A3.152,3.152,0,0,1,434.833,90.809Z" transform="translate(149.928 253.126)" fill="#263357"/>
    <path id="Path_833" data-name="Path 833" d="M419.248,90.809a3.139,3.139,0,0,1-1.026-.174A2.525,2.525,0,0,1,416.614,89a2.672,2.672,0,0,1,.241-2.357,3.026,3.026,0,0,1,2.251-1.257c.595-.061,4.879-.074,5.364-.077v1.38c-1.811,0-4.824.029-5.226.071a1.666,1.666,0,0,0-1.251.643,1.354,1.354,0,0,0-.084,1.184,1.142,1.142,0,0,0,.759.749,1.447,1.447,0,0,0,1.071,0l.765,1.145A2.332,2.332,0,0,1,419.248,90.809Z" transform="translate(158.866 253.126)" fill="#263357"/>
    <path id="Path_834" data-name="Path 834" d="M441.783,101.685a.688.688,0,0,1-.688-.688V93a1.5,1.5,0,0,1,.386-1.093,1.135,1.135,0,0,1,.917-.322.688.688,0,0,1,.074,1.357v8.04a.688.688,0,0,1-.688.7Z" transform="translate(142.145 248.872)" fill="#263357"/>
    <path id="Path_835" data-name="Path 835" d="M425.543,103.454a.688.688,0,0,1-.688-.688V92.954a.7.7,0,0,1-.54-.617.685.685,0,0,1,.614-.74,1.138,1.138,0,0,1,.92.322,1.518,1.518,0,0,1,.383,1.142v9.716A.688.688,0,0,1,425.543,103.454Z" transform="translate(153.529 248.866)" fill="#263357"/>
    <path id="Path_836" data-name="Path 836" d="M434.288,102.349a.688.688,0,0,1-.688-.691V91.948a.688.688,0,0,1,1.376,0v9.709a.688.688,0,0,1-.688.691Z" transform="translate(147.228 249.09)" fill="#263357"/>
    <path id="Path_837" data-name="Path 837" d="M378.088,89.4a3.062,3.062,0,0,1-1.026-.177,2.512,2.512,0,0,1-1.608-1.63,2.673,2.673,0,0,1,.241-2.357,3.026,3.026,0,0,1,2.251-1.257c.6-.061,4.879-.074,5.364-.077v1.38c-1.811,0-4.824.026-5.226.068a1.666,1.666,0,0,0-1.248.643,1.341,1.341,0,0,0-.08,1.187,1.126,1.126,0,0,0,.756.746,1.425,1.425,0,0,0,1.074,0l.765,1.148A2.331,2.331,0,0,1,378.088,89.4Z" transform="translate(186.789 254.083)" fill="#263357"/>
    <path id="Path_838" data-name="Path 838" d="M393.6,89.379a2.332,2.332,0,0,1-1.286-.338l.765-1.148a1.415,1.415,0,0,0,1.071,0,1.132,1.132,0,0,0,.759-.746,1.351,1.351,0,0,0-.08-1.187,1.66,1.66,0,0,0-1.248-.643c-.4-.042-3.415-.064-5.226-.068V83.87c.486,0,4.769,0,5.364.077a3.026,3.026,0,0,1,2.251,1.257,2.676,2.676,0,0,1,.238,2.357A2.518,2.518,0,0,1,394.6,89.2a3.12,3.12,0,0,1-1,.183Z" transform="translate(177.925 254.103)" fill="#263357"/>
    <path id="Path_839" data-name="Path 839" d="M383.643,105.172a.688.688,0,0,1-.688-.688v-12.9a.7.7,0,0,1-.54-.617.682.682,0,0,1,.614-.74,1.132,1.132,0,0,1,.917.322,1.547,1.547,0,0,1,.386,1.145v12.8A.688.688,0,0,1,383.643,105.172Z" transform="translate(181.954 249.795)" fill="#263357"/>
    <path id="Path_840" data-name="Path 840" d="M401.343,105.124a.688.688,0,0,1-.688-.688V91.572a1.5,1.5,0,0,1,.386-1.093,1.135,1.135,0,0,1,.917-.322.688.688,0,0,1,.074,1.36h0V104.41a.688.688,0,0,1-.688.714Zm.553-14.26-.061.688h0Z" transform="translate(169.58 249.842)" fill="#263357"/>
    <path id="Path_841" data-name="Path 841" d="M393.118,106.89a.688.688,0,0,1-.688-.688V91.488a.688.688,0,1,1,1.376,0V106.2A.688.688,0,0,1,393.118,106.89Z" transform="translate(175.157 249.402)" fill="#263357"/>
  </g>
</svg>
