<?xml version="1.0" encoding="utf-8"?>
<!-- Generator: Adobe Illustrator 21.0.2, SVG Export Plug-In . SVG Version: 6.00 Build 0)  -->
<svg version="1.1" id="Слой_1" xmlns="http://www.w3.org/2000/svg" xmlns:xlink="http://www.w3.org/1999/xlink" x="0px" y="0px"
	 viewBox="0 0 350 370" style="enable-background:new 0 0 350 370;" xml:space="preserve">
<style type="text/css">
	.st0{fill:#8FACFF;}
	.st1{fill:#FF3E6C;}
	.st2{fill:#5F5FFF;}
	.st3{fill:#030047;}
	.st4{fill:#FFFFFF;}
	.st5{fill:#FFC2D6;}
	.st6{fill:#F2F2F9;}
	.st7{fill:#E4E4EF;}
	.st8{fill:#FFCC3E;}
</style>
<g id="_x31_">
	<g id="Bottom_88_">
		<g id="Legs_9_">
			<g>
				<path class="st0" d="M212.1,256.1c-6.5-2.6-12.3-3-12.3-30.5c-11.2,2.5-22.4,4.5-33.8,6c0.6,17,1,33.7,1,33.7l50.6,0.1
					C217.7,265.4,218.7,258.8,212.1,256.1z"/>
			</g>
			<g>
				<path class="st1" d="M199.9,231.8c-0.1-2.3-0.1-4.8-0.1-7.5c0.2-29.8,9.6-47.3-18.8-59.4c-8.2-3.5-18.2-9.1-32.9-13.4
					c-15.7-4.6-11.6-3-11.6-3l-22,15.9c46.2,31.5,42.8,29.1,50.2,34.1c-1.2,7.4,1.1,21.9,1.6,36.4
					C177.4,234.1,188.7,233.1,199.9,231.8z"/>
			</g>
			<g>
				<path class="st2" d="M157.1,205.8c1.1-2,18.8-32.3,23.8-41c-7.6-4.8-18.2-9.1-32.9-13.4c-15.7-4.6-11.6-3-11.6-3l-22,15.9
					C139.7,192.7,152.5,202.6,157.1,205.8z"/>
			</g>
			<g>
				<path class="st3" d="M200.8,241.7c-11.4,1.4-22.9,2.4-34.4,3.1c0.4,11.5,0.6,20.5,0.6,20.5l50.6,0.1c0,0,1.1-6.6-5.6-9.3
					C207.2,254.2,202.8,253.5,200.8,241.7z"/>
			</g>
			<g>
				<path class="st1" d="M206,246.6l-8.5,6.5c-0.5,0.4,0,1.2,0.5,0.9l8.5-6.5C207,247.1,206.5,246.3,206,246.6z"/>
			</g>
			<g>
				<path class="st1" d="M208.6,249.9c-2,1.7-3.7,3.8-4.9,6.2c-0.3,0.6,0.6,1.1,0.9,0.5c1.2-2.3,2.8-4.3,4.8-6
					C209.8,250.2,209.1,249.5,208.6,249.9z"/>
			</g>
			<g>
				<path class="st0" d="M98.7,152.5c-4,15.2,0.7,56.3-9.7,77.2c-6,12-32.3,58.7-32.3,58.7l43.3,26.1c0,0,4.3-5.1,0-10.8
					c-4.3-5.7-9.1-9,5.9-33.7c21.1-34.7,29-52.6,29-89.3c0-16.3-1.4-31-1.4-31L98.7,152.5z"/>
			</g>
			<g>
				<path class="st1" d="M102.2,276.6c1.1-2,2.3-4.2,3.8-6.5c21.1-34.7,29-52.6,29-89.3c0-16.3-1.4-31-1.4-31l-34.8,2.9
					c-4,15.2,0.7,56.3-9.7,77.2c-2.9,5.7-10.3,19.4-17.4,32C81.7,267,91.8,271.9,102.2,276.6z"/>
			</g>
			<g>
				<path class="st2" d="M137.5,219.5c6.3-23.2-4-69.9-4-69.9l-34.8,2.9c-3,11.6-1.1,38.2-4.5,59.5
					C94.9,212.2,132.5,219.2,137.5,219.5z"/>
			</g>
			<g>
				<path class="st3" d="M97.8,285.5c-10.5-4.7-20.8-9.7-31.1-15c-5.6,10.1-10.1,17.9-10.1,17.9l43.3,26.1c0,0,4.3-5.1,0-10.8
					C96.9,299.5,93.4,296.6,97.8,285.5z"/>
			</g>
			<g>
				<path class="st1" d="M99.7,292.4l-10.6,1.2c-0.6,0.1-0.6,1.1,0,1l10.6-1.2C100.3,293.4,100.3,292.4,99.7,292.4z"/>
			</g>
			<g>
				<path class="st1" d="M100.2,296.5c-2.6,0.4-5.1,1.4-7.4,2.8c-0.6,0.3,0,1.2,0.5,0.9c2.2-1.4,4.6-2.2,7.2-2.7
					C101.1,297.4,100.9,296.4,100.2,296.5z"/>
			</g>
			<g>
				<path class="st4" d="M138.1,189.5c-0.4,0-0.8-0.3-0.8-0.8c0-5.7,0.5-9.9,0.5-9.9l0.1-0.5l0.5-0.1c0,0,3.8-0.8,7.7-3.7
					c0.3-0.3,0.8-0.2,1.1,0.1c0.2,0.3,0.2,0.8-0.1,1.1c-3.4,2.5-6.5,3.6-7.8,3.9c-0.1,1.3-0.4,4.8-0.4,9.2
					C138.9,189.1,138.5,189.5,138.1,189.5z"/>
			</g>
			<g>
				<path class="st5" d="M197.9,190.7c-1.9-0.4-3.4-1.9-3.7-3.8c-0.1-0.6-1.1-0.4-1,0.3c0.4,2.2,2.1,4.1,4.4,4.5
					C198.2,191.8,198.5,190.8,197.9,190.7z"/>
			</g>
			<g>
				<path class="st5" d="M121.3,227c0.3-0.6-0.5-1.1-0.9-0.5c-1.2,2.1-1.2,4.5,0,6.6c0.3,0.6,1.2,0.1,0.9-0.5
					C120.2,230.8,120.2,228.8,121.3,227z"/>
			</g>
		</g>
		<g id="Steps">
			<g>
				<path class="st2" d="M171.4,315.3c-0.4,0-0.8-0.3-0.8-0.8v-49.3h49.3c0.4,0,0.8,0.3,0.8,0.8s-0.3,0.8-0.8,0.8h-47.8v47.8
					C172.1,314.9,171.8,315.3,171.4,315.3z"/>
			</g>
			<g>
				<path class="st2" d="M219.9,266.7c-0.4,0-0.8-0.3-0.8-0.8v-49.3H253c0.4,0,0.8,0.3,0.8,0.8s-0.3,0.8-0.8,0.8h-32.4V266
					C220.7,266.4,220.3,266.7,219.9,266.7z"/>
			</g>
			<g>
				<path class="st2" d="M268.4,218.2h-9.1c-0.4,0-0.8-0.3-0.8-0.8s0.3-0.8,0.8-0.8h9.1c0.4,0,0.8,0.3,0.8,0.8
					S268.8,218.2,268.4,218.2z"/>
			</g>
			<g>
				<path class="st2" d="M268.4,218.2c-0.4,0-0.8-0.3-0.8-0.8v-28.8c0-0.4,0.3-0.8,0.8-0.8s0.8,0.3,0.8,0.8v28.8
					C269.2,217.9,268.8,218.2,268.4,218.2z"/>
			</g>
			<g>
				<path class="st2" d="M268.4,182.8c-0.4,0-0.8-0.3-0.8-0.8v-13.8h18.7c0.4,0,0.8,0.3,0.8,0.8s-0.3,0.8-0.8,0.8h-17.2V182
					C269.2,182.4,268.8,182.8,268.4,182.8z"/>
			</g>
			<g>
				<path class="st2" d="M317,169.7h-8.6c-0.4,0-0.8-0.3-0.8-0.8s0.3-0.8,0.8-0.8h8.6c0.4,0,0.8,0.3,0.8,0.8S317.4,169.7,317,169.7z
					"/>
			</g>
		</g>
	</g>
	<g id="Background_76_">
		<g>
			<path class="st6" d="M247.1,130.7l15,23.3c0,0,10-10.2,3-19.7S247.1,130.7,247.1,130.7z"/>
		</g>
		<g>
			<circle class="st7" cx="250.1" cy="148.4" r="4.2"/>
		</g>
		<g>
			<path class="st7" d="M213.3,211.8c-0.3,0-0.6-0.2-0.7-0.4l-6.2-13.6c-0.2-0.4,0-0.8,0.4-1c0.4-0.2,0.8,0,1,0.4l6.2,13.6
				c0.2,0.4,0,0.8-0.4,1C213.5,211.8,213.4,211.8,213.3,211.8z"/>
		</g>
		<g>
			<path class="st7" d="M203.3,208.1c-0.3,0-0.6-0.2-0.7-0.4c-0.2-0.4,0-0.8,0.4-1l13.6-6.2c0.4-0.2,0.8,0,1,0.4
				c0.2,0.4,0,0.8-0.4,1l-13.6,6.2C203.5,208.1,203.4,208.1,203.3,208.1z"/>
		</g>
		<g>
			<polygon class="st7" points="149.5,264.5 145.2,281.8 161.2,276 			"/>
		</g>
		<g>
			<path class="st7" d="M62.7,185.5c-0.2,0-0.4-0.1-0.5-0.2l-6-5.3c-0.3-0.3-0.3-0.7-0.1-1.1c0.3-0.3,0.8-0.3,1.1-0.1l6,5.3
				c0.3,0.3,0.3,0.7,0.1,1.1C63.1,185.4,62.9,185.5,62.7,185.5z"/>
		</g>
		<g>
			<path class="st7" d="M34.4,224.1c-0.2,0-0.4-0.1-0.6-0.3c-0.3-0.3-0.2-0.8,0.1-1.1l9.3-7.7c0.3-0.3,0.8-0.2,1.1,0.1
				c0.3,0.3,0.2,0.8-0.1,1.1l-9.3,7.7C34.7,224.1,34.6,224.1,34.4,224.1z"/>
		</g>
		<g>
			<path class="st7" d="M148,257.1c-0.1,0-0.2,0-0.3,0l-8.3-3c-0.4-0.1-0.6-0.6-0.5-1c0.1-0.4,0.6-0.6,1-0.5l8.3,3
				c0.4,0.1,0.6,0.6,0.5,1C148.6,256.9,148.4,257.1,148,257.1z"/>
		</g>
		<g>
			<path class="st7" d="M146.4,261.5c-0.1,0-0.1,0-0.2,0l-7.7-2c-0.4-0.1-0.6-0.5-0.5-0.9c0.1-0.4,0.5-0.6,0.9-0.5l7.7,2
				c0.4,0.1,0.6,0.5,0.5,0.9C147.1,261.2,146.8,261.5,146.4,261.5z"/>
		</g>
		<g>
			<polygon class="st7" points="182.7,290.3 213.8,273.1 213.8,311.8 			"/>
		</g>
		<g>
			<rect x="43.7" y="304.2" transform="matrix(0.866 -0.5 0.5 0.866 -147.641 65.0328)" class="st7" width="7.6" height="7.6"/>
		</g>
	</g>
	<g id="Top_91_">
		<g id="Hand_2_28_">
			<g>
				<path class="st1" d="M152.5,120.2c12-5.6,16.5-6.2,23.9-4.8c5.7,1.1,6.6,4.8,8.2,8.2c2.9,6-1.1,5.6-1.1,5.6s1.4,2.6-2.7,2.2
					c0,0-1,1.4-4.6,0s-17.4,0.5-19.1,5.2c-0.9,2.6-8.4,0.4-10.7-4.1C144.5,128.7,147,122.8,152.5,120.2z"/>
			</g>
			<g>
				<path class="st2" d="M167.8,130.6c-2.9,0.7-6-0.4-7.7-2.9c-0.4-0.5-1.2,0-0.9,0.5c2,2.8,5.4,4.1,8.8,3.3
					C168.7,131.4,168.4,130.5,167.8,130.6z"/>
			</g>
			<g>
				<path class="st2" d="M178.7,132.3c0.3-0.1,0.7-0.2,1-0.2c-0.9-2.2-1.8-4.3-2.8-6.5c-1-2-1.8-4.4-3.9-5.3
					c-0.6-0.3-1.1,0.6-0.5,0.9c2.1,0.9,3.1,3.9,4,5.8C177.3,128.7,178,130.5,178.7,132.3z"/>
			</g>
			<g>
				<path class="st2" d="M184.6,131.9c-1.4-4-3.2-7.7-5.5-11.2c-0.3-0.5-1.2,0-0.9,0.5c2.2,3.5,4,7.1,5.4,11
					C183.8,132.8,184.8,132.5,184.6,131.9z"/>
			</g>
			<g>
				<path class="st2" d="M174.3,128.5c-1.4-1.5-3.5-1.2-5-2.4c-0.9-0.7-1.4-1.7-2.2-2.4c-0.8-0.8-1.6-1.4-2.6-1.9
					c-0.6-0.3-1.1,0.5-0.5,0.9c1.2,0.7,2.2,1.5,3.1,2.5c0.6,0.7,1,1.6,1.8,2.1c0.7,0.4,1.6,0.5,2.4,0.7c0.7,0.2,1.6,0.5,2.1,1
					c1.4,1.3,0.2,3.1-1.7,3.2c-0.6,0-0.6,1,0,1c1.2-0.1,2.6-0.2,3.2-1.4C175.5,130.7,175.1,129.4,174.3,128.5z"/>
			</g>
		</g>
		<g id="Hair_1_">
			<path class="st3" d="M122.4,65.4c-0.5,0.4-0.9,1-1.2,1.4c-3.4-0.3-7,1.4-8.9,4.6c-0.6,1-1,2-1.2,3c-2.3,0.4-4.8,1.8-6.3,3.2
				c-2.7,2.7-2.8,7.4-0.9,10.6c-0.9,2-1.2,4.4-0.5,6.4c0.3,0.9,0.7,1.6,1.2,2.3c0.4,1.7,1.4,3.2,3.4,4.3c4.7,2.7,11.6,0.8,16.1-1.5
				c2.6-1.3,5-3.2,6.8-5.5c1,0.1,2-0.2,3-0.7c5.2-1.5,10.4-6.9,6.7-11.8c-0.1-1.2-0.4-2.2-1.2-3c-0.8-1.4-1.7-2.1-2.7-2.3
				c1.3,0.1,2.7-0.3,3.9-0.9c1.3-1.9,2.6-3.8,3.6-5.8c0.8-1.5,1.9-2.2,3.2-2.5C144.3,61.6,132.9,55.9,122.4,65.4z"/>
		</g>
		<g id="Head_20_">
			<g>
				<path class="st1" d="M133.4,80.7c-4.4,3.1-8.4,1.9-10.3-1.2c-1.8-2.9-0.9-7.8,3.4-8.3c1.4-0.2,3.1,0,5.1,0.8
					c0,0,1.2,1.1,2.2,2.5C134.9,76.3,135.9,78.9,133.4,80.7z"/>
			</g>
			<g>
				<path class="st1" d="M135.8,85.4c9.9,2.5,15.4-3.8,15.2-12.1c-0.1-3.7-0.4-7.7-2.4-10.8c-1.8-2.9-4.6-5.1-7.9-5.7
					c-7.1-1.2-13.9,4.2-15.2,12.1c0,0,0,0,0,0.1C124.1,76.9,129.1,83.7,135.8,85.4z"/>
			</g>
			<g>
				<ellipse transform="matrix(0.5344 -0.8452 0.8452 0.5344 5.0715 152.376)" class="st3" cx="140.9" cy="71.6" rx="1" ry="1"/>
			</g>
			<g>
				<path class="st3" d="M147.3,77c0.1-2.2-0.2-4.5-0.7-6.6c-0.2-0.6-1.1-0.4-1,0.2c0.5,2.1,0.8,4.2,0.7,6.4
					C146.3,77.6,147.3,77.6,147.3,77z"/>
			</g>
			<g>
				<path class="st3" d="M131,76.7c-1.2-2-3.7-3-5.9-2.3c-0.6,0.2-0.4,1.2,0.2,1c1.8-0.6,3.8,0.1,4.8,1.7
					C130.4,77.7,131.3,77.3,131,76.7z"/>
			</g>
			<g>
				<path class="st3" d="M130.5,71.6c1.7,2,2.6-1.9,7.6-5.6c2.2-1.6,11.4,1,14.4-5.3c2.7-6.7-8.8-7.1-11.9-3.9
					c-7.1-1.2-16.6,3.8-15.7,14.7C125,71.5,129.4,71.2,130.5,71.6z"/>
			</g>
		</g>
		<g id="Body_32_">
			<g>
				<path class="st8" d="M152.7,157.7c-19.9,3.7-60,1-60,1s3.8-22.6,9.3-44c5-19.4,15.3-26.8,25.7-27.4c4.1-0.3,8.2,0.6,12.1,2.1
					c2.5,1,4.5,2.2,6.1,3.7c9.7,8.6,6.9,24.8,3.8,33.3C146.2,136.4,152.7,157.7,152.7,157.7z"/>
			</g>
			<g>
				<path class="st1" d="M146,93.1c-4.3,3.4-11.4,5-18.2-5.8c4.1-0.3,8.2,0.6,12.1,2.1C142.3,90.3,144.3,91.6,146,93.1z"/>
			</g>
		</g>
		<g id="Download">
			<g>
				<rect x="176" y="53.6" class="st0" width="19.3" height="24.5"/>
			</g>
			<g>
				<polygon class="st0" points="185.6,100 166.8,75.5 204.5,75.5 				"/>
			</g>
			<g>
				<path class="st2" d="M207.7,61.4c-0.2,0-0.4-0.1-0.5-0.2l-6.4-6.4c-0.3-0.3-0.3-0.8,0-1.1s0.8-0.3,1.1,0l6.4,6.4
					c0.3,0.3,0.3,0.8,0,1.1C208.1,61.4,207.9,61.4,207.7,61.4z"/>
			</g>
			<g>
				<path class="st2" d="M201.3,61.4c-0.2,0-0.4-0.1-0.5-0.2c-0.3-0.3-0.3-0.8,0-1.1l6.4-6.4c0.3-0.3,0.8-0.3,1.1,0s0.3,0.8,0,1.1
					l-6.4,6.4C201.7,61.4,201.5,61.4,201.3,61.4z"/>
			</g>
		</g>
		<g id="Hand_31_">
			<g>
				<path class="st1" d="M207.4,123.4c6,3.9,12.5,8.8-1.2,21.7C195.5,155.3,207.4,123.4,207.4,123.4z"/>
			</g>
			<g>
				<path class="st1" d="M209.7,124.4c0.9-5.4-0.6-9.8-4.5-5.4c-3.9,4.5-0.3,15.2-6,12.5s-11.3,0.1-27.7,5.4
					c-9.8,3.1-26.2-4.5-35.7-20.2c-5,6.4-10.7,12.3-16.6,17.9c5.9,8.2,11.6,18.8,27.4,24.9c20,7.8,42.6-6.5,54.9-11.3
					C213.5,143.5,208.8,129.8,209.7,124.4z"/>
			</g>
			<g>
				<path class="st2" d="M205.8,125.8c-0.9-1.2-2.6-1.2-3.5,0c-0.4,0.5,0.5,1,0.9,0.5c2.2-1,2.5,1.4,2,2.8c-0.1,0.3-0.1,0.6-0.2,0.8
					c-0.2,0.8-0.4,1.7-0.6,2.5c-0.7,2.4-1.5,4.1-3.8,5.4c-3.6,1.9-7.5,3.3-11.4,4.3c-0.6,0.2-0.4,1.1,0.3,1
					c3.6-0.9,7.1-2.2,10.4-3.8c3-1.5,4.4-2.9,5.3-6.2C205.7,131.3,207.2,127.6,205.8,125.8z"/>
			</g>
			<g>
				<path class="st2" d="M134.9,114.8c-0.3,0-0.5-0.1-0.7-0.4c-0.1-0.2-2.6-5.1-3.9-9.1c-0.1-0.4,0.1-0.8,0.5-0.9
					c0.4-0.1,0.8,0.1,0.9,0.5c1.3,3.9,3.8,8.9,3.9,8.9c0.2,0.4,0,0.8-0.3,1C135.2,114.8,135.1,114.8,134.9,114.8z"/>
			</g>
			<g>
				<path class="st2" d="M116.9,134.5c-0.3,0-0.5-0.1-0.7-0.4l-5.8-10.3c-0.2-0.4-0.1-0.8,0.3-1c0.4-0.2,0.8-0.1,1,0.3l5.8,10.3
					c0.2,0.4,0.1,0.8-0.3,1C117.1,134.4,117,134.5,116.9,134.5z"/>
			</g>
			<g>
				<path class="st2" d="M210.5,128.7c-0.2-0.2-0.4-0.2-0.6-0.1c0.1-0.9,0.1-1.9,0.1-2.8c0-0.6-1-0.6-1,0c0,4.1-0.7,8.3-1.1,12.4
					c-0.1,0.6,0.9,0.6,1,0c0.3-2.9,0.7-5.8,0.9-8.7c2.1,2.3,2,5.5-0.1,7.7c-0.4,0.5,0.3,1.2,0.7,0.7
					C213,135.3,213,131.4,210.5,128.7z"/>
			</g>
			<g>
				<path class="st4" d="M156.3,136c-0.1,0-0.2,0-0.3-0.1l-6.5-2.7c-0.4-0.2-0.6-0.6-0.4-1c0.2-0.4,0.6-0.6,1-0.4l6.5,2.7
					c0.4,0.2,0.6,0.6,0.4,1C156.9,135.9,156.6,136,156.3,136z"/>
			</g>
		</g>
		<g id="Notebook_1_">
			<g>
				<path class="st3" d="M200.7,130.7h-38.7c-1.9,0-1.9,3,0,3h38.7C202.6,133.7,202.7,130.7,200.7,130.7z"/>
			</g>
			<g>
				<path class="st3" d="M201.6,132.7l13.1-36.4c0.7-1.8-2.2-2.8-2.8-1l-13.1,36.4C198.1,133.5,200.9,134.6,201.6,132.7z"/>
			</g>
			<g>
				<path class="st3" d="M200.7,108.6c-0.2,0-0.4-0.1-0.6-0.3l-7.5-8.5c-0.3-0.3-0.2-0.8,0.1-1.1c0.3-0.3,0.8-0.2,1.1,0.1l7.5,8.5
					c0.3,0.3,0.2,0.8-0.1,1.1C201.1,108.5,200.9,108.6,200.7,108.6z"/>
			</g>
			<g>
				<path class="st3" d="M195.7,113.5c-0.1,0-0.2,0-0.3-0.1l-10.1-4.8c-0.4-0.2-0.5-0.6-0.4-1c0.2-0.4,0.6-0.5,1-0.4l10.1,4.8
					c0.4,0.2,0.5,0.6,0.4,1C196.3,113.3,196,113.5,195.7,113.5z"/>
			</g>
		</g>
	</g>
</g>
</svg>
