<svg xmlns="http://www.w3.org/2000/svg" width="71.319" height="43.821" viewBox="0 0 71.319 43.821">
  <g id="Group_332" data-name="Group 332" transform="translate(-822 -245.42)">
    <path id="Path_888" data-name="Path 888" d="M96.495,59.814H91.137a.757.757,0,1,1,0-1.514h5.357a.757.757,0,0,1,0,1.514Z" transform="translate(763.601 194.508)" fill="#263357"/>
    <path id="Path_889" data-name="Path 889" d="M77.631,86.341c0,1.146-1.9,2.077-3.05,2.077h-46c-1.15,0-2.81-.931-2.81-2.077V54.951a2.077,2.077,0,0,1,2.077-2.081H75.554a2.077,2.077,0,0,1,2.077,2.081Z" transform="translate(805.349 198.017)" fill="#ebf2ff"/>
    <path id="Path_890" data-name="Path 890" d="M73.191,87.809h-46c-1.415,0-3.57-1.132-3.57-2.831v-31.4a2.831,2.831,0,0,1,2.831-2.831H74.165A2.831,2.831,0,0,1,77,53.581v31.39C77,86.73,74.533,87.809,73.191,87.809ZM26.461,52.254a1.32,1.32,0,0,0-1.32,1.32v31.39c0,.566,1.168,1.32,2.052,1.32h46c.92,0,2.293-.789,2.293-1.32V53.581a1.32,1.32,0,0,0-1.323-1.327Z" transform="translate(806.738 199.387)" fill="#263357"/>
    <path id="Path_891" data-name="Path 891" d="M12.7,142.32v1.546a4.447,4.447,0,0,0,4.565,4.3H69.218c2.611,0,4.841-2.028,4.841-4.3V142.32Z" transform="translate(813.794 140.219)" fill="#ebf2ff"/>
    <path id="Path_892" data-name="Path 892" d="M67.861,147.56H15.908A5.188,5.188,0,0,1,10.6,142.5v-1.546a.757.757,0,0,1,.757-.757H72.7a.757.757,0,0,1,.757.757V142.5C73.459,145.189,70.844,147.56,67.861,147.56ZM12.1,141.711v.786a3.684,3.684,0,0,0,3.807,3.539H67.861c2.176,0,4.08-1.652,4.08-3.539v-.786Z" transform="translate(815.151 141.589)" fill="#263357"/>
    <path id="Path_893" data-name="Path 893" d="M167.226,144.5v.8c0,2.155-2,3.581-4.756,3.581h3.057c2.757,0,4.533-1.415,4.533-3.581v-.8Z" transform="translate(717.021 138.811)" fill="#b8d4ea"/>
    <rect id="Rectangle_113" data-name="Rectangle 113" width="43.825" height="26.295" transform="translate(835.259 256.244)" fill="#be80fe"/>
    <path id="Path_894" data-name="Path 894" d="M79.916,93.676H36.087a.757.757,0,0,1-.757-.761v-26.3a.757.757,0,0,1,.757-.757H79.916a.757.757,0,0,1,.757.757V92.912a.757.757,0,0,1-.757.764ZM36.848,92.158h42.31V67.389H36.848Z" transform="translate(799.172 189.624)" fill="#263357"/>
    <rect id="Rectangle_114" data-name="Rectangle 114" width="2.923" height="24.773" transform="translate(875.432 256.977)" fill="#be80fe"/>
    <path id="Path_895" data-name="Path 895" d="M67.108,158.184H.842a.842.842,0,1,1,0-1.684H67.108a.842.842,0,1,1,0,1.684Z" transform="translate(822 131.057)" fill="#263357"/>
    <path id="Path_896" data-name="Path 896" d="M195.584,158.184h-1.122a.842.842,0,1,1,0-1.684h1.122a.842.842,0,1,1,0,1.684Z" transform="translate(696.893 131.057)" fill="#263357"/>
    <path id="Path_897" data-name="Path 897" d="M85.57,145.714H76.32a3.216,3.216,0,0,1-3.22-2.93l1.667-.258a1.547,1.547,0,0,0,1.553,1.5h9.25a1.636,1.636,0,0,0,1.553-1.61l1.667.255A3.312,3.312,0,0,1,85.57,145.714Z" transform="translate(774.767 140.155)" fill="#263357"/>
    <path id="Path_898" data-name="Path 898" d="M83.782,40.609H70.1s-2.923-.354-3.652,2.194a4.508,4.508,0,0,0-3.892-2.194H48.4v29.2H64.628a2.141,2.141,0,0,0,2.1,1.355,1.989,1.989,0,0,0,2.024-1.341H83.782Z" transform="translate(790.727 205.95)" fill="#ebf2ff"/>
    <path id="Path_899" data-name="Path 899" d="M65.709,69.663a3.089,3.089,0,0,1-2.626-1.338H47.662a.842.842,0,0,1-.842-.846V38.28a.839.839,0,0,1,.842-.842H61.6a5.488,5.488,0,0,1,3.687,1.483,4.187,4.187,0,0,1,3.422-1.5H83.044a.839.839,0,0,1,.842.842v29.2a.842.842,0,0,1-.842.846H68.26A2.831,2.831,0,0,1,65.709,69.663ZM48.5,66.641h15.1a.842.842,0,0,1,.789.552,1.306,1.306,0,0,0,1.313.789,1.133,1.133,0,0,0,1.231-.789.849.849,0,0,1,.793-.552H82.2V39.122H68.7a2.327,2.327,0,0,0-2.477,1.6.842.842,0,0,1-1.539.191,3.631,3.631,0,0,0-3.1-1.769H48.494Z" transform="translate(791.747 208)" fill="#263357"/>
    <path id="Path_900" data-name="Path 900" d="M67.282,131.3a8.458,8.458,0,0,1-4.246-1.706H50.042a.842.842,0,1,1,0-1.684h13.27a.863.863,0,0,1,.534.188,7.159,7.159,0,0,0,3.454,1.518,5.867,5.867,0,0,0,2.254-1.062c.326-.2.637-.4.924-.552a.842.842,0,0,1,.4-.1H83.174a.842.842,0,1,1,0,1.684H71.1c-.205.12-.425.258-.651.4a6.862,6.862,0,0,1-3.089,1.306Z" transform="translate(790.21 149.537)" fill="#263357"/>
    <path id="Path_901" data-name="Path 901" d="M98.462,67.171a.846.846,0,0,1-.842-.846V43.862a.842.842,0,1,1,1.684,0V66.325a.842.842,0,0,1-.842.846Z" transform="translate(758.923 204.382)" fill="#263357"/>
    <rect id="Rectangle_115" data-name="Rectangle 115" width="9.547" height="4.494" transform="translate(843.621 250.491)" fill="#a0c1c8"/>
    <rect id="Rectangle_116" data-name="Rectangle 116" width="9.547" height="4.494" transform="translate(843.621 266.216)" fill="#a0c1c8"/>
    <rect id="Rectangle_117" data-name="Rectangle 117" width="10.11" height="9.547" transform="translate(861.03 255.547)" fill="#b5cfd4"/>
    <path id="Path_902" data-name="Path 902" d="M69.17,79.694H61.307a.757.757,0,1,1,0-1.514H69.17a.757.757,0,1,1,0,1.514Z" transform="translate(782.876 181.663)" fill="#263357"/>
    <path id="Path_903" data-name="Path 903" d="M69.015,70.924H61.152a.842.842,0,1,1,0-1.684h7.863a.842.842,0,0,1,0,1.684Z" transform="translate(783.031 187.44)" fill="#263357"/>
    <path id="Path_904" data-name="Path 904" d="M118.3,58.194h-9.554a.842.842,0,0,1,0-1.684H118.3a.842.842,0,1,1,0,1.684Z" transform="translate(752.281 195.665)" fill="#263357"/>
    <path id="Path_905" data-name="Path 905" d="M118.3,50.264h-9.554a.842.842,0,0,1,0-1.684H118.3a.842.842,0,1,1,0,1.684Z" transform="translate(752.281 200.789)" fill="#263357"/>
    <path id="Path_906" data-name="Path 906" d="M119.337,107.394h-8.984a.842.842,0,1,1,0-1.684h8.984a.842.842,0,1,1,0,1.684Z" transform="translate(751.241 163.875)" fill="#263357"/>
    <path id="Path_907" data-name="Path 907" d="M119.337,99.464h-8.984a.842.842,0,1,1,0-1.684h8.984a.842.842,0,0,1,0,1.684Z" transform="translate(751.241 168.999)" fill="#263357"/>
    <path id="Path_908" data-name="Path 908" d="M69.015,88.354H61.152a.842.842,0,1,1,0-1.684h7.863a.842.842,0,0,1,0,1.684Z" transform="translate(783.031 176.177)" fill="#263357"/>
  </g>
</svg>
