<svg xmlns="http://www.w3.org/2000/svg" width="46.876" height="43.921" viewBox="0 0 46.876 43.921">
  <g id="Group_334" data-name="Group 334" transform="translate(-1127.81 -469.21)">
    <path id="Path_842" data-name="Path 842" d="M437.715,282.152l-1.109-.306a12.8,12.8,0,0,0-.694-7.982c-1.16-2.395-4.361-4.9-9.935-4.789l-.027-1.139c6.1-.141,9.674,2.719,10.988,5.43A13.617,13.617,0,0,1,437.715,282.152Z" transform="translate(733.824 203.067)" fill="#263357"/>
    <path id="Path_843" data-name="Path 843" d="M375.417,394.532h-3.193V388.2h-7.6v6.332h-2.679a1.855,1.855,0,0,0-1.966,1.716v1.66h16.889v-1.66C376.869,395.237,376.441,394.532,375.417,394.532Z" transform="translate(782.242 114.796)" fill="#ebf2ff"/>
    <path id="Path_844" data-name="Path 844" d="M376.556,395.985H358.4V393.9a2.479,2.479,0,0,1,2.395-2.562h2.256V385h8.868v6.332h2.339a2.383,2.383,0,0,1,2.288,2.562Zm-16.889-1.266h15.623V393.9c0-.628-.359-1.3-1.022-1.3h-3.624v-6.332h-6.335v6.332h-3.523a1.225,1.225,0,0,0-1.12,1.3Z" transform="translate(783.402 117.145)" fill="#263357"/>
    <path id="Path_845" data-name="Path 845" d="M368.543,422.8h-26.18a.633.633,0,1,1,0-1.266h26.18a.633.633,0,1,1,0,1.266Z" transform="translate(795.637 90.334)" fill="#263357"/>
    <path id="Path_846" data-name="Path 846" d="M448.385,422.909h-1.125a.569.569,0,0,1,0-1.139h1.125a.569.569,0,1,1,0,1.139Z" transform="translate(718.602 90.158)" fill="#263357"/>
    <path id="Path_847" data-name="Path 847" d="M312,333.223c-.1-1.33-.447-2.783-.439-4.169a2.682,2.682,0,0,0-.891-.154,2.73,2.73,0,1,0,1.381,5.082C312.031,333.729,312.015,333.476,312,333.223Z" transform="translate(820.443 158.319)" fill="#a240da"/>
    <path id="Path_848" data-name="Path 848" d="M309.109,333.358a3.3,3.3,0,0,1,0-6.6,3.266,3.266,0,0,1,1.078.184.567.567,0,0,1,.383.532,16.633,16.633,0,0,0,.234,2.429c.08.561.165,1.141.2,1.7.019.253.035.508.051.764a.569.569,0,0,1-.279.532A3.28,3.28,0,0,1,309.109,333.358Zm0-5.457a2.158,2.158,0,1,0,.8,4.166l-.024-.372c-.037-.516-.114-1.051-.2-1.618a21.323,21.323,0,0,1-.237-2.15A1.977,1.977,0,0,0,309.109,327.9Z" transform="translate(822 159.89)" fill="#263357"/>
    <path id="Path_849" data-name="Path 849" d="M317.339,329.033a1.482,1.482,0,0,1-1.482,1.482h-.415a1.482,1.482,0,0,1-1.482-1.482v-7.591a1.482,1.482,0,0,1,1.482-1.482h.415a1.482,1.482,0,0,1,1.482,1.482Z" transform="translate(816.018 164.881)" fill="#a240da"/>
    <path id="Path_850" data-name="Path 850" d="M314.9,328.611h-.415a2.129,2.129,0,0,1-2.115-2.128v-7.577a2.128,2.128,0,0,1,2.115-2.115h.415a2.128,2.128,0,0,1,2.115,2.115V326.5A2.128,2.128,0,0,1,314.9,328.611Zm-.415-10.555a.849.849,0,0,0-.849.849V326.5a.849.849,0,0,0,.849.849h.415a.849.849,0,0,0,.849-.849v-7.591a.849.849,0,0,0-.849-.849Z" transform="translate(817.185 167.207)" fill="#263357"/>
    <path id="Path_851" data-name="Path 851" d="M464.408,330.49c.1-1.33.45-2.786.442-4.172a2.727,2.727,0,1,1,.891,5.305,2.7,2.7,0,0,1-1.381-.378C464.373,330.993,464.389,330.743,464.408,330.49Z" transform="translate(705.633 160.323)" fill="#a240da"/>
    <path id="Path_852" data-name="Path 852" d="M464.2,330.618a3.294,3.294,0,0,1-1.671-.458.569.569,0,0,1-.266-.532c0-.266.032-.511.048-.766.043-.556.125-1.136.208-1.7a17,17,0,0,0,.234-2.429.567.567,0,0,1,.383-.532,3.25,3.25,0,0,1,1.078-.184,3.3,3.3,0,0,1,0,6.6Zm-.8-1.293a2.128,2.128,0,0,0,.8.152,2.16,2.16,0,0,0,0-4.318,2.262,2.262,0,0,0-.33.027c-.032.724-.136,1.447-.237,2.152-.082.564-.16,1.1-.2,1.615-.008.117-.019.25-.027.383Z" transform="translate(707.173 161.901)" fill="#263357"/>
    <path id="Path_3986" data-name="Path 3986" d="M1.689,0A1.689,1.689,0,0,1,3.379,1.689V8.868A1.689,1.689,0,0,1,0,8.868V1.689A1.689,1.689,0,0,1,1.689,0Z" transform="translate(1168.825 484.418)" fill="#a240da"/>
    <path id="Path_853" data-name="Path 853" d="M460.908,327.021H460.5a2.128,2.128,0,0,1-2.115-2.115v-7.591A2.128,2.128,0,0,1,460.5,315.2h.412a2.128,2.128,0,0,1,2.128,2.115v7.591A2.128,2.128,0,0,1,460.908,327.021Zm-.412-10.544a.849.849,0,0,0-.849.849v7.591a.849.849,0,0,0,.849.849h.412a.849.849,0,0,0,.849-.849v-7.6a.849.849,0,0,0-.849-.849Z" transform="translate(710.022 168.374)" fill="#263357"/>
    <path id="Path_854" data-name="Path 854" d="M362.274,318.692V296.529a1.551,1.551,0,0,0-1.543-1.559H328.625c-.851,0-2,.7-2,1.559v22.163Z" transform="translate(806.719 183.222)" fill="#c9f2ff"/>
    <path id="Path_855" data-name="Path 855" d="M360.681,317.69H325.029a.569.569,0,0,1-.569-.569V294.958c0-1.2,1.378-2.128,2.565-2.128h32.113a2.128,2.128,0,0,1,2.112,2.128v22.162a.569.569,0,0,1-.569.569Zm-35.074-1.136h34.5v-21.6a.982.982,0,0,0-.974-.99H327.033c-.588,0-1.426.511-1.426.99Z" transform="translate(808.312 184.793)" fill="#263357"/>
    <path id="Path_856" data-name="Path 856" d="M326.63,377.27v2.639a1.894,1.894,0,0,0,2.168,2.1h31.61a2.236,2.236,0,0,0,1.926-2.288V377.27Z" transform="translate(806.719 122.819)" fill="#ebf2ff"/>
    <path id="Path_857" data-name="Path 857" d="M327.055,381.018a2.443,2.443,0,0,1-2.565-2.679V375.13h36.852v3.025a2.815,2.815,0,0,1-2.421,2.855H327.055Zm-1.426-4.749v2.07c0,1.54,1.064,1.54,1.426,1.54H358.8a1.686,1.686,0,0,0,1.394-1.719v-1.886Z" transform="translate(808.29 124.389)" fill="#263357"/>
    <path id="Path_858" data-name="Path 858" d="M338.255,384.535a.708.708,0,1,1-.708-.705.708.708,0,0,1,.708.705Z" transform="translate(799.226 118.004)" fill="#263357"/>
    <path id="Path_859" data-name="Path 859" d="M347.685,384.535a.708.708,0,1,1-.705-.705.708.708,0,0,1,.705.705Z" transform="translate(792.305 118.004)" fill="#263357"/>
    <path id="Path_860" data-name="Path 860" d="M357.1,384.535a.708.708,0,1,1-.708-.705.708.708,0,0,1,.708.705Z" transform="translate(785.398 118.004)" fill="#263357"/>
    <path id="Path_861" data-name="Path 861" d="M413.754,362.346v-.181a5,5,0,0,0-4.975-5.055h-2.533c-2.927,0-4.85,2.277-4.906,5.239Z" transform="translate(751.886 137.615)" fill="#be80fe"/>
    <path id="Path_862" data-name="Path 862" d="M412.749,361.367H399.18v-.58c.08-3.413,2.347-5.787,5.491-5.787H407.2a5.605,5.605,0,0,1,5.545,5.627Zm-12.374-1.139h11.217a4.445,4.445,0,0,0-4.387-4.1h-2.533A4.292,4.292,0,0,0,400.375,360.228Z" transform="translate(753.472 139.163)" fill="#263357"/>
    <path id="Path_863" data-name="Path 863" d="M436.268,363.516a4.1,4.1,0,0,0-3.528-4.076,4.261,4.261,0,0,1,2.395,4.015Z" transform="translate(728.841 135.905)" fill="#be80fe"/>
    <path id="Path_864" data-name="Path 864" d="M419.407,359.041a24.888,24.888,0,0,0,1.6-2.089s-.021-.623-1.788-.623c-1.33,0-1.705.545-1.705.545S418.686,358.206,419.407,359.041Z" transform="translate(740.019 138.187)" fill="#ebf2ff"/>
    <path id="Path_865" data-name="Path 865" d="M417.4,358.328l-.436-.5c-.721-.833-1.894-2.16-1.894-2.16l-.3-.333.253-.367a2.488,2.488,0,0,1,2.174-.8c2.147,0,2.347.9,2.357,1.171v.184l-.1.154a24.922,24.922,0,0,1-1.634,2.142Zm-1.024-2.908c.285.322.663.75,1.014,1.155.359-.447.66-.857.862-1.139a3.458,3.458,0,0,0-1.046-.122A2.867,2.867,0,0,0,416.372,355.42Z" transform="translate(742.03 139.773)" fill="#263357"/>
    <rect id="Rectangle_111" data-name="Rectangle 111" width="2.961" height="4.44" transform="translate(1157.906 490.851)" fill="#ebf2ff"/>
    <path id="Path_866" data-name="Path 866" d="M420.321,345.982a.569.569,0,0,1-.569-.569v-3.871h-1.823v3.871a.569.569,0,1,1-1.139,0v-4.44a.569.569,0,0,1,.569-.572h2.961a.569.569,0,0,1,.569.572v4.44A.569.569,0,0,1,420.321,345.982Z" transform="translate(740.547 149.879)" fill="#263357"/>
    <path id="Path_867" data-name="Path 867" d="M427.518,348.3V344.81h-.458v4.047Z" transform="translate(733.009 146.642)" fill="#b8d4ea"/>
    <path id="Path_868" data-name="Path 868" d="M419.156,321.325A3.485,3.485,0,0,1,415.894,325h-.532a3.485,3.485,0,0,1-3.262-3.672v-3.36a3.488,3.488,0,0,1,3.262-3.674h.532a3.488,3.488,0,0,1,3.262,3.674Z" transform="translate(743.989 169.042)" fill="#ebf2ff"/>
    <path id="Path_869" data-name="Path 869" d="M414.323,323.958h-.532a4.056,4.056,0,0,1-3.831-4.241v-3.36a4.071,4.071,0,0,1,3.831-4.257h.532a4.063,4.063,0,0,1,3.831,4.257v3.36A4.056,4.056,0,0,1,414.323,323.958Zm-.532-10.7a2.92,2.92,0,0,0-2.69,3.1v3.36a2.92,2.92,0,0,0,2.69,3.1h.532a2.922,2.922,0,0,0,2.693-3.1v-3.36a2.922,2.922,0,0,0-2.693-3.1Z" transform="translate(745.56 170.65)" fill="#263357"/>
    <path id="Path_870" data-name="Path 870" d="M429.648,318.326a3.278,3.278,0,0,0-2.78-3.326,4.017,4.017,0,0,1,1.665,3.326l.266,3.073a3.54,3.54,0,0,1-1.94,3.523c1.567.051,2.788-1.626,2.788-3.358Z" transform="translate(733.156 168.521)" fill="#b8d4ea"/>
    <path id="Path_871" data-name="Path 871" d="M408.305,320.979a5.063,5.063,0,0,1-1.368-2.554,4.234,4.234,0,0,1,4.3-4.986h0a4.273,4.273,0,0,1,3.632,1.956c-1.575,1.956-3.134.8-6.013,1.221C408.454,316.677,408.305,319.152,408.305,320.979Z" transform="translate(747.8 169.667)" fill="#f2b01f"/>
    <path id="Path_872" data-name="Path 872" d="M406.734,319.977a.567.567,0,0,1-.4-.165,5.591,5.591,0,0,1-1.532-2.905,5.111,5.111,0,0,1,1.187-4.049,4.954,4.954,0,0,1,3.685-1.559,4.832,4.832,0,0,1,4.116,2.219.567.567,0,0,1-.037.665,3.474,3.474,0,0,1-3.012,1.391c-.282,0-.577-.013-.889-.029a13.3,13.3,0,0,0-2.251.035,17.919,17.919,0,0,0-.3,3.829.569.569,0,0,1-.351.532A.558.558,0,0,1,406.734,319.977Zm2.943-7.54a3.828,3.828,0,0,0-2.847,1.187,4.013,4.013,0,0,0-.9,3.174,2.711,2.711,0,0,0,.266.878c.144-3.065.673-3.145,1.008-3.193a10.669,10.669,0,0,1,1.572-.112c.407,0,.774.019,1.128.037.293,0,.567.029.83.029a2.317,2.317,0,0,0,1.838-.652,3.725,3.725,0,0,0-2.9-1.349Z" transform="translate(749.371 171.238)" fill="#263357"/>
    <path id="Path_873" data-name="Path 873" d="M416.691,320.082a6.308,6.308,0,0,0,1.088-4.35c-.29-2.062-2.381-3.8-5.148-3.68a4.331,4.331,0,0,0-3.741,2.78c1.668,2.285,3.1,3.254,6.564,3.3A1.825,1.825,0,0,1,416.691,320.082Z" transform="translate(746.345 170.689)" fill="#fabf4d"/>
    <path id="Path_874" data-name="Path 874" d="M415.116,319.084a.556.556,0,0,1-.242-.056.572.572,0,0,1-.314-.641,1.332,1.332,0,0,0-.721-1.25c-3.757-.053-5.3-1.235-6.984-3.536a.569.569,0,0,1-.069-.551,4.909,4.909,0,0,1,4.257-3.137c2.905-.125,5.39,1.7,5.739,4.172a6.859,6.859,0,0,1-1.2,4.776.572.572,0,0,1-.466.224Zm-7.144-5.893c1.437,1.9,2.711,2.759,5.914,2.807a1.908,1.908,0,0,1,1.29.8,1.767,1.767,0,0,1,.117.16,5.432,5.432,0,0,0,.343-2.722c-.266-1.892-2.232-3.3-4.555-3.193A3.725,3.725,0,0,0,407.972,313.191Z" transform="translate(747.92 172.259)" fill="#263357"/>
    <path id="Path_875" data-name="Path 875" d="M425.949,317.657a3.606,3.606,0,0,0-1.128-2.046,4.5,4.5,0,0,0-3.15-1.131h-.25a3.337,3.337,0,0,0-.721.114,4.691,4.691,0,0,1,3.214,1.33,3.358,3.358,0,0,1,.987,2.432c-.016.764.12.625-.13,1.208.069.152.713.705.75.878A4.752,4.752,0,0,0,425.949,317.657Z" transform="translate(737.677 168.903)" fill="#f2b01f"/>
    <path id="Path_876" data-name="Path 876" d="M357.394,315.862l-2.328-2.775c.043-.266.13-2.112.13-2.395v-.907a5.515,5.515,0,0,0-5.489-5.515h-2.256a5.376,5.376,0,0,0-5.321,5.515v.915a5.466,5.466,0,0,0,5.321,5.611h2.256a6.039,6.039,0,0,0,3.746-1.453Z" transform="translate(795.343 176.396)" fill="#25ce9e"/>
    <path id="Path_877" data-name="Path 877" d="M348.107,315.305h-2.256a6.052,6.052,0,0,1-5.9-6.18v-.91a5.93,5.93,0,0,1,5.9-6.085h2.256a6.077,6.077,0,0,1,6.058,6.085v.915c0,.231-.059,1.583-.109,2.208l2.174,2.591a.569.569,0,0,1-.58.918l-3.637-.931A6.829,6.829,0,0,1,348.107,315.305Zm-2.256-12.042a4.808,4.808,0,0,0-4.76,4.946v.915a4.908,4.908,0,0,0,4.76,5.042h2.256a5.459,5.459,0,0,0,3.344-1.288.575.575,0,0,1,.532-.149l2.224.569-1.189-1.415a.575.575,0,0,1-.125-.455c.035-.221.122-2.03.122-2.3v-.91a4.938,4.938,0,0,0-4.919-4.946Z" transform="translate(796.943 177.967)" fill="#263357"/>
    <path id="Path_878" data-name="Path 878" d="M355.181,325.34a.668.668,0,1,1-.2-.475A.67.67,0,0,1,355.181,325.34Z" transform="translate(786.749 161.424)" fill="#263357"/>
    <path id="Path_879" data-name="Path 879" d="M364.592,325.321a.668.668,0,1,1-.208-.469A.67.67,0,0,1,364.592,325.321Z" transform="translate(779.842 161.425)" fill="#263357"/>
    <path id="Path_880" data-name="Path 880" d="M373.751,325.34a.668.668,0,1,1-.195-.474A.67.67,0,0,1,373.751,325.34Z" transform="translate(773.119 161.424)" fill="#263357"/>
    <path id="Path_881" data-name="Path 881" d="M357.343,319.231l-2.331-.6a.488.488,0,0,0-.125-.016.508.508,0,0,0-.357.149,5.412,5.412,0,0,1-3.307,1.274h-2.206a5.087,5.087,0,0,1-4.9-4.762l.112-2.248a5.012,5.012,0,0,1,1.759-2.892,9.929,9.929,0,0,0-.412,6.258,3.513,3.513,0,0,0,3.533,2.3h2.972c.037,0,2.8-.506,3.948-2.395-.027.572-.056.955-.067,1.038a.484.484,0,0,0,.112.394Z" transform="translate(793.883 172.088)" fill="#2eb595"/>
    <path id="Path_882" data-name="Path 882" d="M355.354,357.726h-11.4a.633.633,0,0,1,0-1.266h11.4a.633.633,0,1,1,0,1.266Z" transform="translate(794.47 138.092)" fill="#263357"/>
    <path id="Path_883" data-name="Path 883" d="M351.555,365.666h-7.6a.633.633,0,0,1,0-1.266h7.6a.633.633,0,0,1,0,1.266Z" transform="translate(794.47 132.264)" fill="#263357"/>
    <path id="Path_884" data-name="Path 884" d="M375.91,410.1h-3.387a.633.633,0,1,1,0-1.266h3.387a.633.633,0,1,1,0,1.266Z" transform="translate(773.501 99.655)" fill="#263357"/>
    <path id="Path_885" data-name="Path 885" d="M394,410.1h-.843a.633.633,0,1,1,0-1.266H394a.633.633,0,1,1,0,1.266Z" transform="translate(758.36 99.655)" fill="#263357"/>
    <rect id="Rectangle_112" data-name="Rectangle 112" width="17.312" height="3.799" rx="1" transform="translate(1142.222 470.061)" fill="#a240da"/>
    <path id="Path_886" data-name="Path 886" d="M375.37,266.284H359.976a1.6,1.6,0,0,1-1.6-1.6v-1.881a1.6,1.6,0,0,1,1.6-1.6H375.37a1.6,1.6,0,0,1,1.6,1.6v1.881a1.6,1.6,0,0,1-1.6,1.6Zm-15.394-3.8a.327.327,0,0,0-.325.327v1.881a.325.325,0,0,0,.325.325H375.37a.325.325,0,0,0,.325-.325v-1.881a.327.327,0,0,0-.325-.327Z" transform="translate(783.417 208)" fill="#263357"/>
    <path id="Path_887" data-name="Path 887" d="M315.9,282.124a13.692,13.692,0,0,1,.766-8.8c1.33-2.711,4.887-5.563,10.988-5.43l-.024,1.139c-5.555-.117-8.78,2.395-9.937,4.789A12.751,12.751,0,0,0,317,281.82Z" transform="translate(814.891 203.095)" fill="#263357"/>
  </g>
</svg>
