<svg xmlns="http://www.w3.org/2000/svg" width="253.622" height="371.44" viewBox="0 0 253.622 371.44">
  <g id="Group_64" data-name="Group 64" transform="translate(1130.318 -1250.385)">
    <path id="Path_518" data-name="Path 518" d="M1151.1,347.579s-1.985-2.177-10.4-9.241c-5-4.2-10.691-8.98-17.132-13.833-16.77-12.608-38.619-25.641-66.368-29.789a124.76,124.76,0,0,0-30.9-.705c9.959-22.232,13.587-47.366,7.693-52.993-4.585-4.38-23.347,4.045-23.347,4.045,10.981-6.143,11.078-9.264,27.8-7.874,17.089,1.421,57.027,17.807,74.837,26.883a181.843,181.843,0,0,1,32.383,21.479c3.978,3.307,8.011,7.132,10.52,11.83,2.64,4.943,2.877,10.2,2.636,15.685A96.621,96.621,0,0,1,1151.1,347.579Z" transform="translate(-2052 1014)" fill="#dadcec" stroke="#6d76b6" stroke-linecap="round" stroke-miterlimit="10" stroke-width="1"/>
    <path id="Path_519" data-name="Path 519" d="M1136.93,506.187c-21.561,7.173-39.925,9.877-55.313,10.144a137.764,137.764,0,0,1-27.406-2.211c-10.055-1.855-23.9-5.627-42.739-7.694a241.9,241.9,0,0,0-26.969-1.451c-9.37.014-17.755.548-24.84,1.246-10.167-28-21.734-72.7-16.03-126.41,2.419-22.787,9.929-63.519,28.6-92.425,8.7-14.341,44.009-59.648,62.837-46.368,9.455,8.468,2.265,30.761-7.694,52.993a124.77,124.77,0,0,1,30.9.705c27.749,4.148,49.6,17.181,66.367,29.789-5.791,20.315-8.447,46.127-9.158,62.5C1114.329,413.761,1116.594,455.576,1136.93,506.187Z" transform="translate(-2052 1014)" fill="#fdfdfd" stroke="#6d76b6" stroke-linecap="round" stroke-miterlimit="10" stroke-width="1"/>
    <path id="Path_520" data-name="Path 520" d="M1096.3,515.253a82.941,82.941,0,0,0-2.675,33.741c1.848,14.422,10.719,31.767,17.214,42.91" transform="translate(-2052 1014)" fill="none" stroke="#6d76b6" stroke-linecap="round" stroke-miterlimit="10" stroke-width="1"/>
    <path id="Path_521" data-name="Path 521" d="M1002.9,506.426a84.549,84.549,0,0,1,5.715,42.568c-1.848,14.422-10.719,31.767-17.215,42.91" transform="translate(-2052 1014)" fill="none" stroke="#6d76b6" stroke-linecap="round" stroke-miterlimit="10" stroke-width="1"/>
    <path id="Path_522" data-name="Path 522" d="M986.822,587.984l12.809-2.976v10.636l26.328,11.681H974.722s4.225-6.12,9.987-15.761Z" transform="translate(-2052 1014)" fill="#6d76b6"/>
    <path id="Path_523" data-name="Path 523" d="M1112.079,594.013q-.6-1.012-1.245-2.109" transform="translate(-2052 1014)" fill="none" stroke="#6d76b6" stroke-linecap="round" stroke-miterlimit="10" stroke-width="1"/>
    <path id="Path_524" data-name="Path 524" d="M1115.411,587.984l-12.809-2.976v10.636l-26.328,11.681h51.238s-4.226-6.12-9.987-15.761Z" transform="translate(-2052 1014)" fill="#6d76b6"/>
    <path id="Path_525" data-name="Path 525" d="M1049.592,382.316c-9.137,44.531-70.857,59.22-100.062,35.856s-4.187-65.779-.574-70.593" transform="translate(-2052 1014)" fill="none" stroke="#6d76b6" stroke-linecap="round" stroke-miterlimit="10" stroke-width="1"/>
    <g id="Group_56" data-name="Group 56" transform="translate(-2052 1014)">
      <path id="Path_526" data-name="Path 526" d="M1015.426,458.207a2.909,2.909,0,0,0-.214.577,2.94,2.94,0,0,0,.918,2.948L1028,472.064l-3.447,3.235a2.94,2.94,0,0,0,1.46,5.031l11.662,2.226-16.718,12.615a2.939,2.939,0,0,0,.89,5.151l4.6,1.446-6.047,14.216a2.937,2.937,0,0,0,.462,3.05l.091.108a2.939,2.939,0,0,0,2.933.957l15.017-3.629.668,4.778a2.94,2.94,0,0,0,4.936,1.726l15.19-14.418.279,11.868a2.94,2.94,0,0,0,4.723,2.267l3.758-2.869,8.241,13.41a2.94,2.94,0,0,0,5.235-.451l5.671-14.24,3.931,2.153a2.939,2.939,0,0,0,4.311-3.065l-4.5-26.8,8.39-2.366a2.94,2.94,0,0,0,1.446-4.73L1076.5,472l-7.518-26.286h0a2.94,2.94,0,0,0-4.9.649l-3.713,7.888-25.7-8.842a2.94,2.94,0,0,0-3.732,3.75l1.479,4.231-14.978,3.254A2.942,2.942,0,0,0,1015.426,458.207Z" fill="#f67672"/>
      <path id="Path_527" data-name="Path 527" d="M1060.9,489.169a60.414,60.414,0,0,1,20.02-20.1,58.96,58.96,0,0,1,13.937-6.156" fill="none" stroke="#383e9a" stroke-linecap="round" stroke-miterlimit="10" stroke-width="1"/>
      <path id="Path_528" data-name="Path 528" d="M1075.447,490.032c.238-.948,1.748-7.4-2.37-13.082a16.011,16.011,0,0,0-15.758-6.1" fill="none" stroke="#383e9a" stroke-linecap="round" stroke-miterlimit="10" stroke-width="1"/>
    </g>
    <path id="Path_529" data-name="Path 529" d="M1116.38,373.46c8.206,11.627,21.894,25.491,28.629,41.173,3.564,8.3,5.329,17.785-4.835,26.78a23.083,23.083,0,0,1-7.144,4.52c-14.747,5.6-24.011.46-35.3,6.236a42.749,42.749,0,0,0-11.489,6.177c-2.049,1.518-4.939,3.695-5.289,6.49-.288,2.3.684,5.135,1.581,5.172.411.017.775-.555,1.024-1.064" transform="translate(-2052 1014)" fill="none" stroke="#6d76b6" stroke-linecap="round" stroke-miterlimit="10" stroke-width="1"/>
    <line id="Line_68" data-name="Line 68" x2="252.622" transform="translate(-1129.818 1621.325)" fill="none" stroke="#6d76b6" stroke-linecap="round" stroke-miterlimit="10" stroke-width="1"/>
    <path id="Path_530" data-name="Path 530" d="M1051.177,366.2a9.208,9.208,0,0,1,2.834,4.508c1.045,4.1-1.176,8.884-5.619,11.976" transform="translate(-2052 1014)" fill="none" stroke="#6d76b6" stroke-linecap="round" stroke-miterlimit="10" stroke-width="1"/>
    <path id="Path_531" data-name="Path 531" d="M1048.753,367.618a8.106,8.106,0,0,1,3.505,4.872c.463,2.256-.389,4.152-1.269,6.111a16.964,16.964,0,0,1-2.6,4.087" transform="translate(-2052 1014)" fill="none" stroke="#6d76b6" stroke-linecap="round" stroke-miterlimit="10" stroke-width="1"/>
    <path id="Path_532" data-name="Path 532" d="M1040.351,376.27a9.017,9.017,0,0,0,3.449,4.85,8.91,8.91,0,0,0,4.592,1.568" transform="translate(-2052 1014)" fill="none" stroke="#6d76b6" stroke-linecap="round" stroke-miterlimit="10" stroke-width="1"/>
    <path id="Path_533" data-name="Path 533" d="M1054.457,367.866a9.107,9.107,0,0,1,1.588,4.933c.026,4.053-3,7.956-7.653,9.889" transform="translate(-2052 1014)" fill="none" stroke="#6d76b6" stroke-linecap="round" stroke-miterlimit="10" stroke-width="1"/>
    <path id="Path_534" data-name="Path 534" d="M1058.079,373.46a10.04,10.04,0,0,1-1.151,3.638c-2.461,4.491-7.652,5.442-8.536,5.59" transform="translate(-2052 1014)" fill="none" stroke="#6d76b6" stroke-linecap="round" stroke-miterlimit="10" stroke-width="1"/>
    <path id="Path_535" data-name="Path 535" d="M1086.183,458.4c-1.225,1.266-3.45,3.975-3.226,7.286.029.421.255,3.193,1.477,3.429.769.149,1.561-.778,1.829-1.117" transform="translate(-2052 1014)" fill="none" stroke="#6d76b6" stroke-linecap="round" stroke-miterlimit="10" stroke-width="1"/>
    <path id="Path_536" data-name="Path 536" d="M1088.159,466.472c-.5.949-1.223,1.59-1.9,1.524-1.006-.1-1.472-1.735-1.657-2.384-.833-2.924.694-5.821,1.577-7.214" transform="translate(-2052 1014)" fill="none" stroke="#6d76b6" stroke-linecap="round" stroke-miterlimit="10" stroke-width="1"/>
    <path id="Path_537" data-name="Path 537" d="M1081.217,469.858c-.377.535-.866,1.062-1.322.983-.9-.158-1.242-2.614-1.219-3.794.09-4.493,5.825-7.755,7.507-8.649" transform="translate(-2052 1014)" fill="none" stroke="#6d76b6" stroke-linecap="round" stroke-miterlimit="10" stroke-width="1"/>
    <path id="Path_538" data-name="Path 538" d="M1085.449,459.144l-7.507,4.586" transform="translate(-2052 1014)" fill="none" stroke="#6d76b6" stroke-linecap="round" stroke-miterlimit="10" stroke-width="1"/>
    <g id="Group_59" data-name="Group 59" transform="translate(-2052 1014)">
      <ellipse id="Ellipse_57" data-name="Ellipse 57" cx="9.394" cy="3.696" rx="9.394" ry="3.696" transform="translate(1016.278 345.722) rotate(-82.231)" fill="#383e9a"/>
      <ellipse id="Ellipse_58" data-name="Ellipse 58" cx="9.394" cy="3.696" rx="9.394" ry="3.696" transform="translate(1066.62 350.54) rotate(-82.231)" fill="#383e9a"/>
      <path id="Path_539" data-name="Path 539" d="M1031.044,317.552a16.085,16.085,0,0,0-11.112.058,16.458,16.458,0,0,0-9.233,9.591" fill="none" stroke="#6d76b6" stroke-linecap="round" stroke-miterlimit="10" stroke-width="1"/>
      <path id="Path_540" data-name="Path 540" d="M1065.984,319.1a16.091,16.091,0,0,1,10.664,3.126,16.465,16.465,0,0,1,6.223,11.77" fill="none" stroke="#6d76b6" stroke-linecap="round" stroke-miterlimit="10" stroke-width="1"/>
      <path id="Path_541" data-name="Path 541" d="M1053.712,361.284c-.14,1.21-.55,2.14-1.17,2.42-1.55.72-3.53.74-7.72.09-4.41-.69-6.74-.98-8.25-2.21a1.519,1.519,0,0,1-.34-.41c-.879-1.53-.109-5.3,2.07-7.47,3.52-3.52,10.79-2.9,13.8,1.22A9.43,9.43,0,0,1,1053.712,361.284Z" fill="#383e9a"/>
      <g id="Group_57" data-name="Group 57">
        <line id="Line_69" data-name="Line 69" x1="6.892" y2="6.892" transform="translate(1006.217 351.625)" fill="#fdfdfd" stroke="#6d76b6" stroke-linecap="round" stroke-miterlimit="10" stroke-width="1"/>
        <line id="Line_70" data-name="Line 70" x1="4.021" y2="4.021" transform="translate(1011.659 353.816)" fill="#fdfdfd" stroke="#6d76b6" stroke-linecap="round" stroke-miterlimit="10" stroke-width="1"/>
        <line id="Line_71" data-name="Line 71" x1="4.021" y2="4.021" transform="translate(1002.196 354.496)" fill="#fdfdfd" stroke="#6d76b6" stroke-linecap="round" stroke-miterlimit="10" stroke-width="1"/>
        <line id="Line_72" data-name="Line 72" x1="5.532" y2="5.532" transform="translate(1013.669 355.071)" fill="#fdfdfd" stroke="#6d76b6" stroke-linecap="round" stroke-miterlimit="10" stroke-width="1"/>
      </g>
      <g id="Group_58" data-name="Group 58">
        <line id="Line_73" data-name="Line 73" x2="6.892" y2="6.892" transform="translate(1075.634 356.114)" fill="#fdfdfd" stroke="#6d76b6" stroke-linecap="round" stroke-miterlimit="10" stroke-width="1"/>
        <line id="Line_74" data-name="Line 74" x2="4.021" y2="4.021" transform="translate(1073.063 358.305)" fill="#fdfdfd" stroke="#6d76b6" stroke-linecap="round" stroke-miterlimit="10" stroke-width="1"/>
        <line id="Line_75" data-name="Line 75" x2="4.021" y2="4.021" transform="translate(1082.526 358.986)" fill="#fdfdfd" stroke="#6d76b6" stroke-linecap="round" stroke-miterlimit="10" stroke-width="1"/>
        <line id="Line_76" data-name="Line 76" x2="5.532" y2="5.532" transform="translate(1069.541 359.56)" fill="#fdfdfd" stroke="#6d76b6" stroke-linecap="round" stroke-miterlimit="10" stroke-width="1"/>
      </g>
      <path id="Path_542" data-name="Path 542" d="M1053.712,361.284c-.14,1.21-.55,2.14-1.17,2.42-1.55.72-3.53.74-7.72.09-4.41-.69-6.74-.98-8.25-2.21a1.519,1.519,0,0,1-.34-.41,11.042,11.042,0,0,1,4.77-3.28c4.93-1.7,9.2.86,10.28,1.52A12.969,12.969,0,0,1,1053.712,361.284Z" fill="#6d76b6"/>
    </g>
  </g>
</svg>
