<?xml version="1.0" encoding="iso-8859-1"?>
<!-- Generator: Adobe Illustrator 16.0.0, SVG Export Plug-In . SVG Version: 6.00 Build 0)  -->
<!DOCTYPE svg PUBLIC "-//W3C//DTD SVG 1.1//EN" "http://www.w3.org/Graphics/SVG/1.1/DTD/svg11.dtd">
<svg version="1.1" id="Capa_1" xmlns="http://www.w3.org/2000/svg" xmlns:xlink="http://www.w3.org/1999/xlink" x="0px" y="0px"
	 width="591.201px" height="591.201px" viewBox="0 0 591.201 591.201" style="enable-background:new 0 0 591.201 591.201;"
	 xml:space="preserve">
<g>
    <path d="M532.562,0.5H58.64C26.582,0.5,0.5,26.582,0.5,58.64v473.921c0,32.059,26.082,58.141,58.14,58.141h473.922
        c32.058,0,58.14-26.082,58.14-58.141V58.64C590.701,26.582,564.619,0.5,532.562,0.5z M547.861,532.561
        c0,8.449-6.85,15.299-15.3,15.299H58.64c-8.45,0-15.3-6.85-15.3-15.299V58.64c0-8.45,6.85-15.3,15.3-15.3h473.922
        c8.45,0,15.3,6.85,15.3,15.3V532.561z" fill="#E91E63"/>
</g>
</svg>
