<svg xmlns="http://www.w3.org/2000/svg" width="14.25" height="19" viewBox="0 0 14.25 19">
  <path id="Fill_1125" data-name="Fill 1125" d="M11.875,19h-9.5A2.378,2.378,0,0,1,0,16.625V2.375A2.378,2.378,0,0,1,2.375,0H7.916a.791.791,0,0,1,.56.232l5.542,5.541a.786.786,0,0,1,.231.56V16.625A2.378,2.378,0,0,1,11.875,19ZM2.375,1.583a.793.793,0,0,0-.792.792v14.25a.793.793,0,0,0,.792.792h9.5a.793.793,0,0,0,.792-.792v-9.5H9.5A2.378,2.378,0,0,1,7.125,4.75V1.583ZM8.708,2.7V4.75a.792.792,0,0,0,.792.791h2.047ZM9.5,15.042H4.75a.792.792,0,1,1,0-1.583H9.5a.792.792,0,0,1,0,1.583ZM7.125,11.875H4.75a.792.792,0,1,1,0-1.583H7.125a.792.792,0,0,1,0,1.583Z" fill="#172239"/>
</svg>
