<svg xmlns="http://www.w3.org/2000/svg" width="21" height="21" viewBox="0 0 21 21">
  <path id="Fill_1009" data-name="Fill 1009" d="M4.9,21H.947A.948.948,0,0,1,0,20.053V16.1a2.819,2.819,0,0,1,.833-2.009L14.094.832a2.841,2.841,0,0,1,4.018,0l2.058,2.057a2.846,2.846,0,0,1,0,4.019L6.908,20.167A2.829,2.829,0,0,1,4.9,21ZM12.314,5.29h0L2.172,15.432a.941.941,0,0,0-.278.67v3h3a.943.943,0,0,0,.671-.278L15.71,8.687l-3.4-3.4Zm3.789-3.4a.943.943,0,0,0-.67.277l-1.779,1.78,3.4,3.4,1.78-1.78a.95.95,0,0,0,0-1.338L16.772,2.171A.94.94,0,0,0,16.1,1.894Z" fill="#172239"/>
</svg>
