<svg xmlns="http://www.w3.org/2000/svg" width="18" height="18" viewBox="0 0 18 18">
  <path id="Shape" d="M2.829,18A2.832,2.832,0,0,1,0,15.171V4.886A2.833,2.833,0,0,1,2.571,2.069V.771a.771.771,0,0,1,1.543,0V2.057H8.229V.771a.771.771,0,1,1,1.543,0V2.057h4.115V.771a.771.771,0,1,1,1.543,0v1.3A2.833,2.833,0,0,1,18,4.886V15.171A2.832,2.832,0,0,1,15.171,18ZM1.543,15.171a1.288,1.288,0,0,0,1.286,1.286H15.171a1.288,1.288,0,0,0,1.286-1.286V8.229H1.543ZM16.457,6.686v-1.8A1.288,1.288,0,0,0,15.171,3.6H2.829A1.288,1.288,0,0,0,1.543,4.886v1.8Z" fill="#d40c91"/>
</svg>
