<svg xmlns="http://www.w3.org/2000/svg" width="22.95" height="26" viewBox="0 0 22.95 26">
  <path id="Shape" d="M7.868,22.38v-.658H2.95A2.959,2.959,0,0,1,0,18.759v-.5a3.353,3.353,0,0,1,1.854-3.013,1.643,1.643,0,0,0,.905-1.326l.585-6.465a8.161,8.161,0,0,1,16.26,0l.585,6.465a1.637,1.637,0,0,0,.9,1.323,3.357,3.357,0,0,1,1.861,3.016v.5A2.96,2.96,0,0,1,20,21.722H15.081v.658a3.607,3.607,0,1,1-7.213,0Zm1.967,0a1.639,1.639,0,1,0,3.279,0v-.658H9.835ZM5.3,7.632,4.718,14.1a3.6,3.6,0,0,1-1.979,2.911,1.389,1.389,0,0,0-.772,1.249v.5a.986.986,0,0,0,.983.988H20a.987.987,0,0,0,.984-.988v-.5a1.388,1.388,0,0,0-.768-1.248A3.6,3.6,0,0,1,18.231,14.1l-.585-6.465a6.195,6.195,0,0,0-12.343,0Z" fill="#1e2020"/>
</svg>
