<svg xmlns="http://www.w3.org/2000/svg" width="21" height="21" viewBox="0 0 21 21">
  <path id="Shape" d="M3.3,21A3.3,3.3,0,0,1,0,17.7V5.7A3.3,3.3,0,0,1,3,2.414V.9A.9.9,0,0,1,4.8.9V2.4H9.6V.9a.9.9,0,1,1,1.8,0V2.4h4.8V.9A.9.9,0,1,1,18,.9V2.414A3.3,3.3,0,0,1,21,5.7v12A3.3,3.3,0,0,1,17.7,21ZM1.8,5.7v12a1.5,1.5,0,0,0,1.5,1.5H17.7a1.5,1.5,0,0,0,1.5-1.5V5.7a1.5,1.5,0,0,0-1.5-1.5H3.3A1.5,1.5,0,0,0,1.8,5.7Zm12.3,6a1.2,1.2,0,1,1,1.2,1.2A1.2,1.2,0,0,1,14.1,11.7Zm-4.8,0a1.2,1.2,0,1,1,1.2,1.2A1.2,1.2,0,0,1,9.3,11.7Zm-4.8,0a1.2,1.2,0,1,1,1.2,1.2A1.2,1.2,0,0,1,4.5,11.7Z" fill="#172239"/>
</svg>
