<svg width="24" height="24" viewBox="0 0 24 24" fill="none" xmlns="http://www.w3.org/2000/svg">
<path fill-rule="evenodd" clip-rule="evenodd" d="M3 5C2.44772 5 2 5.44771 2 6V19.5858L4.29289 17.2929C4.48043 17.1054 4.73478 17 5 17H21C21.5523 17 22 16.5523 22 16V6C22 5.44772 21.5523 5 21 5H3ZM0 6C0 4.34315 1.34314 3 3 3H21C22.6569 3 24 4.34315 24 6V16C24 17.6569 22.6569 19 21 19H5.41421L3.41421 21C2.15429 22.2599 0 21.3676 0 19.5858V6ZM7 9C7 8.44772 7.44772 8 8 8H11C11.5523 8 12 8.44772 12 9C12 9.55228 11.5523 10 11 10H8C7.44772 10 7 9.55228 7 9ZM7 13C7 12.4477 7.44772 12 8 12H16C16.5523 12 17 12.4477 17 13C17 13.5523 16.5523 14 16 14H8C7.44772 14 7 13.5523 7 13Z" fill="#6C7A89"/>
</svg>
