<svg width="24" height="24" viewBox="0 0 24 24" fill="none" xmlns="http://www.w3.org/2000/svg">
<path fill-rule="evenodd" clip-rule="evenodd" d="M12.0001 7C6.82757 7 3.71274 10.0901 2.45754 11.6714C2.29833 11.872 2.29833 12.128 2.45754 12.3286C3.71274 13.9099 6.82757 17 12.0001 17C17.1726 17 20.2874 13.9099 21.5426 12.3286C21.7018 12.128 21.7018 11.872 21.5426 11.6714C20.2874 10.0901 17.1726 7 12.0001 7ZM0.891057 10.428C2.32154 8.62583 5.951 5 12.0001 5C18.0491 5 21.6786 8.62583 23.1091 10.428C23.8463 11.3567 23.8463 12.6433 23.1091 13.572C21.6786 15.3742 18.0491 19 12.0001 19C5.951 19 2.32154 15.3742 0.891057 13.572C0.153827 12.6433 0.153827 11.3567 0.891057 10.428ZM12.0001 10C10.8955 10 10.0001 10.8954 10.0001 12C10.0001 13.1046 10.8955 14 12.0001 14C13.1046 14 14.0001 13.1046 14.0001 12C14.0001 10.8954 13.1046 10 12.0001 10ZM8.00007 12C8.00007 9.79086 9.79093 8 12.0001 8C14.2092 8 16.0001 9.79086 16.0001 12C16.0001 14.2091 14.2092 16 12.0001 16C9.79093 16 8.00007 14.2091 8.00007 12Z" fill="#6C7A89"/>
</svg>
