<svg xmlns="http://www.w3.org/2000/svg" viewBox="0 0 25 25">
  <g id="Group_465" data-name="Group 465" transform="translate(-350.5 -564.5)">
    <path id="Path" d="M0,0H25V25H0Z" transform="translate(350.5 564.5)" fill="none"/>
    <path id="Path-2" data-name="Path" d="M0,0H25V25H0Z" transform="translate(350.5 564.5)" fill="none"/>
    <path id="Path-3" data-name="Path" d="M16,20.5V8.666a.5.5,0,0,1,1,0V20.5a.5.5,0,0,1-1,0Zm-8,0V16.715a.5.5,0,1,1,1,0V20.5a.5.5,0,0,1-1,0Zm-8,0V8.5a.5.5,0,0,1,1,0v12a.5.5,0,0,1-1,0Zm8-8.135V.5a.5.5,0,1,1,1,0V12.365a.5.5,0,1,1-1,0ZM0,4.424V.5a.5.5,0,1,1,1,0V4.424a.5.5,0,1,1-1,0Zm16-.239V.5a.5.5,0,1,1,1,0V4.185a.5.5,0,1,1-1,0Z" transform="translate(354.5 567.483)" fill="#0093e1"/>
    <path id="Path-4" data-name="Path" d="M11.5,13h-2A1.5,1.5,0,0,1,8,11.5v-2A1.5,1.5,0,0,1,9.5,8h2A1.5,1.5,0,0,1,13,9.5v2A1.5,1.5,0,0,1,11.5,13Zm-2-4a.5.5,0,0,0-.5.5v2a.5.5,0,0,0,.5.5h2a.5.5,0,0,0,.5-.5v-2a.5.5,0,0,0-.5-.5Zm10-4h-2A1.5,1.5,0,0,1,16,3.5v-2A1.5,1.5,0,0,1,17.5,0h2A1.5,1.5,0,0,1,21,1.5v2A1.5,1.5,0,0,1,19.5,5Zm-2-4a.5.5,0,0,0-.5.5v2a.5.5,0,0,0,.5.5h2a.5.5,0,0,0,.5-.5v-2a.5.5,0,0,0-.5-.5ZM3.5,5h-2A1.5,1.5,0,0,1,0,3.5v-2A1.5,1.5,0,0,1,1.5,0h2A1.5,1.5,0,0,1,5,1.5v2A1.5,1.5,0,0,1,3.5,5Zm-2-4a.5.5,0,0,0-.5.5v2a.5.5,0,0,0,.5.5h2A.5.5,0,0,0,4,3.5v-2A.5.5,0,0,0,3.5,1Z" transform="translate(352.5 571.483)" fill="#52c3ff"/>
  </g>
</svg>
