<svg xmlns="http://www.w3.org/2000/svg" width="22" height="15" viewBox="0 0 22 15">
  <path id="Fill_960" data-name="Fill 960" d="M19.25,15H2.75A2.785,2.785,0,0,1,0,12.187V2.813A2.838,2.838,0,0,1,.285,1.565,2.73,2.73,0,0,1,2.75,0h16.5a2.73,2.73,0,0,1,2.465,1.565A2.838,2.838,0,0,1,22,2.813v9.375A2.785,2.785,0,0,1,19.25,15ZM1.834,3.455v8.732a.929.929,0,0,0,.916.938h16.5a.929.929,0,0,0,.916-.938V3.455l-7.85,4.377a2.692,2.692,0,0,1-2.634,0Zm1-1.58h0l7.73,4.311a.9.9,0,0,0,.878,0L19.17,1.875Z"/>
</svg>
