<?xml version="1.0" encoding="utf-8"?>
<!-- Generator: Adobe Illustrator 21.0.2, SVG Export Plug-In . SVG Version: 6.00 Build 0)  -->
<svg version="1.1" id="Слой_1" xmlns="http://www.w3.org/2000/svg" xmlns:xlink="http://www.w3.org/1999/xlink" x="0px" y="0px"
	 viewBox="0 0 362 374" style="enable-background:new 0 0 362 374;" xml:space="preserve">
<style type="text/css">
	.st0{fill:#030047;}
	.st1{fill:#FFFFFF;}
	.st2{fill:#FFCC3E;}
	.st3{fill:#5F5FFF;}
</style>
<g id="_x34_">
	<g id="Bottom_10_">
		<g>
			<path class="st0" d="M78.8,318.1c-9.7,8-18.9-2.9-25.9,7.8l40.2,22.9l10.2-21.3L78.8,318.1z"/>
		</g>
		<g>
			<path class="st0" d="M205.7,311c9.6,8.1,0.6,19.1,12.3,24.1l15.3-43.6l-22.8-6.2L205.7,311z"/>
		</g>
		<g>
			<path class="st1" d="M174.5,265.1c-10-9.3-4.3-45.3-12.7-60.4l-34.9,3.1c0,0,0.1,1.8,0.3,5h-21c-2.2,23.7-32.2,75.7-34.7,106.9
				l35,11.6c5.6-31.7,17.3-56.9,24.4-85.2c1.5,9.8,3.5,20,6.2,28.5c9.1,29.1,68.4,43.5,68.4,43.5l8.4-22.8l0.3-0.9l2.8-7.6
				C217.1,286.7,184.5,274.4,174.5,265.1z"/>
			<path class="st0" d="M107.3,332.3l-36.4-12.1l0-0.6c1.4-17,10.5-39.4,19.4-61.2c7.3-18,14.3-35,15.3-45.8l0.1-0.7h20.8
				c-0.2-2.7-0.3-4.2-0.3-4.2l0-0.7l36.1-3.2l0.2,0.4c4,7.2,4.8,19,5.6,30.4c0.9,12.9,1.8,25.1,6.9,29.8l0,0
				c9.8,9.1,42.1,21.4,42.4,21.5l0.7,0.3l-12,32.7l-0.7-0.2c-2.4-0.6-59.9-14.9-69-44c-2.1-6.7-4-15.1-5.6-25
				c-2.7,10.3-6.1,20.3-9.3,30.1c-5.3,16.1-10.9,32.8-14.2,51.6L107.3,332.3z M72.4,319.1l33.7,11.2c3.3-18.6,8.8-35,14.1-50.9
				c3.8-11.3,7.3-22,10.2-33.4l0.9-3.6l0.6,3.7c1.8,11.4,3.8,20.9,6.2,28.4c8.4,26.7,60.8,41.1,67.3,42.8l11-30
				c-4.9-1.9-32.9-12.9-42.2-21.6c-5.5-5.2-6.4-17.6-7.4-30.8c-0.8-11-1.6-22.4-5.2-29.3l-33.7,3c0.1,0.8,0.1,2.3,0.3,4.3l0.1,0.8
				H107c-1.2,11-8.1,27.8-15.3,45.5C83,280.4,73.9,302.5,72.4,319.1z"/>
		</g>
		<g>
			<path class="st0" d="M214,296c-0.1,0-0.2,0-0.3,0c-6.7-2.4-13.2-5.2-19.4-8.4c-15.2-7.8-30.5-16.8-34.5-32.8
				c-1.7-6.6-1.6-13.6-1.6-20.4c0.1-9.1,0.1-18.6-4.1-27c-0.2-0.4,0-0.8,0.3-1c0.4-0.2,0.8,0,1,0.3c4.5,8.7,4.4,18.3,4.3,27.7
				c0,6.7-0.1,13.6,1.5,20c3.8,15.3,18.8,24.1,33.7,31.8c6.1,3.2,12.6,6,19.2,8.3c0.4,0.1,0.6,0.6,0.5,1
				C214.6,295.8,214.3,296,214,296z"/>
		</g>
		<g>
			<path class="st1" d="M71.2,327.9c-0.6-2.8-1.5-5.5-2.7-8.1c-0.3-0.6-1.1-0.1-0.9,0.5c1.1,2.5,2,5.2,2.6,7.9
				C70.4,328.8,71.4,328.6,71.2,327.9z"/>
		</g>
		<g>
			<path class="st1" d="M74.5,326.8c-0.9-2-1.7-4-2.6-5.9c-0.2,0.1-0.5,0.1-0.7,0.1h-0.1c-0.1,0-0.1,0-0.2,0
				c0.9,2.1,1.8,4.2,2.8,6.3C73.9,327.9,74.7,327.4,74.5,326.8z"/>
		</g>
		<g>
			<path class="st1" d="M212.2,312.9c-1.5,1-2.9,2.1-4.1,3.4c-0.4,0.5,0.3,1.2,0.7,0.7c1.2-1.2,2.5-2.3,3.9-3.3
				C213.3,313.5,212.8,312.6,212.2,312.9z"/>
		</g>
		<g>
			<path class="st1" d="M213.4,317.3c-1.1,1.1-2.2,2.2-3.3,3.3c-0.5,0.5,0.3,1.2,0.7,0.7l3.3-3.3
				C214.6,317.6,213.9,316.9,213.4,317.3z"/>
		</g>
		<g>
			<path class="st0" d="M131,246.8c-0.4,0-0.7-0.3-0.7-0.7l-0.6-15.8l-5.6-1.6c-0.4-0.1-0.6-0.5-0.5-0.9c0.1-0.4,0.5-0.6,0.9-0.5
				l6.6,1.9l0.6,16.9C131.8,246.5,131.5,246.8,131,246.8C131.1,246.8,131,246.8,131,246.8z"/>
		</g>
	</g>
	<g id="Background_10_">
		<g>
			<g>
				<polygon class="st2" points="176.4,78.5 212.1,58.4 220,98.8 				"/>
			</g>
			<g>
				<path class="st1" d="M203.6,29.3c0-0.6,0.1-1.2,0.3-1.7c0.2-0.5,0.6-1,1-1.4c0,0,0.1-0.1,0.1-0.1c0.8-0.7,1.8-1.1,2.9-1.1
					c0.2,0,0.4,0,0.6,0c0,0,0.1,0,0.1,0c0.5,0.1,1,0.2,1.4,0.3c0,0,0.1,0,0.1,0c0.7,0.3,1.2,0.8,1.6,1.5c0.3,0.6,0.5,1.4,0.5,2.4
					c0,2.4-1.9,4.3-4.3,4.3C205.5,33.6,203.6,32,203.6,29.3z"/>
				<path class="st0" d="M207.9,34.4c-3,0-5.1-2.1-5.1-5.1c0-0.7,0.1-1.4,0.4-2c0.3-0.6,0.6-1.2,1.1-1.6l0.1-0.1
					c0.9-0.9,2.2-1.3,3.4-1.3c0.2,0,0.4,0,0.6,0l0.1,0c0.6,0.1,1.1,0.2,1.6,0.4c0,0,0.1,0,0.1,0.1c0.8,0.4,1.5,1,1.9,1.8
					c0.4,0.8,0.6,1.7,0.6,2.8C212.9,32.1,210.7,34.4,207.9,34.4z M207.9,25.7c-0.9,0-1.8,0.3-2.4,0.9l-0.1,0.1
					c-0.3,0.3-0.6,0.7-0.8,1.2c-0.2,0.4-0.3,0.9-0.3,1.4c0,2.2,1.4,3.6,3.6,3.6c2,0,3.6-1.6,3.6-3.6c0-0.8-0.2-1.5-0.4-2.1
					c-0.3-0.5-0.7-0.9-1.2-1.1c-0.4-0.2-0.8-0.3-1.3-0.3C208.2,25.7,208.1,25.7,207.9,25.7z"/>
			</g>
			<g>
				<path class="st2" d="M203.6,45.1c0-0.6,0.1-1.2,0.3-1.7c0.2-0.5,0.6-1,1-1.4c0,0,0.1-0.1,0.1-0.1c0.8-0.7,1.8-1.1,2.9-1.1
					c0.2,0,0.4,0,0.6,0c0,0,0.1,0,0.1,0c0.5,0.1,1,0.2,1.4,0.3c0,0,0.1,0,0.1,0c0.7,0.3,1.2,0.8,1.6,1.5c0.3,0.6,0.5,1.4,0.5,2.4
					c0,2.4-1.9,4.3-4.3,4.3C205.5,49.5,203.6,47.9,203.6,45.1z"/>
			</g>
			<g>
				
					<rect x="279.3" y="142.3" transform="matrix(0.9548 0.2974 -0.2974 0.9548 57.3476 -82.7573)" class="st1" width="42.7" height="9.5"/>
				<path class="st0" d="M320.2,159l-42.2-13.2l3.3-10.5l42.2,13.2L320.2,159z M279.8,144.8l39.4,12.3l2.4-7.7l-39.4-12.3
					L279.8,144.8z"/>
			</g>
			<g>
				<line class="st1" x1="195.1" y1="74.9" x2="198.9" y2="82.7"/>
				<path class="st0" d="M197.9,82.3l-3.2-6.4c-0.2-0.4,0-0.8,0.3-1l0,0c0.4-0.2,0.8,0,1,0.3l3.2,6.4c0.2,0.4,0,0.8-0.3,1l0,0
					C198.6,82.8,198.1,82.7,197.9,82.3z"/>
			</g>
			<g>
				<line class="st1" x1="193.8" y1="80.9" x2="201.6" y2="77.1"/>
				<path class="st0" d="M193.8,80.9L193.8,80.9c-0.2-0.4,0-0.8,0.3-1l6.4-3.2c0.4-0.2,0.8,0,1,0.3l0,0c0.2,0.4,0,0.8-0.3,1
					l-6.4,3.2C194.4,81.4,194,81.3,193.8,80.9z"/>
			</g>
			<g>
				<path class="st0" d="M320.5,95.2c-0.2,0-0.4-0.1-0.5-0.2l-5.3-5.3c-0.3-0.3-0.3-0.8,0-1.1c0.3-0.3,0.8-0.3,1.1,0l5.3,5.3
					c0.3,0.3,0.3,0.8,0,1.1C320.8,95.1,320.6,95.2,320.5,95.2z"/>
			</g>
			<g>
				<path class="st0" d="M321.6,71.4c-0.2,0-0.5-0.1-0.6-0.3c-0.2-0.3-0.1-0.8,0.2-1l4-2.7c0.3-0.2,0.8-0.1,1,0.2
					c0.2,0.3,0.1,0.8-0.2,1l-4,2.7C321.8,71.3,321.7,71.4,321.6,71.4z"/>
			</g>
			<g>
				<path class="st0" d="M245.3,149.6c-16.4,0-31.9-9.1-39.6-23.9c-0.2-0.4,0-0.8,0.3-1c0.4-0.2,0.8,0,1,0.3
					c8.7,16.8,27.8,25.9,46.4,22.3c0.4-0.1,0.8,0.2,0.9,0.6s-0.2,0.8-0.6,0.9C250.9,149.3,248.1,149.6,245.3,149.6z"/>
			</g>
		</g>
		<g id="Lines_13_">
			<g>
				<path class="st0" d="M196.8,346.7c-0.3,0-0.6-0.2-0.7-0.5l-5.2-12.4c-0.2-0.4,0-0.8,0.4-1c0.4-0.2,0.8,0,1,0.4l5.2,12.4
					c0.2,0.4,0,0.8-0.4,1C197,346.7,196.9,346.7,196.8,346.7z"/>
			</g>
			<g>
				<path class="st0" d="M191.8,349.7c-0.2,0-0.5-0.1-0.6-0.3l-5-7.6c-0.2-0.3-0.1-0.8,0.2-1c0.3-0.2,0.8-0.1,1,0.2l5,7.6
					c0.2,0.3,0.1,0.8-0.2,1C192.1,349.6,192,349.7,191.8,349.7z"/>
			</g>
		</g>
		<g id="Lines_12_">
			<g>
				<path class="st0" d="M196.8,346.7c-0.3,0-0.6-0.2-0.7-0.5l-5.2-12.4c-0.2-0.4,0-0.8,0.4-1c0.4-0.2,0.8,0,1,0.4l5.2,12.4
					c0.2,0.4,0,0.8-0.4,1C197,346.7,196.9,346.7,196.8,346.7z"/>
			</g>
			<g>
				<path class="st0" d="M191.9,349.7c-0.2,0-0.5-0.1-0.6-0.3l-5-7.6c-0.2-0.3-0.1-0.8,0.2-1c0.3-0.2,0.8-0.1,1,0.2l5,7.6
					c0.2,0.3,0.1,0.8-0.2,1C192.2,349.6,192.1,349.7,191.9,349.7z"/>
			</g>
		</g>
	</g>
	<g id="Top_10_">
		<g id="Backpack_12_">
			<g>
				<path class="st1" d="M136.6,202.7h-12.4c-12,0-21.7-9.7-21.7-21.7v-24.2c0-12,9.7-21.7,21.7-21.7h12.4c12,0,21.7,9.7,21.7,21.7
					V181C158.3,193,148.6,202.7,136.6,202.7z"/>
				<path class="st0" d="M136.6,203.4h-12.4c-12.4,0-22.4-10.1-22.4-22.4v-24.2c0-12.4,10.1-22.4,22.4-22.4h12.4
					c12.4,0,22.4,10.1,22.4,22.4V181C159,193.4,149,203.4,136.6,203.4z M124.2,135.9c-11.5,0-20.9,9.4-20.9,20.9V181
					c0,11.5,9.4,20.9,20.9,20.9h12.4c11.5,0,20.9-9.4,20.9-20.9v-24.2c0-11.5-9.4-20.9-20.9-20.9H124.2z"/>
			</g>
			<g>
				<path class="st0" d="M152.2,148.2c-0.3,0-0.5-0.1-0.6-0.4c-2.7-4.5-7.5-7.3-12.8-7.4c-0.4,0-0.7-0.3-0.7-0.8
					c0-0.4,0.3-0.7,0.8-0.7c0,0,0,0,0,0c5.8,0.1,11.1,3.1,14,8.1c0.2,0.4,0.1,0.8-0.3,1C152.5,148.2,152.3,148.2,152.2,148.2z"/>
			</g>
		</g>
		<g id="Hand_2_77_">
			<g>
				<path class="st1" d="M196.9,108.8c0,0,1.3-1.1,0-3c-1.3-1.9-3.8-1.1-3.8-1.1s2.5-2.4,0-4.3c-2.5-1.9-8.3,4.1-15.3,14
					c-7,9.9-2.5,19.4-7.3,28.4c-2.3,4.3-5.7,7.1-11.8,8.1c-1,6.4-0.7,12.6,1,18.7c3.7-0.4,7.9-1.2,12.4-2.5
					c20.9-6.1,21.2-39.3,21.2-44.3c0-3.4,4.7-8.6,5.5-10.2C200.2,109.9,196.9,108.8,196.9,108.8z"/>
				<path class="st0" d="M159.1,170.4l-0.2-0.6c-1.7-6.4-2-12.6-1-19l0.1-0.5l0.5-0.1c5.4-0.9,8.9-3.3,11.2-7.8
					c2.1-3.9,2.3-7.9,2.6-12.1c0.4-5.3,0.7-10.8,4.7-16.4c6.7-9.4,11.3-14.2,14.3-14.6c0.8-0.1,1.5,0,2,0.5c0.9,0.7,1.4,1.5,1.4,2.4
					c0,0.6-0.1,1.1-0.3,1.6c1,0.1,2.1,0.4,2.9,1.6c0.9,1.3,0.8,2.4,0.5,3.1c0.6,0.3,1.4,0.9,1.7,1.8c0.2,0.6,0.4,1.5-0.2,2.7
					c-0.3,0.5-0.8,1.2-1.5,2.2c-1.6,2.2-4,5.5-4,7.7c0,9.1-1.6,39.1-21.7,45c-4.2,1.2-8.5,2.1-12.6,2.5L159.1,170.4z M159.4,151.5
					c-0.9,5.8-0.6,11.5,0.9,17.3c3.8-0.5,7.7-1.3,11.6-2.4c19.2-5.6,20.7-34.7,20.7-43.5c0-2.7,2.5-6.1,4.3-8.6
					c0.6-0.8,1.1-1.6,1.3-2c0.3-0.5,0.3-1,0.2-1.4c-0.3-0.8-1.3-1.2-1.7-1.4l-1.2-0.4l1-0.8c0.1-0.1,0.7-0.8-0.1-2.1
					c-1-1.4-3-0.8-3-0.8l-3.1,1l2.4-2.2c0.3-0.3,0.9-1.1,0.9-1.9c0-0.5-0.3-0.9-0.8-1.3c-0.2-0.1-0.4-0.3-0.9-0.2
					c-1.7,0.3-5.4,2.9-13.3,14c-3.7,5.3-4.1,10.5-4.5,15.6c-0.3,4.2-0.6,8.5-2.8,12.7C168.6,147.8,165,150.4,159.4,151.5z"/>
			</g>
			<g>
				<path class="st0" d="M162.4,149.9c-6.4,2.4-11.3,0.2-29-3.8l5.1,21.5c0,0,9.4,7.7,25.1,5.1C163,166.4,162.5,156.3,162.4,149.9z"
					/>
				<path class="st0" d="M157.1,174.1c-11.9,0-18.8-5.6-19.1-5.9l-0.2-0.2l-5.4-22.9l1.2,0.3c3.6,0.8,6.7,1.6,9.4,2.2
					c10.4,2.5,14.2,3.4,19.1,1.6l1-0.4l0,1c0.1,6.1,0.6,16.3,1.2,22.8l0.1,0.7l-0.7,0.1C161.3,173.9,159.1,174.1,157.1,174.1z
					 M139.1,167.2c1.4,1,10,7,23.6,4.9c-0.5-6.2-0.9-15.2-1.1-21.2c-4.9,1.5-9.3,0.4-19-1.9c-2.4-0.6-5.1-1.2-8.2-1.9L139.1,167.2z"
					/>
			</g>
			<g>
				<path class="st1" d="M173.6,125.7c1.2-13.9,5-19.5,13.8-20c8.8-0.5,2.1,5.2-1.7,5.4c0,0,1.8,2.8,0.7,7.8"/>
				<path class="st0" d="M173.6,126.5C173.6,126.5,173.6,126.5,173.6,126.5c-0.5,0-0.8-0.4-0.7-0.8c1.2-14.3,5.3-20.1,14.5-20.6
					c2.7-0.2,4.3,0.2,4.9,1.2c0.2,0.3,0.5,1,0,1.9c-0.8,1.5-3.3,3.1-5.5,3.6c0.5,1.3,1.1,3.8,0.4,7.3c-0.1,0.4-0.5,0.7-0.9,0.6
					c-0.4-0.1-0.7-0.5-0.6-0.9c0.9-4.7-0.6-7.2-0.6-7.2l-0.7-1.1l1.3-0.1c1.9-0.1,4.7-1.8,5.3-3c0-0.1,0.1-0.3,0.1-0.4
					c0-0.1-0.5-0.7-3.5-0.5c-8.4,0.5-11.9,5.7-13.1,19.3C174.3,126.2,174,126.5,173.6,126.5z"/>
			</g>
			<g>
				<path class="st0" d="M193.7,103.7c-1.2,0.7-2.1,1.3-2.9,2c0.3,0.1,0.6,0.3,0.9,0.6c0.7-0.6,1.5-1.1,2.5-1.7
					C194.7,104.3,194.2,103.4,193.7,103.7z"/>
			</g>
			<g>
				<path class="st0" d="M196.6,108c-2.2,2-3.7,3.8-5.1,6.4c-0.3,0.6,0.6,1.1,0.9,0.5c1.4-2.5,2.8-4.3,4.9-6.2
					C197.7,108.3,197,107.6,196.6,108z"/>
			</g>
		</g>
		<g id="Head_83_">
			<g>
				<path class="st0" d="M108.1,122.2c-9.8,20.5-31.4,5.7-31.3,23.2c0,25,44.4,18,43-7.1C118.5,113.1,108.1,122.2,108.1,122.2z"/>
			</g>
			<g>
				<path class="st3" d="M122.7,117.8c1.6-0.3,3-0.9,4.2-1.6c-3.7-3-8.6-4-13-2.2c-1.7,0.7-3.1,1.8-4.3,3.1
					C113.9,118.2,118.3,118.7,122.7,117.8z"/>
			</g>
			<g>
				<path class="st1" d="M131.5,122.4c-3.1-7.4-11-11.1-17.6-8.4c-6.6,2.8-9.5,11-6.4,18.4c0,0,0,0.1,0,0.1c-5.2,2.5-5,7.7-1.5,9.4
					c2.7,1.3,6.7,1.2,9.2-1.6c3.1,1.3,6.6,1.5,9.8,0.5C134.8,137.7,134.6,129.8,131.5,122.4z"/>
				<path class="st0" d="M109.7,143.5c-1.4,0-2.8-0.3-3.9-0.9c-1.9-0.9-3-2.6-3-4.7c0-2.3,1.4-4.4,3.8-5.8
					c-1.4-3.6-1.4-7.5-0.2-10.9c1.3-3.7,3.9-6.5,7.3-7.9c7-2.9,15.3,1,18.6,8.8l0,0c2.2,5.3,2.5,9.8,1,13.2c-1.3,2.9-4,4.9-7.8,6.2
					c-3.2,1-6.7,0.9-9.9-0.3C113.8,142.8,111.7,143.5,109.7,143.5z M118.5,113.9c-1.4,0-2.9,0.3-4.3,0.9c-3,1.3-5.3,3.7-6.4,7
					c-1.1,3.3-1,7,0.4,10.4l0.3,0.7l-0.6,0.4c-2.3,1.1-3.6,2.9-3.6,4.7c0,1.4,0.8,2.7,2.2,3.3c2.4,1.1,6,1.2,8.3-1.4l0.4-0.4
					l0.5,0.2c3,1.3,6.3,1.4,9.3,0.5c3.5-1.1,5.8-2.9,6.9-5.4c1.4-3,1.1-7.1-1-12C128.5,117.2,123.5,113.9,118.5,113.9z"/>
			</g>
			<g>
				<circle class="st0" cx="122" cy="126.4" r="1"/>
			</g>
			<g>
				<path class="st0" d="M107.9,133.2c5-2.8,9.3-7.7,11.2-13.2c0.7-2.2,1-4.5,0.9-6.8c-2-0.2-4.1,0-6,0.8c-6.6,2.8-9.5,11-6.4,18.4
					C107.6,132.7,107.8,133,107.9,133.2z"/>
			</g>
			<g>
				<path class="st0" d="M112.6,135.9c-2.1-1.1-4.7-0.6-6.2,1.3c-0.4,0.5,0.3,1.2,0.7,0.7c1.2-1.5,3.3-2,5-1.1
					C112.7,137,113.2,136.1,112.6,135.9z"/>
			</g>
			<g>
				<path class="st0" d="M130.3,127.5c-1.1-1.9-2.5-3.7-4.2-5.2c-0.5-0.4-1.2,0.3-0.7,0.7c1.6,1.5,2.9,3.1,4,5
					C129.8,128.6,130.7,128.1,130.3,127.5z"/>
			</g>
		</g>
		<g id="Body_74_">
			<g>
				<path class="st0" d="M165.3,206.8c-15,11-62.6,8.7-62.6,8.7s3.3-11,3.5-22c0-1.5,0-2.9-0.1-4.4c-0.2-3.3-0.8-6.4-1.9-9.1
					c-4.1-10-3.2-18.1,0.2-24c0.8-1.3,1.7-2.5,2.6-3.6c0.8-0.9,1.8-1.8,2.8-2.6c5-4,11.6-5.9,17.2-5.4c0.7,0.1,1.5,0.2,2.2,0.3
					c0.9,0.2,1.8,0.4,2.7,0.8c1.4,0.5,2.8,1.2,4.2,2h0c8.5,5.1,15,15.7,19.5,26.5v0c0.8,1.9,1.6,3.9,2.3,5.8
					C163.1,193.9,165.3,206.8,165.3,206.8z"/>
				<path class="st0" d="M113.6,216.4c-6.1,0-10.4-0.2-10.9-0.2l-1,0l0.3-0.9c0-0.1,3.3-11,3.5-21.8c0-1.5,0-3-0.1-4.3
					c-0.2-3.4-0.8-6.4-1.8-8.8c-4.8-11.7-2.5-19.8,0.3-24.6c0.8-1.4,1.7-2.6,2.7-3.7c0.9-1,1.8-1.9,2.8-2.7c5-4,11.7-6.1,17.7-5.5
					c0.8,0.1,1.5,0.2,2.3,0.3c1,0.2,1.9,0.5,2.8,0.8c1.4,0.5,2.8,1.1,4.1,1.9l0.2,0.1c7.5,4.5,14.2,13.5,19.8,26.9l0.1,0.1
					c0.8,1.8,1.5,3.7,2.2,5.7c5.1,14,7.4,26.9,7.4,27.1l0.1,0.5l-0.4,0.3C155.1,215.3,128.6,216.4,113.6,216.4z M103.7,214.8
					c6.7,0.2,47,1.3,60.8-8.3c-0.4-2.4-2.7-14-7.3-26.3c-0.8-2.1-1.5-3.9-2.3-5.8l-0.1-0.2c-5.5-12.9-11.9-21.6-19-26l-0.2-0.1
					c-1.3-0.8-2.7-1.4-4-1.9c-0.8-0.3-1.7-0.5-2.6-0.7c-0.7-0.1-1.4-0.3-2.1-0.3c-5.7-0.5-11.9,1.4-16.7,5.2c-1,0.8-1.9,1.6-2.7,2.5
					c-1,1.1-1.8,2.2-2.6,3.5c-3.8,6.4-3.8,14.5-0.2,23.3c1.1,2.6,1.7,5.7,2,9.3c0.1,1.4,0.1,2.9,0.1,4.5
					C106.8,202.6,104.5,211.9,103.7,214.8z"/>
			</g>
			<g>
				<path class="st1" d="M107.9,193c-0.5,0.5-1.2,0.7-1.7,0.5c-1.4-0.3-2.4-2.1-1.1-3.4c0.4-0.3,0.7-0.7,1-1
					c8.5-9.5,3.6-22.7-1.7-33c0.8-1.3,1.7-2.5,2.6-3.6C113.6,165.1,119.8,181.5,107.9,193z"/>
			</g>
			<g>
				<path class="st1" d="M129.2,144.8c-1.7,3.4-5.1,6.7-7.4,8c-3,1.7-7.1,2.5-9.9,0.1c-1-0.9-1.7-1.9-2-3c5-4,11.6-5.9,17.2-5.4
					C127.8,144.5,128.5,144.7,129.2,144.8z"/>
				<path class="st0" d="M116.3,155.1c-1.7,0-3.4-0.5-4.9-1.7c-1.1-0.9-1.9-2-2.3-3.4l-0.2-0.5l0.4-0.3c5-4,11.7-6.1,17.7-5.5
					c0.8,0.1,1.5,0.2,2.3,0.3l1,0.2l-0.4,0.9c-1.8,3.6-5.3,7-7.7,8.3C120.5,154.4,118.4,155.1,116.3,155.1z M110.7,150.1
					c0.4,0.9,0.9,1.6,1.6,2.2c2.6,2.2,6.4,1.4,9.1-0.1c2-1.1,4.9-3.8,6.6-6.8c-0.4-0.1-0.7-0.1-1.1-0.1
					C121.5,144.7,115.4,146.5,110.7,150.1z"/>
			</g>
			<g>
				<path class="st1" d="M157.9,179.9c-13.6-7.1-24.5-20.4-25-36.3c1.4,0.5,4.2,2,4.2,2c1.3,11.8,8.5,22.5,18.5,28.5v0
					C156.5,176,157.2,178,157.9,179.9z"/>
			</g>
		</g>
		<g>
			<path class="st1" d="M304.8,85.7c0,6.6-1.3,12.9-3.8,18.6c-2.5,5.8-6.1,11-10.5,15.4c-0.3,0.3-0.7,0.6-1,1
				c-8.5,7.8-19.7,12.5-32.1,12.5c-2.2,0-4.3-0.1-6.4-0.3c-0.3,0-0.7-0.1-1-0.1c-5.6-0.6-10.8-1.8-15.6-3.8
				c-0.4-0.2-0.8-0.3-1.2-0.5c-7.3-3.3-13.3-8.6-17.4-16.1c-3.8-6.9-5.9-15.7-5.9-26.7c0-26.2,21.2-47.5,47.4-47.5
				C283.6,38.2,304.8,55.5,304.8,85.7z"/>
			<path class="st0" d="M257.4,134c-2.2,0-4.4-0.1-6.5-0.3l-0.1,0c-0.3,0-0.6-0.1-0.9-0.1c-5.8-0.6-11.1-1.9-15.8-3.9
				c-0.4-0.2-0.8-0.3-1.2-0.5c-7.8-3.6-13.7-9.1-17.7-16.4c-4-7.3-6-16.4-6-27.1c0-26.6,21.6-48.3,48.2-48.3
				c13.3,0,25.4,4.5,34.1,12.6c9.2,8.7,14.1,21,14.1,35.6c0,6.6-1.3,13-3.9,18.9c-2.5,5.9-6.1,11.1-10.7,15.6c-0.3,0.3-0.7,0.7-1,1
				C281.1,129.5,269.5,134,257.4,134z M257.4,39c-25.7,0-46.7,21-46.7,46.8c0,10.4,2,19.3,5.8,26.3c3.8,7,9.6,12.3,17,15.7
				c0.4,0.2,0.8,0.4,1.1,0.5c4.5,1.9,9.7,3.2,15.3,3.8c0.3,0,0.6,0.1,0.9,0.1l0.1,0c2.1,0.2,4.2,0.3,6.3,0.3
				c11.7,0,22.9-4.4,31.6-12.3c0.3-0.3,0.7-0.6,1-0.9c4.4-4.3,7.9-9.4,10.4-15.1c2.5-5.8,3.7-12,3.7-18.4
				C304.1,57.8,285.3,39,257.4,39z"/>
		</g>
		<g id="Man_2_">
			<g>
				<path class="st0" d="M301,104.4c-2.5,5.8-6.1,11-10.5,15.4c-0.3,0.3-0.7,0.6-1,1c-8.5,7.8-19.7,12.5-32.1,12.5
					c-2.2,0-4.3-0.1-6.4-0.3c-0.3,0-0.7-0.1-1-0.1c-5.6-0.6-10.8-1.8-15.6-3.8c5.8-14.5,13.8-29.3,26.3-35.8
					c4.6-2.4,9.9-3.7,15.9-3.3c2.7,0.2,5.2,0.7,7.5,1.4C292,93.7,297.4,99.2,301,104.4z"/>
			</g>
			<g>
				<g>
					<path class="st1" d="M269.5,94.6c-2,0-4.1-0.2-6.1-0.7c-0.5-0.1-1-0.3-1.4-0.5c0.6-0.3,1.2-0.6,1.9-0.8l0.8-0.3l-1.2-1.8
						l-0.5,0.1c-0.5,0.1-1.1,0.1-1.6,0.1c-6.8,0-11.4-6.2-14.1-11.4c-2.2-4.3-2.9-9.1-1.7-13.5c1.1-4.4,3.8-7.9,7.6-9.9
						c2.1-1.1,4.4-1.7,6.8-1.7c6.4,0,12.6,4,15.8,10.2l0.3,0.6l0.7-0.2c1.4-0.6,2.8-1,4.1-1c1.9,0,3.6,0.8,4.6,2.1
						c1,1.2,1.3,2.8,0.9,4.4c-0.8,3.2-3.7,6.9-8.2,7.2l-0.7,0.1l1.1,13.4l0.6,0.1c1,0.1,2,0.3,2.9,0.6
						C278.3,93.5,274,94.6,269.5,94.6L269.5,94.6z"/>
				</g>
				<g>
					<path class="st0" d="M260.2,54.8c6.1,0,12,3.8,15.2,9.8l0,0.1l0,0l0.7,1.3l1.3-0.6c1.3-0.6,2.6-0.9,3.7-0.9
						c1.7,0,3.2,0.6,4.1,1.8c0.8,1,1.1,2.4,0.7,3.7c-0.7,3-3.4,6.3-7.5,6.7l-1.5,0.1l0.1,1.5l1,12l0.1,1.2l1.2,0.2
						c0.2,0,0.4,0.1,0.7,0.1c-3.2,1.4-6.7,2.1-10.4,2.1c-1.8,0-3.6-0.2-5.4-0.5c0,0,0.1,0,0.1,0l1.7-0.7l-1-1.5l-0.4-0.7l-0.5-0.8
						l-0.9,0.1c-0.5,0.1-1,0.1-1.5,0.1c-6.4,0-10.8-6-13.5-11c-2.2-4.1-2.7-8.7-1.7-13c1.1-4.2,3.6-7.6,7.3-9.4
						C255.7,55.3,257.9,54.8,260.2,54.8 M260.2,53.3c-2.5,0-4.9,0.6-7.2,1.7c-8.3,4.3-11,15.3-6.2,24.5c3.4,6.5,8.3,11.8,14.8,11.8
						c0.5,0,1.1,0,1.7-0.1l0.4,0.7c-1,0.4-2,0.8-3,1.3c0.6,0.7,1.4,1.2,2.6,1.4c2.1,0.4,4.1,0.7,6.2,0.7c5.2,0,10.3-1.4,14.6-4.1
						c-1.5-0.5-3-0.8-4.7-1.1l-1-12c4.6-0.4,7.9-4.1,8.9-7.8c1-3.9-1.8-7.4-6.2-7.4c-1.3,0-2.8,0.3-4.4,1c0,0,0-0.1,0-0.1
						C273.2,57.2,266.6,53.3,260.2,53.3L260.2,53.3z"/>
				</g>
			</g>
			<g>
				<path class="st0" d="M273.2,66.8c1.2-0.8,3-1.6,4.2-2.4c0-0.2-0.7-0.4-0.7-0.6c0-12-14.2-19.3-20.6-10.6c-1.5,0.8-8.6,0-9.1,4.6
					c-4-1.7-9.6,1.7-6.2,6.5c0.6,0.8,2.6,2.1,3.8,3c3.4-0.1,6.8-0.6,10.2-1.5c3.2-0.8,5.8-2.7,8.9-3.4c4.1-1,5.3,2.1,8.3,3.8
					C272.4,66.5,272.8,66.7,273.2,66.8z"/>
			</g>
			<g>
				
					<ellipse transform="matrix(0.6387 -0.7695 0.7695 0.6387 37.0061 225.5199)" class="st0" cx="258.6" cy="73.4" rx="1.3" ry="1.3"/>
			</g>
			<g>
				<path class="st0" d="M281.6,68c-3-0.8-5.8,1.3-5.9,4.4c0,0.6,1,0.6,1,0c0.1-2.4,2.3-4.1,4.7-3.4C281.9,69.1,282.2,68.2,281.6,68
					z"/>
			</g>
			<g>
				<path class="st0" d="M256,84c-1.9-2.9-3.1-6.1-3.6-9.6c-0.1-0.6-1.1-0.6-1,0c0.5,3.7,1.7,7,3.7,10.1C255.5,85,256.4,84.5,256,84
					z"/>
			</g>
			<g>
				<path class="st1" d="M242,99.9c-2,3.3-6.1,18.5-8.7,28.6c-7.3-3.3-13.3-8.6-17.4-16.1c2-6.5,3.9-10.8,3.5-15.3
					c-0.7-7,0.9-15.4,2.6-21.6c0,0,2.1-3.1,4.9-0.7c0,0,3.1-3.1,4.9,0.3c0,0,3.4-3,4.4,1c0.7,2.6,2.2,6.9,2.4,13.8
					c0.4-0.1,0.7-0.2,0.7-0.2s1.3-9.6,4.2-8.1C246.4,83.3,244.3,95.9,242,99.9z"/>
				<path class="st0" d="M233.7,129.6l-0.8-0.4c-7.8-3.6-13.7-9.1-17.7-16.4l-0.2-0.3l0.1-0.3c0.4-1.3,0.8-2.5,1.2-3.6
					c1.5-4.6,2.6-7.9,2.3-11.4c-0.7-7.8,1.3-17.1,2.7-21.9l0.1-0.2c0-0.1,1.1-1.7,2.9-1.9c0.9-0.1,1.8,0.1,2.6,0.7
					c0.7-0.5,1.8-1.2,3.1-1c0.8,0.1,1.4,0.5,2,1.3c0.7-0.5,1.9-1,3-0.6c1,0.3,1.6,1.1,2,2.5c0.1,0.5,0.3,1,0.4,1.5
					c0.6,2.1,1.4,5.1,1.8,9.1c0.5-2.2,1.4-4.7,2.8-5.5c0.6-0.3,1.2-0.3,1.9,0c0.7,0.3,1.2,1.1,1.5,2.1c1.2,4.1-0.6,13.6-2.7,17.1v0
					c-1.4,2.4-4.5,12.5-8.6,28.4L233.7,129.6z M216.7,112.3c3.7,6.6,9.1,11.7,16.1,15.1c2.9-11.2,6.7-24.8,8.6-27.9
					c1.9-3.2,3.6-12.2,2.5-15.9c-0.2-0.6-0.4-1.1-0.7-1.2c-0.2-0.1-0.3-0.1-0.5,0c-1.2,0.6-2.2,4.8-2.6,7.5l-0.1,0.5l-0.5,0.1
					c0,0-0.3,0-0.6,0.2l-0.9,0.3l0-1c-0.2-5.6-1.3-9.5-2-12.1c-0.2-0.6-0.3-1.1-0.4-1.6c-0.1-0.6-0.4-1.3-0.9-1.4
					c-0.7-0.2-1.9,0.5-2.2,0.8l-0.7,0.6l-0.4-0.8c-0.4-0.7-0.8-1.1-1.3-1.2c-0.9-0.1-2,0.7-2.3,1.1l-0.5,0.5l-0.5-0.4
					c-0.7-0.6-1.3-0.8-2-0.7c-0.9,0.1-1.6,0.9-1.8,1.2c-1.3,4.7-3.3,13.7-2.6,21.2c0.4,3.8-0.8,7.4-2.3,12
					C217.4,110.1,217.1,111.2,216.7,112.3z"/>
			</g>
			<g>
				<path class="st0" d="M236.7,91c-3.9,1-6,4.7-5.3,8.6c0.1,0.6,1.1,0.3,1-0.3c-0.7-3.4,1.3-6.4,4.6-7.3
					C237.6,91.7,237.3,90.8,236.7,91z"/>
			</g>
			<g>
				<path class="st0" d="M233.3,88.6c-2-4.5-2.3-9.3-0.9-14c0.2-0.6-0.8-0.8-1-0.2c-1.5,4.9-1.1,9.9,0.9,14.5
					C232.6,89.5,233.5,89.2,233.3,88.6z"/>
			</g>
			<g>
				<path class="st0" d="M227.7,88.9c-1.4-4.7-1.6-9.4-0.4-14.1c0.1-0.6-0.8-0.8-1-0.2c-1.2,4.9-1,9.8,0.5,14.6
					C227,89.9,227.9,89.5,227.7,88.9z"/>
			</g>
			<g>
				<path class="st1" d="M250,132C250,132,250,132,250,132c-0.4,0-0.8-0.3-0.8-0.7c0.2-4.9,0.4-10,0.5-15.1c0-0.4,0.3-0.7,0.8-0.7
					c0.4,0,0.7,0.3,0.7,0.7c-0.1,5.1-0.2,10.2-0.5,15.2C250.7,131.7,250.4,132,250,132z"/>
			</g>
			<g>
				<path class="st1" d="M290.5,119C290.5,119,290.5,119,290.5,119c-0.4,0-0.8-0.3-0.8-0.6c0-1.7,0-3.2,0-4.8c0-0.3,0.3-0.6,0.7-0.6
					c0.4,0,0.8,0.3,0.8,0.6c0,1.5,0,3.1,0,4.8C291.2,118.7,290.9,119,290.5,119z"/>
			</g>
		</g>
		<g id="Hand_71_">
			<g>
				<path class="st1" d="M111.9,165.5c2.2-3.4,0.4-4.6-0.8-4.7c-0.3,0-0.5-0.3-0.4-0.6c0.6-1.8-0.3-4-1.3-4.3
					c-0.2-0.1-0.2-0.2-0.1-0.4c0.8-1,1.2-3-1.8-3.5c-4-0.7-6.6,3.8-8.5,10.8c-5.3,7.6-8.5,14.3-9.9,19.9c-2.2,8.8-0.2,15.2,4.1,19.3
					c0.9,0.9,1.9,1.5,2.9,1.9c0.6,0.4,1.3,0.7,2.2,0.8c19.7,2.3,12-19.7,14.6-26.9C115.5,170.5,108.9,170,111.9,165.5z"/>
				<path class="st0" d="M101.1,205.6c-0.9,0-1.8-0.1-2.9-0.2c-0.9-0.1-1.7-0.4-2.4-0.9c-1.1-0.5-2.1-1.2-3-2c-3.5-3.2-7-9.3-4.4-20
					c1.5-6,4.8-12.8,9.9-20.1c1.5-5.3,4-12.2,9.3-11.2c1.9,0.3,2.5,1.2,2.8,1.8c0.3,0.7,0.2,1.6-0.3,2.4c0.5,0.4,0.9,1,1.2,1.8
					c0.3,0.9,0.4,2,0.1,2.9c0.7,0.1,1.5,0.6,1.9,1.4c0.6,1.1,0.3,2.6-0.9,4.4l0,0c-1.2,1.8-0.6,2.6,0.2,4.1c1,1.7,2.3,3.9,0.8,8
					c-0.7,1.8-0.6,4.9-0.5,8.1c0.1,6.1,0.2,13.1-3.9,16.8C107.2,204.7,104.5,205.6,101.1,205.6z M106.7,152.6c-2.8,0-5,3.3-7,10.3
					l-0.1,0.2c-5,7.2-8.3,13.8-9.8,19.7c-2,7.9-0.6,14.3,3.9,18.6c0.8,0.8,1.7,1.4,2.7,1.8l0.1,0.1c0.6,0.4,1.2,0.6,1.8,0.7
					c4.4,0.5,7.6-0.2,9.7-2.1c3.7-3.3,3.5-9.9,3.4-15.7c-0.1-3.5-0.1-6.6,0.6-8.7c1.2-3.5,0.2-5.1-0.7-6.7c-0.9-1.5-1.9-3.1-0.2-5.7
					c0.8-1.2,1.1-2.3,0.8-2.9c-0.2-0.4-0.7-0.6-1.1-0.6c-0.4,0-0.7-0.2-0.9-0.5c-0.2-0.3-0.3-0.7-0.1-1.1c0.2-0.7,0.2-1.5-0.1-2.3
					c-0.2-0.7-0.6-1.1-0.8-1.1c-0.3-0.1-0.6-0.3-0.7-0.7c-0.1-0.3,0-0.6,0.2-0.9c0.3-0.4,0.6-1,0.4-1.4c-0.2-0.4-0.8-0.7-1.7-0.9
					C107.2,152.7,107,152.6,106.7,152.6z"/>
			</g>
			<g>
				<path class="st0" d="M100.2,161.4L94,183.7l-4.8-1C90.6,176.8,94.5,169.4,100.2,161.4z"/>
			</g>
			<g>
				<path class="st0" d="M97.1,167.3c-1.3,6.8-2.6,13.7-3.9,20.5c-0.1,0.6,0.8,0.9,1,0.3c1.3-6.8,2.5-14,3.8-20.9
					C98.1,166.6,97.2,166.7,97.1,167.3z"/>
			</g>
			<g>
				<path class="st0" d="M111.6,159.8c-3.4,1.1-5.3,4.5-4.3,8c0.2,0.6,1.1,0.4,1-0.3c-0.8-3,0.7-5.8,3.6-6.7
					C112.5,160.5,112.2,159.6,111.6,159.8z"/>
			</g>
			<g>
				<path class="st0" d="M111.9,155.8c-3.7-1.6-7.8,0.3-8.7,4.4c-0.1,0.6,0.8,0.9,1,0.3c0.7-3.3,4-5.1,7.2-3.8
					C112,156.9,112.5,156,111.9,155.8z"/>
			</g>
		</g>
	</g>
</g>
</svg>
