<?xml version="1.0" encoding="utf-8"?>
<!-- Generator: Adobe Illustrator 21.0.2, SVG Export Plug-In . SVG Version: 6.00 Build 0)  -->
<svg version="1.1" id="Слой_1" xmlns="http://www.w3.org/2000/svg" xmlns:xlink="http://www.w3.org/1999/xlink" x="0px" y="0px"
	 viewBox="0 0 407 413" style="enable-background:new 0 0 407 413;" xml:space="preserve">
<style type="text/css">
	.st0{fill:#FFC2D6;}
	.st1{fill:#030047;}
	.st2{fill:#FFFFFF;}
	.st3{fill:none;stroke:#5F5FFF;stroke-width:1.5;stroke-linecap:round;stroke-miterlimit:10;}
</style>
<g id="_x34_">
	<g id="Background_57_">
		<g>
			<path class="st0" d="M308.6,381.9H111.2c0,0,11.8-86.1,113.8-81.2C312.3,304.9,308.6,381.9,308.6,381.9z"/>
		</g>
		<g id="Bird_2_1_">
			<g>
				<polygon class="st1" points="164.4,68.7 167.3,37.9 181,52.4 				"/>
			</g>
			<g>
				
					<rect x="134.1" y="52.6" transform="matrix(0.8751 0.4839 -0.4839 0.8751 54.1029 -65.3459)" class="st2" width="39.1" height="39.1"/>
				<path class="st1" d="M161.6,99.7l-35.5-19.6l19.6-35.5l35.5,19.6L161.6,99.7z M128.1,79.5L161,97.7l18.2-32.9l-32.9-18.2
					L128.1,79.5z"/>
			</g>
			<g>
				<path class="st0" d="M163.2,66.2l3.6-40.3c0,0-17.5,0.6-20.8,19.7S163.2,66.2,163.2,66.2z"/>
			</g>
			<g>
				<path class="st1" d="M182,82.1c-0.1,0-0.2,0-0.4-0.1l-5.6-3.1c-0.4-0.2-0.5-0.7-0.3-1c0.2-0.4,0.7-0.5,1-0.3l5.6,3.1
					c0.4,0.2,0.5,0.7,0.3,1C182.5,81.9,182.3,82.1,182,82.1z"/>
			</g>
			<g>
				<path class="st1" d="M139,39.7c-0.3,0-0.6-0.2-0.7-0.5l-3.1-10.9c-0.1-0.4,0.1-0.8,0.5-0.9c0.4-0.1,0.8,0.1,0.9,0.5l3.1,10.9
					c0.1,0.4-0.1,0.8-0.5,0.9C139.1,39.7,139,39.7,139,39.7z"/>
			</g>
			<g>
				<path class="st1" d="M132,35.8c-0.3,0-0.6-0.2-0.7-0.5c-0.1-0.4,0.1-0.8,0.5-0.9l10.9-3.1c0.4-0.1,0.8,0.1,0.9,0.5
					c0.1,0.4-0.1,0.8-0.5,0.9l-10.9,3.1C132.1,35.8,132,35.8,132,35.8z"/>
			</g>
		</g>
		<g id="Bird_1_1_">
			<g>
				<polygon class="st2" points="87.8,146.4 84.2,166.1 102.4,157.7 				"/>
				<path class="st1" d="M83.2,167.4l4.1-22.4l16.5,12.9L83.2,167.4z M88.3,147.7l-3.1,17.1l15.8-7.3L88.3,147.7z"/>
			</g>
			<g>
				<path class="st1" d="M65.9,163.9h32.3c0,0-1.5,18.5-16.1,18.5S65.9,163.9,65.9,163.9z"/>
			</g>
			<g>
				<path class="st2" d="M87.8,169.9H76.3c-0.4,0-0.8-0.3-0.8-0.8s0.3-0.8,0.8-0.8h11.5c0.4,0,0.8,0.3,0.8,0.8
					S88.2,169.9,87.8,169.9z"/>
			</g>
			<g>
				<path class="st2" d="M87.8,173.9H76.3c-0.4,0-0.8-0.3-0.8-0.8s0.3-0.8,0.8-0.8h11.5c0.4,0,0.8,0.3,0.8,0.8
					S88.2,173.9,87.8,173.9z"/>
			</g>
			<g>
				<polygon class="st2" points="76.3,141.8 63.2,153.2 82,161 				"/>
				<path class="st1" d="M83.2,162.3l-21.5-8.9l14.9-13L83.2,162.3z M64.6,153l16.3,6.7l-5-16.6L64.6,153z"/>
			</g>
			<g>
				<path class="st1" d="M104.7,169.9h-5c-0.4,0-0.8-0.3-0.8-0.8s0.3-0.8,0.8-0.8h5c0.4,0,0.8,0.3,0.8,0.8S105.1,169.9,104.7,169.9z
					"/>
			</g>
		</g>
		<g id="Bird_4_1_">
			<g>
				<rect x="326.3" y="143.6" transform="matrix(0.8 -0.6 0.6 0.8 -25.2224 233.1442)" class="st0" width="21.7" height="21.7"/>
			</g>
			<g>
				<path class="st2" d="M362.7,173.7c0,10.4-7.6,18-18,18s-18.8-8.4-18.8-18.8c0-10.4,8.4-18.8,18.8-18.8S362.7,162,362.7,173.7z"
					/>
				<path class="st1" d="M344.7,192.4c-10.8,0-19.6-8.8-19.6-19.6c0-10.8,8.8-19.6,19.6-19.6c11,0,18.7,8.4,18.7,20.4
					C363.4,184.5,355.5,192.4,344.7,192.4z M344.7,154.8c-10,0-18.1,8.1-18.1,18.1c0,10,8.1,18.1,18.1,18.1c10,0,17.2-7.2,17.2-17.2
					C361.9,162.6,354.8,154.8,344.7,154.8z"/>
			</g>
			<g>
				<circle class="st1" cx="351.7" cy="168.4" r="2.3"/>
			</g>
			<g>
				<path class="st1" d="M362.2,163.6c-0.2,0-0.5-0.1-0.6-0.3c-0.2-0.3-0.2-0.8,0.2-1l4.5-3.2c0.3-0.2,0.8-0.2,1,0.2
					c0.2,0.3,0.2,0.8-0.2,1l-4.5,3.2C362.5,163.6,362.3,163.6,362.2,163.6z"/>
			</g>
			<g>
				
					<rect x="319.2" y="147.8" transform="matrix(0.968 0.2511 -0.2511 0.968 50.431 -77.7962)" class="st1" width="21.7" height="21.7"/>
			</g>
		</g>
	</g>
	<g id="Bottom_64_">
		<g>
			<path class="st2" d="M169.7,266.1c11.3,12.5,30.1,32.5,41.4,56.2c8.9,18.7,11.1,39.7,14.4,61.4l49.2-1c0,0-1.6-7.5-8.5-10
				c-6.8-2.6-11.5-8.1-16.2-40.5c-4.7-32.3-32.9-75.7-49.9-89.8c-4.6-3.8-8.7-7.3-12.2-10.2C181.2,243.1,175.1,254.4,169.7,266.1z"
				/>
			<path class="st1" d="M224.8,384.5l-0.1-0.7c-0.4-2.5-0.7-4.9-1.1-7.4c-2.8-19.2-5.4-37.4-13.2-53.9
				c-10.6-22.3-27.9-41.3-39.3-53.9l-2.3-2.5l0.2-0.4c5.1-11.1,11-22.2,18.3-34l0.5-0.7l0.7,0.6c3.5,3,7.6,6.4,12.2,10.2
				c16.8,13.9,45.3,57,50.1,90.3c4.8,33.3,9.8,37.7,15.7,39.9c7.1,2.7,8.9,10.2,8.9,10.6l0.2,0.9L224.8,384.5z M170.6,265.9l1.6,1.8
				c11.5,12.7,28.9,31.8,39.6,54.3c7.9,16.7,10.6,35,13.4,54.3c0.3,2.2,0.6,4.5,1,6.7l47.6-1c-0.7-2-2.7-6.7-7.7-8.6
				c-7.7-2.9-12.1-9.7-16.7-41.1c-4.8-32.9-33-75.6-49.6-89.4c-4.3-3.6-8.2-6.8-11.6-9.7C181.2,244.6,175.5,255.3,170.6,265.9z"/>
		</g>
		<g>
			<path class="st1" d="M256.8,362.3c-11.2,1.7-22.5,3-33.7,5.3c0.8,5.3,1.6,10.7,2.4,16.2l49.2-1c0,0-1.6-7.5-8.5-10
				C262.6,371.3,259.5,369,256.8,362.3z"/>
		</g>
		<g>
			<path class="st2" d="M257.5,365.5c-2,1.1-3.9,2.5-5.5,4.1c-0.5,0.4,0.2,1.1,0.7,0.7c1.6-1.6,3.4-2.9,5.3-3.9
				C258.5,366,258,365.2,257.5,365.5z"/>
		</g>
		<g>
			<path class="st2" d="M260,368.2c-1.6,1.9-3.3,3.6-5.2,5.2c-0.5,0.4,0.2,1.1,0.7,0.7c1.9-1.6,3.6-3.3,5.2-5.2
				C261.1,368.5,260.4,367.7,260,368.2z"/>
		</g>
		<g>
			<path class="st2" d="M151.5,238.9c-4.9,16.1-12.5,42.5-27.2,64.3C112.8,320.4,96,333,78.9,346.9l26.1,41.8c0,0,5.6-5.2,4.3-12.4
				c-1.3-7.2,1.1-14,26.5-34.6s48.2-67,51.7-88.8c0.9-5.9,1.8-11.2,2.5-15.7C177.1,237,164.3,237.5,151.5,238.9z"/>
			<path class="st1" d="M104.8,389.9l-26.9-43.1l0.5-0.4c1.9-1.6,3.9-3.1,5.8-4.7c15.1-12.2,29.3-23.8,39.5-38.9
				c13.8-20.5,21.3-45.1,26.2-61.3l1-3.2l0.5-0.1c12.1-1.3,24.7-1.9,38.6-1.7l0.9,0l-0.1,0.9c-0.7,4.5-1.6,9.8-2.5,15.7
				c-3.4,21.5-25.8,68.1-51.9,89.3c-26.2,21.2-27.4,27.6-26.2,33.9c1.4,7.5-4.3,12.9-4.5,13.1L104.8,389.9z M79.9,347.1l25.2,40.4
				c1.4-1.6,4.4-5.8,3.4-11c-1.5-8.1,2.2-15.4,26.8-35.3c25.8-20.9,48.1-67,51.4-88.3c0.9-5.6,1.7-10.6,2.4-14.9
				c-13.2-0.1-25.4,0.4-37,1.7l-0.7,2.3c-5,16.4-12.5,41.1-26.4,61.7c-10.3,15.3-24.6,26.9-39.8,39.2
				C83.4,344.2,81.7,345.7,79.9,347.1z"/>
		</g>
		<g>
			<path class="st1" d="M113.4,362.9c-7.2-8.8-14.1-17.8-21.8-26.2c-4.2,3.4-8.4,6.8-12.7,10.3l26.1,41.8c0,0,5.6-5.2,4.3-12.4
				C108.6,372.5,109,368.7,113.4,362.9z"/>
		</g>
		<g>
			<path class="st2" d="M244.1,298.8c-10.9-25.5-31.6-46.3-43.9-56.4c-4.6-3.8-8.7-7.3-12.2-10.2c-1,1.7-2,3.3-3,5
				c-11.2,0-22.3,0.5-33.4,1.7c-4.4,14.3-10.9,36.7-22.5,56.8c8.3,8.8,28.1,22.4,32.4,23.8c9.3-12.7,15.6-27.4,19.8-40.6
				c8.6,9.9,18.2,22,25.8,35.5C218.8,311.8,240.7,301.8,244.1,298.8z"/>
			<path class="st1" d="M161.7,320.4l-0.5-0.2c-4.7-1.5-24.7-15.5-32.7-24l-0.4-0.4l0.3-0.5c10.9-18.8,17.3-39.9,21.6-53.9l1-3.2
				l0.5-0.1c10.5-1.1,21.3-1.7,33.1-1.7c0.9-1.6,1.9-3.1,2.8-4.7l0.5-0.7l0.7,0.6c3.5,3,7.6,6.4,12.2,10.2
				c7.2,6,31.8,27.8,44.1,56.7l0.2,0.5l-0.4,0.4c-3.7,3.2-25.9,13.3-37.4,15.8l-0.5,0.1l-0.3-0.5c-7.8-14-17.8-26.2-24.8-34.4
				c-5,15.4-11.6,28.7-19.5,39.5L161.7,320.4z M130,295.6c8.3,8.6,26.3,21,31.2,23c7.9-11,14.4-24.4,19.4-39.9l0.4-1.3l0.9,1
				c7.1,8.2,17.4,20.6,25.6,35.2c11.6-2.7,31.5-11.9,35.7-15c-12.3-28.3-36.3-49.7-43.5-55.6c-4.3-3.6-8.2-6.8-11.6-9.7
				c-0.9,1.4-1.7,2.8-2.6,4.3l-0.2,0.4l-0.4,0c-11.7,0-22.4,0.6-32.8,1.7l-0.7,2.2C147.2,255.8,140.7,276.8,130,295.6z"/>
		</g>
		<g>
			<path class="st2" d="M111,365.1c-2-1.2-4.1-2.1-6.3-2.7c-0.6-0.2-0.9,0.8-0.3,0.9c2.2,0.6,4.2,1.4,6.1,2.6
				C111,366.3,111.5,365.4,111,365.1z"/>
		</g>
		<g>
			<path class="st2" d="M109.9,368.7c-2.4-0.4-4.8-1-7.1-1.8c-0.6-0.2-0.9,0.7-0.3,0.9c2.3,0.8,4.7,1.4,7.1,1.8
				C110.2,369.7,110.5,368.8,109.9,368.7z"/>
		</g>
		<g>
			<path class="st1" d="M182.2,276.6c-0.1,0-0.1,0-0.2,0c-0.4-0.1-0.6-0.5-0.5-0.9c2.8-9.6,3.4-14.6,3.4-14.7l0.1-0.5l0.5-0.1
				c0,0,3.8-0.9,6.5-2.2c0.4-0.2,0.8,0,1,0.4c0.2,0.4,0,0.8-0.4,1c-2.2,1.1-5.1,1.9-6.3,2.2c-0.2,1.5-1,6.3-3.4,14.4
				C182.8,276.3,182.5,276.6,182.2,276.6z"/>
		</g>
		<g>
			<path class="st1" d="M146.5,318.6c-1,1.8-1.3,3.9-0.9,5.9c0.1,0.6,1.1,0.4,0.9-0.3c-0.4-1.8-0.1-3.6,0.8-5.2
				C147.6,318.5,146.8,318,146.5,318.6z"/>
		</g>
		<g>
			<path class="st1" d="M241.8,314.4c-1.5-0.6-2.8-1.6-3.7-3c-0.3-0.5-1.2,0-0.8,0.5c1,1.6,2.5,2.8,4.3,3.4
				C242.1,315.6,242.4,314.6,241.8,314.4z"/>
		</g>
	</g>
	<g id="Top_64_">
		<g id="Backpack_18_">
			<g>
				<path class="st0" d="M164.5,237h-18.8c-9.8,0-17.7-7.9-17.7-17.7v-35.2c0-9.8,7.9-17.7,17.7-17.7h18.8c9.8,0,17.7,7.9,17.7,17.7
					v35.2C182.2,229.1,174.3,237,164.5,237z"/>
			</g>
			<g>
				<path class="st2" d="M133,215.3c-0.4,0-0.8-0.3-0.8-0.8v-29.1c0-8.1,6-14.8,13.4-14.8h14.2c0.4,0,0.8,0.3,0.8,0.8
					s-0.3,0.8-0.8,0.8h-14.2c-6.5,0-11.9,5.9-11.9,13.3v29.1C133.7,215,133.4,215.3,133,215.3z"/>
			</g>
			<g>
				<path class="st2" d="M139.5,183.7c-0.4,0-0.7-0.3-0.7-0.7c0-0.4,0.3-0.8,0.7-0.8c0.1,0,8.2-0.2,16.2-0.4c0.4,0,0.8,0.3,0.8,0.7
					c0,0.4-0.3,0.8-0.7,0.8C147.7,183.5,139.6,183.7,139.5,183.7C139.6,183.7,139.6,183.7,139.5,183.7z"/>
			</g>
		</g>
		<g id="Bird_3_1_">
			<g>
				<path class="st1" d="M264.9,139.6c-7.2,0-14.3-2-20.5-5.8c-11.6-7.2-18.5-19.6-18.5-33.2c0-4.2,0.7-8.3,1.9-12.2
					c0.1-0.4,0.6-0.6,0.9-0.5c0.4,0.1,0.6,0.6,0.5,0.9c-1.2,3.8-1.9,7.7-1.9,11.7c0,13.1,6.7,25,17.8,31.9
					c5.9,3.6,12.7,5.6,19.7,5.6c0.4,0,0.8,0.3,0.8,0.8S265.3,139.6,264.9,139.6z"/>
			</g>
			<g>
				<path class="st1" d="M286.1,133.2c-0.2,0-0.5-0.1-0.6-0.3c-0.2-0.3-0.1-0.8,0.2-1c6.3-4.2,11.1-10.1,13.9-17.1
					c0.2-0.4,0.6-0.6,1-0.4c0.4,0.2,0.6,0.6,0.4,1c-2.9,7.2-8,13.4-14.5,17.7C286.4,133.1,286.3,133.2,286.1,133.2z"/>
			</g>
			<g>
				<path class="st0" d="M242.1,111.5l48.9-9.1c0,0,2.9,20.8-19.1,26.4C249.9,134.4,242.1,111.5,242.1,111.5z"/>
			</g>
			<g>
				<path class="st2" d="M262.5,102.4l-20.4-20.8c0,0-7.8,12.5,0,20.8C251.3,112.3,262.5,102.4,262.5,102.4z"/>
				<path class="st1" d="M251.4,107.5c-3.2,0-6.7-1.2-9.9-4.6c-8.1-8.7-0.2-21.6-0.1-21.7l0.5-0.8l21.6,22.1l-0.6,0.5
					C262.9,103,257.7,107.5,251.4,107.5z M242.3,82.8c-1.5,2.9-5.8,12.5,0.4,19.1c7.5,8.1,16.3,2.3,18.7,0.4L242.3,82.8z"/>
			</g>
			<g>
				<polygon class="st2" points="269.4,98.7 280.4,81.5 284.6,95.7 				"/>
				<path class="st1" d="M267.8,99.8l12.8-20l5,16.5L267.8,99.8z M280.1,83.3l-9.2,14.3l12.7-2.5L280.1,83.3z"/>
			</g>
			<g>
				<path class="st1" d="M293.2,107.5c-0.3,0-0.6-0.2-0.7-0.5c-0.1-0.4,0.1-0.8,0.5-1l6.5-2.3c0.4-0.1,0.8,0.1,1,0.5
					c0.1,0.4-0.1,0.8-0.5,1l-6.5,2.3C293.4,107.5,293.3,107.5,293.2,107.5z"/>
			</g>
			<g>
				<path class="st3" d="M264.6,50.4"/>
			</g>
			<g>
				<path class="st1" d="M282.3,147.9c-0.3,0-0.6-0.2-0.7-0.5c-0.1-0.4,0-0.8,0.4-1c15.1-5.7,26.5-18.5,30.4-34.2
					c0.1-0.4,0.5-0.6,0.9-0.5c0.4,0.1,0.6,0.5,0.5,0.9c-4,16.2-15.7,29.3-31.3,35.2C282.5,147.9,282.4,147.9,282.3,147.9z"/>
			</g>
			<g>
				<path class="st1" d="M314.6,101.1c-0.4,0-0.8-0.3-0.8-0.8c0-1,0-2.1-0.1-3.1c-0.6-9.8-4.1-19.1-10.1-26.9
					c-0.3-0.3-0.2-0.8,0.1-1.1c0.3-0.3,0.8-0.2,1.1,0.1c6.2,8,9.8,17.6,10.4,27.7c0.1,1.1,0.1,2.1,0.1,3.2
					C315.4,100.8,315,101.1,314.6,101.1z"/>
			</g>
			<g>
				<path class="st1" d="M315.2,80c-0.3,0-0.6-0.2-0.7-0.6c-0.7-2.7-3.7-12.1-11.3-18.3c-0.3-0.3-0.4-0.7-0.1-1.1
					c0.3-0.3,0.7-0.4,1.1-0.1c7.9,6.5,11.1,16.2,11.8,19c0.1,0.4-0.1,0.8-0.5,0.9C315.4,79.9,315.3,80,315.2,80z"/>
			</g>
		</g>
		<g id="Head_128_">
			<g>
				<path class="st2" d="M193.2,144.1c-4.9-5.1-14-6.9-19.4-2s-5.3,13.5,0.1,19.5c0,0,0,0,0.1,0.1c-0.5,0.5-1,1.1-1.3,1.6
					c-2.2,3.7-0.4,7.4,3.1,7.7c3,0.3,6.7-1.1,8.1-4.6c3.4,0.2,6.7-0.8,9.4-2.8C201.3,157.4,198.7,149.8,193.2,144.1z"/>
				<path class="st1" d="M176.5,171.7c-0.3,0-0.6,0-0.9,0c-1.9-0.2-3.4-1.2-4.2-2.9c-0.9-1.8-0.7-4,0.6-6c0.3-0.4,0.6-0.8,0.9-1.2
					c-2.5-3-3.8-6.6-3.8-10.2c0-3.9,1.5-7.4,4.2-9.9c5.8-5.2,15.4-3.1,20.4,2.1l0,0c2.7,2.8,5.8,7.1,5.4,11.9
					c-0.3,3.3-2.1,6.2-5.4,8.7c-2.7,2-6,3.1-9.4,3C182.7,170.3,179.3,171.7,176.5,171.7z M181.6,139.9c-2.7,0-5.3,0.8-7.3,2.7
					c-2.4,2.2-3.7,5.3-3.7,8.8c0,3.5,1.4,6.9,3.9,9.7l0.5,0.5l-0.4,0.6c-0.5,0.5-0.9,1-1.2,1.5c-1,1.6-1.1,3.2-0.5,4.6
					c0.6,1.1,1.6,1.9,3,2c2.6,0.3,6-0.9,7.4-4.1l0.2-0.5l0.5,0c3.2,0.2,6.4-0.7,8.9-2.6c3-2.3,4.6-4.8,4.8-7.7
					c0.3-4.2-2.5-8.2-5-10.7C189.9,141.8,185.7,139.9,181.6,139.9z"/>
			</g>
			<g>
				<ellipse transform="matrix(0.9433 -0.3319 0.3319 0.9433 -39.609 70.1477)" class="st1" cx="185.5" cy="151" rx="1" ry="1"/>
			</g>
			<g>
				<path class="st1" d="M193.8,149.3c-1.7-1.4-3.6-2.6-5.7-3.5c-0.6-0.3-1,0.6-0.4,0.9c2,0.9,3.8,2,5.4,3.4
					C193.6,150.5,194.3,149.7,193.8,149.3z"/>
			</g>
			<g>
				<path class="st1" d="M179.8,163c-2.3-0.3-4.6,1-5.4,3.2c-0.2,0.6,0.7,1,0.9,0.4c0.7-1.8,2.4-2.9,4.3-2.7
					C180.3,164.1,180.5,163.1,179.8,163z"/>
			</g>
			<g>
				<path class="st1" d="M182.2,141.4c-1.4,2.9-10.1,11.4-4.6,15.3c1.4,1,2.6,1.2,2.1,2.8c-0.8,1.6-2.4,0.5-2.4,0.5
					c-1.8,1.1-3.4,2.3-4.2,3.6c-8.9,0.9-8.4-8.2-6.7-10.7c0,0-4.5-10,3.8-11.2c0,0,2.8-12.1,9-10.6
					C187.2,133,182.2,141.4,182.2,141.4z"/>
			</g>
		</g>
		<g id="Body_120_">
			<path class="st1" d="M184.6,172.9c-17.4,4.4-28.5,15.7-35,41.1s-6.9,30.4-6.9,30.4l57.5-2.1C200.2,242.3,223.4,163.1,184.6,172.9
				z"/>
			<path class="st1" d="M141.9,245.2l0.1-0.8c0-0.2,0.4-5.3,6.9-30.5c6.3-24.5,16.9-37,35.6-41.7c7.3-1.8,13-0.7,16.9,3.4
				c14.5,15,0.1,64.9-0.5,67l-0.2,0.5L141.9,245.2z M190.7,172.8c-1.8,0-3.8,0.3-5.9,0.8c-18.1,4.6-28.4,16.7-34.5,40.6
				c-5.1,19.8-6.4,27.2-6.7,29.4l56-2c1.5-5.4,13.8-51.4,0.7-65C197.9,174.1,194.7,172.8,190.7,172.8z"/>
		</g>
		<g id="Hand_2_123_">
			<g>
				<path class="st2" d="M184.6,172.9c15.8-4.5,45.1-6.9,48.1-11.2c3.1-4.3,17.7-33.2,22.3-37.3c2.3-2,5.2,0.3,5.2,0.3
					s2.3-1,3.9,0.9c0,0,1.8-1.7,3.2-3.7c2-2.8,3.2-5,4.7-4.2c3.6,2.1-5.9,16.1-6.5,17.4l3.1-0.4c0,0,0.1-5.8,2.9-5.8
					s1.2,9.6,0.2,12.3c-1.5,4.3-4.7,5.2-10,9.4c-4.3,3.4-3.8,34.3-34.5,40.4c-5.6,1.1-20.6,4.6-24.7,4.1
					C183.8,193.1,184.6,172.9,184.6,172.9z"/>
				<path class="st1" d="M203.3,195.9c-0.3,0-0.7,0-0.9,0c-19.1-2-18.5-22.8-18.5-23l0-0.5l0.5-0.1c6.5-1.8,15.1-3.3,23.4-4.7
					c11.1-1.9,22.7-3.9,24.3-6.2c1-1.5,3.5-6,6.4-11.2c5.7-10.4,12.9-23.4,16-26.2c2-1.7,4.5-0.9,5.8,0c0.9-0.3,2.5-0.3,3.7,0.7
					c0.6-0.6,1.7-1.8,2.6-3c0.2-0.3,0.5-0.7,0.7-1c1.7-2.4,3.1-4.5,5-3.4c0.5,0.3,0.9,0.8,1.1,1.5c0.5,2.1-1,5.8-3.2,9.8
					c0.4-0.2,0.8-0.3,1.2-0.3c0.6,0,1.2,0.3,1.6,0.8c1.7,2.4,0.2,10.2-0.6,12.5c-1.2,3.3-3.3,4.8-6.3,6.8c-1.2,0.8-2.5,1.7-4,2.9
					c-0.9,0.7-1.7,3.4-2.6,6.6c-3.1,10.3-8.8,29.3-32.2,33.9c-1.1,0.2-2.6,0.5-4.3,0.9C216.3,194,207.4,195.9,203.3,195.9z
					 M185.4,173.5c0,3.2,0.9,19.1,17.2,20.9c3.2,0.3,13.4-1.8,20.2-3.2c1.7-0.4,3.2-0.7,4.4-0.9c22.5-4.4,27.9-22.2,31.1-32.9
					c1.1-3.8,1.9-6.3,3.2-7.3c1.5-1.2,2.9-2.1,4-2.9c2.9-2,4.7-3.3,5.7-6.1c1-2.7,1.9-9.5,0.8-11.1c-0.1-0.2-0.2-0.2-0.3-0.2
					c-1.7,0-2.1,4-2.1,5.1l0,0.7l-5.2,0.6l0.6-1.2c0.1-0.2,0.4-0.6,0.9-1.4c1.7-2.8,7.1-11.4,6.3-14.4c-0.1-0.4-0.3-0.5-0.4-0.6
					c-0.6-0.4-1.6,0.9-3,3c-0.2,0.3-0.5,0.7-0.7,1c-1.4,2-3.2,3.7-3.3,3.8l-0.6,0.5l-0.5-0.6c-1.2-1.4-2.9-0.7-3-0.7l-0.4,0.2
					l-0.4-0.3c-0.1-0.1-2.4-1.8-4.2-0.3c-2.9,2.6-10.3,16-15.7,25.8c-3,5.5-5.4,9.9-6.5,11.4c-1.9,2.7-10.8,4.3-25.3,6.8
					C200,170.3,191.7,171.7,185.4,173.5z M268.2,132.2c-0.4,0.7-0.8,1.3-1.2,2c0,0,0,0,0,0.1l1-0.1C268,133.6,268,132.9,268.2,132.2
					z"/>
			</g>
			<g>
				<path class="st1" d="M218.7,183.7c-0.9-5.7-2.5-11.1-3.9-16.6c-10,1.8-21.9,3.5-30.2,5.9c0,0-0.8,20.2,17.8,22.2
					c2.9,0.3,10.9-1.3,17.5-2.6C219.6,189.5,219.2,186.6,218.7,183.7z"/>
				<path class="st1" d="M203.3,195.9c-0.3,0-0.7,0-0.9,0c-19.1-2-18.5-22.8-18.5-23l0-0.5l0.5-0.1c6.5-1.8,15.1-3.3,23.4-4.7
					c2.3-0.4,4.6-0.8,6.8-1.2l0.7-0.1l0.2,0.7c0.3,1.3,0.7,2.5,1,3.8c1.1,4.2,2.2,8.5,2.9,12.9l0,0c0.4,2.9,0.9,5.9,1.2,8.8l0.1,0.7
					l-0.7,0.1C213.6,194.6,206.7,195.9,203.3,195.9z M185.4,173.5c0,3.2,0.9,19.1,17.2,20.9c2.6,0.3,10.1-1.1,16.5-2.5
					c-0.3-2.7-0.7-5.5-1.1-8.1l0,0c-0.7-4.3-1.8-8.6-2.9-12.8c-0.3-1-0.6-2.1-0.8-3.1c-2,0.4-4.1,0.7-6.1,1.1
					C200,170.3,191.7,171.7,185.4,173.5z"/>
			</g>
			<g>
				<path class="st1" d="M259.5,124.6c-1.6,1.7-2.5,3.8-3.5,5.9c-0.3,0.6,0.6,1.1,0.8,0.5c1-2,1.8-4.1,3.3-5.7
					C260.6,124.8,259.9,124.1,259.5,124.6z"/>
			</g>
			<g>
				<path class="st1" d="M263.8,125.4c-0.8,1.6-1.6,3.2-2.4,4.9c-0.3,0.6,0.6,1.1,0.8,0.5c0.8-1.6,1.6-3.2,2.4-4.9
					C264.9,125.4,264.1,124.9,263.8,125.4z"/>
			</g>
		</g>
		<g id="Hand_115_">
			<g>
				<path class="st1" d="M157.8,209c6.1-9.9,17.6-23.7,26.8-36.1c-18.8,4.7-36,15.7-46.4,28.5C144.7,204.1,151.4,206.1,157.8,209z"
					/>
				<path class="st1" d="M158.1,210l-0.6-0.3c-3.6-1.6-7.5-3-11.2-4.4c-2.8-1-5.6-2.1-8.4-3.2l-0.9-0.4l0.6-0.8
					c10.9-13.4,28.4-24.1,46.8-28.7l2-0.5l-1.2,1.7c-3.3,4.4-6.9,9.1-10.3,13.6c-6.4,8.3-12.5,16.2-16.4,22.5L158.1,210z
					 M139.5,201.1c2.5,1,5,1.9,7.4,2.8c3.5,1.3,7.2,2.6,10.7,4.2c4-6.3,9.9-13.9,16.2-22.1c3-3.9,6.1-7.9,9-11.8
					C165.8,178.9,149.8,188.8,139.5,201.1z"/>
			</g>
			<g>
				<path class="st2" d="M173,209.4c1.8-8,7-10.8,10.6-11.3s6.1-0.6,6.1,2.1C189.6,204.6,173,209.4,173,209.4z"/>
			</g>
			<g>
				<path class="st0" d="M188.5,209.5c-1.9-8.1-3-18.5-8.9-24.9c-4.3-4.7-10.2-6.1-16.3-6.2c-1.9,1.3-4,2.5-5.7,4.1
					c6.8-0.6,14.4-0.4,19.2,5c4.6,5.1,5.5,13.2,7,19.6c1.8,7.6,5.8,17.7-0.8,24.1c-5.5,5.3-14.6,6.4-21.9,6.3c-2.5,0-2.5,3.9,0,3.9
					c8.3,0.1,17.7-1.3,24.1-7C192.7,227.6,190.5,218.1,188.5,209.5z"/>
			</g>
			<g>
				<path class="st2" d="M172.5,209.4c-8.3,6.2-17.7,13.4-18.7,11.2c-1.3-2.9,2.2-9.2,7.6-17c-6.2-2.8-12.7-5-19.4-6.5
					c-13,13.4-18.6,29.6-9.9,42.5c16,23.7,36.2,4,48.4-8.5c4.8-4.9,12-13.7,12.7-15.8c1.5-4.5-0.4-5.3-0.4-5.3s1.7-4.9-2.5-6
					c0,0,1.1-9.6-11.9,0.7"/>
				<path class="st1" d="M149.6,251.4c-0.5,0-1.1,0-1.6-0.1c-6.1-0.5-11.7-4.4-16.4-11.4c-8.2-12.2-4.5-28.4,10-43.4l0.3-0.3
					l0.4,0.1c6.5,1.5,13.1,3.7,19.5,6.5l0.8,0.4L162,204c-2.2,3.2-9,12.9-7.5,16.3c1.4,0.6,10.6-6.3,16-10.4l1.5-1.1
					c0.3-0.2,0.8-0.2,1,0.2s0.2,0.8-0.2,1l-1.5,1.1c-9.3,7-15.1,11.1-17.3,10.6c-0.4-0.1-0.8-0.4-1-0.8c-1.2-2.9,0.9-8,7.1-17
					c-5.9-2.6-12-4.6-18-6c-13.7,14.3-17.3,29.7-9.5,41.2c4.5,6.6,9.6,10.2,15.3,10.7c12.1,1.1,25-12.2,32-19.3
					c5-5.2,11.9-13.7,12.6-15.5c1.2-3.6,0.1-4.3,0.1-4.3l-0.7-0.3l0.2-0.7c0,0,0.7-2.1-0.1-3.6c-0.4-0.7-1-1.2-2-1.4l-0.6-0.2
					l0.1-0.6c0,0,0.2-2.3-1.1-3c-0.9-0.5-3.4-0.6-9.6,4.4c-0.3,0.3-0.8,0.2-1.1-0.1c-0.3-0.3-0.2-0.8,0.1-1.1
					c5.3-4.3,9-5.8,11.3-4.5c1.6,0.9,1.8,2.9,1.8,3.9c1.1,0.4,1.8,1.1,2.3,2c0.8,1.5,0.5,3.4,0.3,4.3c0.6,0.6,1.4,2.2,0.2,5.8
					c-0.8,2.4-8.4,11.5-12.9,16.1C171.7,241.2,160.8,251.4,149.6,251.4z"/>
			</g>
			<g>
				<path class="st1" d="M156,185.6c-7,4.6-13.1,10-17.8,15.8c6.5,2.7,13.2,4.7,19.6,7.6c2.8-4.6,6.8-10,11.2-15.7
					C165,190.3,160.6,187.7,156,185.6z"/>
				<path class="st1" d="M158.1,210l-0.6-0.3c-3.6-1.6-7.5-3-11.2-4.4c-2.8-1-5.6-2.1-8.4-3.2l-0.9-0.4l0.6-0.8
					c4.7-5.8,10.9-11.3,18-15.9l0.3-0.2l0.4,0.2c4.8,2.2,9.2,4.8,13.1,7.8l0.6,0.5l-0.5,0.6c-3.8,5-8.1,10.8-11.1,15.6L158.1,210z
					 M139.5,201.1c2.5,1,5,1.9,7.4,2.8c3.5,1.3,7.2,2.6,10.7,4.2c2.9-4.6,6.8-9.9,10.4-14.6c-3.6-2.6-7.6-5-11.8-7
					C149.6,190.8,143.9,195.8,139.5,201.1z"/>
			</g>
			<g>
				<path class="st1" d="M191.8,209.4c-2.1-0.2-3.5,1.4-4.7,2.9c-0.4,0.5,0.3,1.2,0.7,0.7c1-1.3,2.2-2.8,4-2.6
					C192.4,210.4,192.4,209.5,191.8,209.4z"/>
			</g>
			<g>
				<path class="st1" d="M189,204c-2.1,0.6-3.9,1.7-5.4,3.4c-0.4,0.5,0.3,1.2,0.7,0.7c1.3-1.5,3-2.6,4.9-3.1
					C189.9,204.8,189.7,203.8,189,204z"/>
			</g>
			<g>
				<path class="st2" d="M159.8,209c-0.2,0-0.4-0.1-0.5-0.2c-0.3-0.3-0.3-0.7-0.1-1.1l6.9-7.9c0.3-0.3,0.7-0.3,1.1-0.1
					c0.3,0.3,0.3,0.7,0.1,1.1l-6.9,7.9C160.2,208.9,160,209,159.8,209z"/>
			</g>
		</g>
		<g>
			<line class="st2" x1="182.6" y1="201.3" x2="180.3" y2="196.3"/>
			<path class="st1" d="M182.6,202.1c-0.3,0-0.6-0.2-0.7-0.4l-2.3-5c-0.2-0.4,0-0.8,0.4-1c0.4-0.2,0.8,0,1,0.4l2.3,5
				c0.2,0.4,0,0.8-0.4,1C182.8,202,182.7,202.1,182.6,202.1z"/>
		</g>
	</g>
</g>
</svg>
