<?xml version="1.0" encoding="utf-8"?>
<!-- Generator: Adobe Illustrator 21.0.2, SVG Export Plug-In . SVG Version: 6.00 Build 0)  -->
<svg version="1.1" id="Слой_1" xmlns="http://www.w3.org/2000/svg" xmlns:xlink="http://www.w3.org/1999/xlink" x="0px" y="0px"
	 viewBox="0 0 407 413" style="enable-background:new 0 0 407 413;" xml:space="preserve">
<style type="text/css">
	.st0{fill:#030047;}
	.st1{fill:#FFFFFF;}
	.st2{fill:#FF3E6C;}
</style>
<g id="_x36_">
	<g id="Bottom_50_">
		<g>
			<path class="st0" d="M159.8,322.9c1.1,5.8,3.1,9.9,5.4,13c0.2,0.3,0.4,0.5,0.6,0.8c0.5,0.6,1,1.1,1.5,1.6
				c0.3,0.3,0.5,0.5,0.8,0.7c2.7,2.4,5.6,3.8,8.1,4.9c6.3,2.7,6.6,9.6,6.6,9.6l-49.4-0.3c0.6-8.2,0.6-23.7,0.6-23.7
				C144.3,326.4,149.3,324.5,159.8,322.9z"/>
		</g>
		<g>
			<path class="st1" d="M165.3,335.8c0.2,0.3,0.4,0.5,0.6,0.8c-2,0.9-4,1.9-6,2.8c-0.6,0.3-1.1-0.6-0.5-0.8
				C161.3,337.7,163.3,336.8,165.3,335.8z"/>
		</g>
		<g>
			<path class="st1" d="M167.4,338.2c0.3,0.3,0.5,0.5,0.8,0.7c-2.2,1.1-4.5,2.1-6.7,3.2c-0.6,0.3-1.1-0.6-0.5-0.8
				C163.1,340.2,165.3,339.2,167.4,338.2z"/>
		</g>
		<g>
			<path class="st0" d="M91.3,318.3c-4.6,3.7-7.3,7.4-8.9,10.9c-0.1,0.3-0.3,0.6-0.4,0.9c-0.3,0.7-0.5,1.4-0.7,2.1
				c-0.1,0.3-0.2,0.7-0.3,1c-0.8,3.5-0.7,6.8-0.5,9.5c0.5,6.8-5.4,10.3-5.4,10.3l-22.8-43.8c6.9-4.8,13.5-9.3,18.8-14.6
				C78.5,302.2,84.9,309.7,91.3,318.3z"/>
		</g>
		<g>
			<path class="st1" d="M164.8,215.6c0,0-11.9-5-21.7-6.3c0.6-8.6,0.8-14.3,0.8-14.3l-31.6,2.1c-3.4,19.5-4.8,47.8-19.2,72.7
				c-6.5,11.3-17.7,20.3-29.4,30.4c6.5,8.9,16.9,20.6,23.5,29.5c1.9-3.1,30.1-18,44.5-56.3c-0.4,30.7-1.5,62.1-1.5,62.1l35.8-2.3
				C166,333.2,170.9,268.3,164.8,215.6z"/>
			<path class="st0" d="M129.4,336.3l0-0.8c0-0.3,1-28.9,1.5-58c-11.8,28.4-31,43.1-39.3,49.5c-1.8,1.4-3.4,2.6-3.7,3.1l-0.6,1
				l-0.7-0.9c-3.1-4.2-7.2-9.1-11.1-13.8c-4.4-5.4-9-10.9-12.5-15.7l-0.4-0.6l0.5-0.5c1.2-1,2.4-2.1,3.6-3.1
				c10.2-8.8,19.8-17.1,25.6-27.1c11.6-20.1,14.7-42.4,17.3-60.4c0.6-4.3,1.2-8.4,1.8-12.1l0.1-0.6l33-2.2l0,0.8
				c0,0.1-0.2,5.5-0.8,13.6c9.7,1.4,21.1,6.2,21.2,6.3l0.4,0.2l0.1,0.4c6,52.1,1.2,117,1.2,117.7l0,0.7L129.4,336.3z M132.5,269.1
				l-0.1,4.3c-0.4,27.6-1.3,56.1-1.5,61.3l34.3-2.2c0.5-6.9,4.4-67.2-1.2-116.3c-2.2-0.9-12.5-5-21.1-6.1l-0.7-0.1l0.1-0.7
				c0.5-6.6,0.7-11.6,0.8-13.4l-30.2,2c-0.6,3.6-1.1,7.4-1.7,11.5c-2.6,18.1-5.7,40.6-17.4,60.9c-5.9,10.2-15.6,18.6-25.9,27.5
				c-1,0.9-2,1.8-3.1,2.6c3.4,4.6,7.8,9.9,12,15c3.7,4.5,7.5,9.1,10.6,13.1c0.7-0.6,1.8-1.5,3.4-2.7c8.6-6.6,28.9-22.2,40.4-52.7
				L132.5,269.1z"/>
		</g>
		<g>
			<path class="st1" d="M82.4,329.2c-0.1,0.3-0.3,0.6-0.4,0.9c-1.8-1.3-3.5-2.7-5.3-4c-0.5-0.4,0-1.3,0.5-0.9
				C78.9,326.6,80.6,327.9,82.4,329.2z"/>
		</g>
		<g>
			<path class="st1" d="M81.3,332.2c-0.1,0.3-0.2,0.7-0.3,1c-2-1.5-4-2.9-5.9-4.4c-0.5-0.4,0-1.3,0.5-0.9
				C77.5,329.3,79.4,330.7,81.3,332.2z"/>
		</g>
		<g>
			<path class="st0" d="M134,268.5c-0.1,0-0.2,0-0.3-0.1c-0.4-0.1-0.6-0.6-0.4-1c7.1-18.4,9.8-39.8,9.8-40l0.1-0.6l0.6,0
				c0.1,0,5.6-0.3,9.3-1.3c0.4-0.1,0.8,0.1,0.9,0.5c0.1,0.4-0.1,0.8-0.5,0.9c-3.1,0.8-7.4,1.2-9,1.3c-0.5,3.7-3.3,22.9-9.8,39.7
				C134.5,268.3,134.3,268.5,134,268.5z"/>
		</g>
	</g>
	<g id="Background_47_">
		<g>
			<path class="st2" d="M236.4,210.4c-3.2,2.3-7,3.5-10.7,1.5c-5.9-3.3-3.3-10.3-0.1-14.7l-3.9-4.9l-26.1,21.2l21.2,26.1l26.1-21.2
				L236.4,210.4z"/>
		</g>
		<g id="Piece_3_1_">
			<g>
				<path class="st1" d="M275.8,305.7l-28.1,7.2l-17.7,4.6l-11.8-45.8l13.3-3.4l0,0c-1.5-5.7,2-11.5,7.7-12.9
					c6.7-1.7,11.5,2,12.9,7.7l0,0l12-3.1l3.1,12L275.8,305.7z"/>
				<path class="st0" d="M229.4,318.4l-12.2-47.3l13.3-3.4c-0.5-2.8,0-5.5,1.4-7.9c1.5-2.6,4-4.5,7-5.2c3.2-0.8,6.3-0.5,8.7,1
					c2.3,1.4,4,3.7,4.9,6.5l12-3.1l12.2,47.3L229.4,318.4z M219.1,272.2l11.4,44.4l44.4-11.4l-11.4-44.4l-11.9,3.1l-0.2-0.6
					c-0.8-2.9-2.3-5.1-4.5-6.4c-2.1-1.3-4.7-1.5-7.6-0.8c-2.6,0.7-4.7,2.3-6,4.5c-1.3,2.3-1.7,4.9-1.1,7.5l0.2,0.7l-0.7,0.2
					L219.1,272.2z"/>
			</g>
			<g>
				<polygon class="st2" points="239,287.9 233.1,289.5 229.4,290.4 226.9,280.8 236.6,278.3 237.2,280.8 				"/>
			</g>
			<g>
				<polygon class="st2" points="251.1,284.9 245.2,286.5 241.5,287.4 239,277.8 248.7,275.3 249.3,277.8 				"/>
			</g>
			<g>
				<path class="st1" d="M275.8,305.7l-28.1,7.2c-0.7-2.8-1-5.7-1-8.6c0-14.3,8.3-26.7,20.5-32.5L275.8,305.7z"/>
				<path class="st0" d="M247.1,313.8l-0.2-0.7c-0.7-2.8-1.1-5.8-1.1-8.8c0-14.1,8.2-27.1,20.9-33.1l0.8-0.4l9.1,35.5L247.1,313.8z
					 M266.6,272.9c-11.7,6-19.2,18.2-19.2,31.4c0,2.6,0.3,5.2,0.9,7.7l26.6-6.8L266.6,272.9z"/>
			</g>
		</g>
		<g id="Piece_4_1_">
			<g>
				<path class="st1" d="M357.6,220.4l-6.5,14.9l0,0c-7.1-3.1-14.8-1.1-18.4,7.2c-3.1,7.1,0.2,15.3,7.3,18.4l0,0l-7.2,16.5l-57-24.8
					l16.9-38.8l7.9-18.2l19.8,8.6l6.6,2.9l22.2,9.7L357.6,220.4z"/>
				<path class="st0" d="M333.2,278.4l-58.4-25.4l25.4-58.4l58.4,25.4l-7,16.2l-0.8-0.2c-3.5-1.5-7.2-1.7-10.3-0.5
					c-3.1,1.2-5.5,3.8-7.1,7.4c-2.9,6.7,0.2,14.4,6.8,17.4l0.8,0.2l-0.3,0.8L333.2,278.4z M276.8,252.3l55.7,24.2l6.6-15.1
					c-7-3.4-10.1-11.9-7-19.1c1.7-4,4.5-6.8,7.9-8.2c3.3-1.3,7.1-1.2,10.8,0.3l5.9-13.6L301,196.6L276.8,252.3z"/>
			</g>
			<g>
				<path class="st1" d="M326.9,230.8c0,11-7.2,16.1-16.1,16.1c-8.9,0-16.1-7.2-16.1-16.1s7.2-16.1,16.1-16.1
					C319.7,214.7,326.9,221.9,326.9,230.8z"/>
				<path class="st0" d="M310.8,247.7c-9.3,0-16.8-7.6-16.8-16.8s7.6-16.8,16.8-16.8s16.8,7.6,16.8,16.8
					C327.6,241.2,321.2,247.7,310.8,247.7z M310.8,215.5c-8.5,0-15.3,6.9-15.3,15.3s6.9,15.3,15.3,15.3c9.6,0,15.3-5.7,15.3-15.3
					C326.1,222.4,319.2,215.5,310.8,215.5z"/>
			</g>
			<g>
				<path class="st2" d="M305.8,238.5l-2.4-11.5c-0.1-0.4,0.2-0.8,0.6-0.9c0.4-0.1,0.8,0.2,0.9,0.6l1.9,9.2l13.4-9.7
					c0.3-0.2,0.8-0.2,1,0.2c0.2,0.3,0.2,0.8-0.2,1L305.8,238.5z"/>
			</g>
			<g>
				<path class="st1" d="M349.2,216.8c-2.3,1.7-5.2,2.7-8.3,2.7c-7.2,0-13.1-5.4-13.9-12.4L349.2,216.8z"/>
				<path class="st0" d="M340.9,220.2c-7.5,0-13.8-5.6-14.6-13l-0.2-1.3l24.6,10.7l-1.1,0.8C347.1,219.2,344,220.2,340.9,220.2z
					 M327.9,208.4c1.3,6,6.7,10.4,12.9,10.4c2.4,0,4.7-0.6,6.7-1.8L327.9,208.4z"/>
			</g>
		</g>
		<g id="Objects_70_">
			<g>
				<polygon class="st1" points="254.6,87.9 266.7,80.2 267.9,93.9 				"/>
				<path class="st0" d="M268.7,95.1L253,88l14.4-9.1L268.7,95.1z M256.1,87.8l10.9,4.9l-0.9-11.2L256.1,87.8z"/>
			</g>
			<g>
				<path class="st0" d="M193.5,285.6c-0.2,0-0.3-0.1-0.5-0.2c-0.3-0.3-0.4-0.7-0.1-1.1l3.3-4.3c0.3-0.3,0.7-0.4,1.1-0.1
					c0.3,0.3,0.4,0.7,0.1,1.1l-3.3,4.3C194,285.5,193.8,285.6,193.5,285.6z"/>
			</g>
			<g>
				<path class="st0" d="M277.2,87.8c-0.3,0-0.5-0.1-0.6-0.4c-0.2-0.4-0.1-0.8,0.2-1l11-6.7c0.4-0.2,0.8-0.1,1,0.2
					c0.2,0.4,0.1,0.8-0.2,1l-11,6.7C277.4,87.8,277.3,87.8,277.2,87.8z"/>
			</g>
			<g>
				<path class="st0" d="M277.9,176c-0.1,0-0.2,0-0.3-0.1c-0.4-0.2-0.5-0.6-0.3-1l4.6-8.9c0.2-0.4,0.6-0.5,1-0.3
					c0.4,0.2,0.5,0.6,0.3,1l-4.6,8.9C278.5,175.8,278.2,176,277.9,176z"/>
			</g>
			<g>
				<path class="st0" d="M209.1,273.5c-0.1,0-0.2,0-0.3-0.1L199,269c-0.4-0.2-0.5-0.6-0.4-1c0.2-0.4,0.6-0.5,1-0.4l9.8,4.4
					c0.4,0.2,0.5,0.6,0.4,1C209.6,273.3,209.4,273.5,209.1,273.5z"/>
			</g>
			<g>
				<path class="st0" d="M265.1,234.1c-0.2,0-0.5-0.1-0.6-0.3c-0.2-0.3-0.1-0.8,0.2-1l3.9-2.5c0.4-0.2,0.8-0.1,1,0.2
					c0.2,0.3,0.1,0.8-0.2,1l-3.9,2.5C265.4,234,265.2,234.1,265.1,234.1z"/>
			</g>
			<g>
				<path class="st0" d="M282.6,267.1c-0.2,0-0.4-0.1-0.5-0.2l-5.4-5.5c-0.3-0.3-0.3-0.8,0-1.1s0.8-0.3,1.1,0l5.4,5.5
					c0.3,0.3,0.3,0.8,0,1.1C283,267,282.8,267.1,282.6,267.1z"/>
			</g>
			<g>
				<path class="st0" d="M305.8,187.6c-0.3,0-0.6-0.2-0.7-0.5l-4.8-11.6c-0.2-0.4,0-0.8,0.4-1c0.4-0.2,0.8,0,1,0.4l4.8,11.6
					c0.2,0.4,0,0.8-0.4,1C306,187.5,305.9,187.6,305.8,187.6z"/>
			</g>
			<g>
				<path class="st0" d="M270.7,75.7c-0.3,0-0.5-0.1-0.7-0.4l-3.4-6c-0.2-0.4-0.1-0.8,0.3-1c0.4-0.2,0.8-0.1,1,0.3l3.4,6
					c0.2,0.4,0.1,0.8-0.3,1C271,75.7,270.8,75.7,270.7,75.7z"/>
			</g>
		</g>
	</g>
	<g id="Top_50_">
		<g id="Hand_2_106_">
			<g>
				<path class="st0" d="M203.9,127.7c-5.5,5.3-14,15.1-22.1,18.3c-10.1,4-27.9-17.8-40.5-16.5l3.2,21.9c0,0,10.6,21.9,30.2,26.2
					s39.6-30,39.7-30.1C211.9,141.6,208.6,131.6,203.9,127.7z"/>
			</g>
		</g>
		<g id="Body_101_">
			<g>
				<polygon class="st0" points="132.6,127.3 131,131.6 149.8,133.8 150.7,125 				"/>
			</g>
			<g>
				<path class="st0" d="M147.4,132.2c-10.6-8.2-28.5,2.3-33.8,18.1c-4,12-9.8,70.8-9.8,70.8l64.3-0.9c0,0-5.2-63.4-12.7-74.1
					S151,134.9,147.4,132.2z"/>
			</g>
			<g>
				<path class="st1" d="M161.5,166.3c-0.3,0-0.7-0.2-0.7-0.6c0-0.1-1.3-6-4-15.2c-0.1-0.4,0.1-0.8,0.5-0.9c0.4-0.1,0.8,0.1,0.9,0.5
					c2.8,9.3,4,15.2,4,15.3c0.1,0.4-0.2,0.8-0.6,0.9C161.6,166.3,161.5,166.3,161.5,166.3z"/>
			</g>
		</g>
		<g id="Hand_96_">
			<g>
				<path class="st1" d="M191.6,139c6.3-12,13.5-13,17.5-12.8c4,0.2,3,5.2,3,5.2L191.6,139z"/>
				<path class="st0" d="M190,140.4l0.9-1.7c4.8-9.1,10.9-13.5,18.2-13.2c1.2,0.1,2.2,0.5,2.9,1.4c1.4,1.8,0.8,4.6,0.8,4.7l-0.1,0.4
					L190,140.4z M208.4,126.9c-6,0-11,3.5-15.2,10.7l18.2-6.8c0.1-0.8,0.1-2.2-0.6-3.1c-0.4-0.5-1-0.8-1.8-0.8
					C208.9,126.9,208.6,126.9,208.4,126.9z"/>
			</g>
			<g id="Piece_1_1_">
				<g>
					<path class="st2" d="M273.3,158.9l-63.5,11.8l-8.1-43.2l-3.8-20.3l22.1-4.1l41.4-7.7l3.1,16.6l0,0c-7.9,1.5-13.3,7.6-11.6,16.9
						c1.5,7.9,9.1,13.1,16.9,11.6l0,0L273.3,158.9z"/>
				</g>
				<g>
					<path class="st1" d="M269.4,157c-0.1,0-0.3,0-0.4-0.1l-67.6-46.4c-0.3-0.2-0.4-0.7-0.2-1c0.2-0.3,0.7-0.4,1-0.2l67.6,46.4
						c0.3,0.2,0.4,0.7,0.2,1C269.9,156.9,269.7,157,269.4,157z"/>
				</g>
				<g>
					<path class="st1" d="M212.4,167.6c-0.1,0-0.3,0-0.4-0.1c-0.3-0.2-0.4-0.7-0.2-1l46.4-67.6c0.2-0.3,0.7-0.4,1-0.2
						c0.3,0.2,0.4,0.7,0.2,1L213,167.3C212.9,167.5,212.6,167.6,212.4,167.6z"/>
				</g>
				<g>
					<g>
						<path class="st1" d="M198.8,107.8l20.4-3.8c-0.2,10.4-7.1,19.5-17,22.5L198.8,107.8z"/>
					</g>
					<g>
						<path class="st0" d="M218.5,104.9c-0.6,9.4-6.7,17.5-15.6,20.6l-3.2-17.1L218.5,104.9 M220,103.1l-22.1,4.1l3.8,20.3
							c10.5-2.9,18.3-12.5,18.3-24C220,103.4,220,103.2,220,103.1L220,103.1z"/>
					</g>
				</g>
			</g>
			<g>
				<path class="st1" d="M217.9,133.8c0,0,2-5.1-3.5-4.4c-5.5,0.7-16.8,0.4-27.8,14c-0.9,1.1-1.9,2.3-3,3.6c6,5.3,11.5,11,17,16.8
					c1.1-2.4,1.9-4.5,2.6-5.9c5.3-10.5,18.2-5.1,16.2-16.5C219.4,141.5,222.8,134.5,217.9,133.8z"/>
				<path class="st0" d="M200.9,165.2l-0.8-0.8c-4.5-4.8-10.5-11.1-17-16.8l-0.5-0.5l0.5-0.6c1.1-1.3,2.2-2.6,3-3.6
					c10-12.4,20.2-13.4,26.3-14c0.7-0.1,1.4-0.1,2-0.2c1.9-0.3,3.3,0.1,4.1,1.1c0.9,1.1,0.7,2.6,0.5,3.5c0.9,0.3,1.5,0.8,1.9,1.6
					c1.2,2.3-0.2,5.8-0.6,6.8c1.1,6.6-2.8,8-6.8,9.5c-3.3,1.2-7.1,2.7-9.4,7.2c-0.5,0.9-1,2.1-1.6,3.5c-0.3,0.7-0.7,1.5-1,2.4
					L200.9,165.2z M184.7,146.9c5.9,5.3,11.4,11,15.7,15.6c0.2-0.5,0.4-0.9,0.6-1.3c0.6-1.4,1.1-2.6,1.6-3.6c2.6-5,6.8-6.6,10.3-7.9
					c4.1-1.5,6.8-2.5,5.8-8.1l0-0.2l0.1-0.2c0.5-1,1.6-4.1,0.7-5.6c-0.3-0.6-0.8-0.9-1.7-1l-0.9-0.1l0.3-0.9c0.2-0.5,0.6-2.1,0-2.8
					c-0.5-0.7-1.7-0.7-2.7-0.5c-0.6,0.1-1.3,0.2-2,0.2c-5.9,0.6-15.7,1.6-25.3,13.5C186.5,144.8,185.6,145.8,184.7,146.9z"/>
			</g>
			<g>
				<path class="st0" d="M185.1,145.3c-8.4,10.2-26.4,29.4-40.1,20.3c-14.7-9.8-16.7-20.4-16.7-20.4l-10.9,0.3
					c-9.3,20.1-2.3,52.7,38.2,50.1c31.7-2.1,41.3-22.5,45.9-33.2C196.2,156.4,190.6,150.9,185.1,145.3z"/>
			</g>
			<g>
				<path class="st1" d="M155.1,167c-13.7,0-22.7-9.8-24.8-17.7c-0.1-0.4,0.1-0.8,0.5-0.9c0.4-0.1,0.8,0.1,0.9,0.5
					c2.2,8.5,13.2,19.4,29.6,15.9c11.5-2.5,20.7-17.1,20.8-17.2c0.2-0.4,0.7-0.5,1-0.2c0.4,0.2,0.5,0.7,0.2,1
					c-0.4,0.6-9.6,15.3-21.8,17.9C159.3,166.8,157.1,167,155.1,167z"/>
			</g>
			<g>
				<path class="st0" d="M217.8,141.2c-4.1,0.1-7.9,1.1-11.6,3c-0.6,0.3-0.1,1.2,0.5,0.9c3.5-1.8,7.1-2.8,11.1-2.9
					C218.4,142.2,218.4,141.2,217.8,141.2z"/>
			</g>
			<g>
				<path class="st0" d="M215.1,134.5c-3.2,0.2-6.3,0.9-9.3,2.2c-0.6,0.2-0.3,1.2,0.3,1c2.9-1.2,5.9-1.9,9-2.1
					C215.7,135.4,215.8,134.4,215.1,134.5z"/>
			</g>
			<g>
				<path class="st1" d="M158,195.7c-17.4,0-31.8-12.4-38.4-25c-0.2-0.4,0-0.8,0.3-1c0.4-0.2,0.8,0,1,0.3
					c6.9,13.2,22.8,26.3,41.6,23.9c0.4-0.1,0.8,0.2,0.8,0.6c0.1,0.4-0.2,0.8-0.6,0.8C161.1,195.6,159.5,195.7,158,195.7z"/>
			</g>
		</g>
		<g id="Piece_2_1_">
			<g>
				<path class="st1" d="M344.4,93.3v64.6h-64.6v-18.7h0c-8,0-14.5-6.5-14.5-14.5c0-9.4,6.5-14.5,14.5-14.5h0V93.3H344.4z"/>
				<path class="st0" d="M345.1,158.6H279v-18.7c-8.1-0.4-14.6-7.1-14.6-15.2c0-8.9,5.8-14.9,14.6-15.2V92.5h66.1V158.6z
					 M280.5,157.1h63.1V94h-63.1v16.9h-0.8c-8.4,0-13.8,5.4-13.8,13.8c0,7.6,6.2,13.8,13.8,13.8h0.8l0,0.8V157.1z"/>
			</g>
			<g>
				<path class="st0" d="M312.8,109.1h-20.3c-0.4,0-0.8-0.3-0.8-0.8s0.3-0.8,0.8-0.8h20.3c0.4,0,0.8,0.3,0.8,0.8
					S313.2,109.1,312.8,109.1z"/>
			</g>
			<g>
				<path class="st0" d="M312.8,116.1h-20.3c-0.4,0-0.8-0.3-0.8-0.8s0.3-0.8,0.8-0.8h20.3c0.4,0,0.8,0.3,0.8,0.8
					S313.2,116.1,312.8,116.1z"/>
			</g>
			<g>
				<path class="st1" d="M344.4,121.3v36.5H314c-2.6-3.9-4.1-8.6-4.1-13.6c0-16.2,11.1-24.8,24.8-24.8
					C338.2,119.4,341.4,120.1,344.4,121.3z"/>
				<path class="st0" d="M345.1,158.6h-31.5l-0.2-0.3c-2.7-4.2-4.2-9-4.2-14c0-15.3,10.3-25.6,25.6-25.6c3.4,0,6.8,0.7,9.9,2
					l0.5,0.2V158.6z M314.4,157.1h29.2v-35.3c-2.8-1.1-5.8-1.7-8.8-1.7c-14.6,0-24.1,9.5-24.1,24.1
					C310.7,148.8,312,153.3,314.4,157.1z"/>
			</g>
		</g>
		<g id="Head_109_">
			<g>
				<path class="st1" d="M153.2,108.2c-3.3-7.3-11.3-10.8-17.8-7.8c-6.5,3-9.2,11.3-5.9,18.6c0,0,0,0,0,0.1
					c-0.7,0.3-1.3,0.7-1.7,1.1c-3.3,2.8-2.6,6.9,0.6,8.3c2.8,1.2,6.7,1,9.1-1.9c3.2,1.2,6.7,1.3,9.8,0.2
					C156.9,123.4,156.5,115.5,153.2,108.2z"/>
				<path class="st0" d="M131.7,129.9c-1.3,0-2.6-0.3-3.7-0.8c-1.7-0.8-2.8-2.2-3.1-4c-0.3-2,0.6-4,2.4-5.6c0.4-0.3,0.8-0.6,1.3-0.9
					c-3.1-7.6-0.3-16,6.5-19c3.4-1.5,7.2-1.5,10.7,0.1c3.5,1.6,6.4,4.4,8.1,8.1l0,0c2.4,5.3,2.8,9.7,1.4,13.2
					c-1.2,2.9-3.8,5.1-7.6,6.4c-3.1,1.1-6.6,1.1-9.9,0C136,129.2,133.8,129.9,131.7,129.9z M140.3,100.1c-1.6,0-3.1,0.3-4.6,1
					c-6.2,2.8-8.6,10.7-5.5,17.6l0.3,0.6l-0.6,0.4c-0.6,0.3-1.2,0.7-1.6,1c-1.4,1.2-2.1,2.7-1.8,4.2c0.2,1.3,1,2.3,2.2,2.8
					c2.4,1.1,6,1,8.3-1.7l0.3-0.4l0.5,0.2c3,1.2,6.3,1.3,9.3,0.2c3.4-1.2,5.7-3.1,6.8-5.6c1.3-3.1,0.9-7.1-1.3-12l0,0
					c-1.5-3.4-4.1-6-7.3-7.4C143.6,100.4,141.9,100.1,140.3,100.1z"/>
			</g>
			<g>
				
					<ellipse transform="matrix(0.9996 -2.958225e-02 2.958225e-02 0.9996 -3.2656 4.3041)" class="st0" cx="143.8" cy="112.5" rx="1" ry="1"/>
			</g>
			<g>
				<path class="st0" d="M152.2,113.4c-1.2-1.9-2.6-3.6-4.3-5.1c-0.5-0.4-1.2,0.3-0.7,0.7c1.6,1.4,3,3.1,4.2,4.9
					C151.7,114.5,152.5,113.9,152.2,113.4z"/>
			</g>
			<g>
				<path class="st0" d="M143.6,102.3c-2.2,2.4-13.1,7.8-9,13.2c1,1.4,2.2,1.9,1.1,3.3c-1.3,1.2-2.5-0.3-2.5-0.3
					c-2,0.5-4.2,1.2-5.3,2.2c-5.3-4.6-5.3-10.4-2.9-12.3c0,0,14-20.1,20.5-14.8C151.2,98.4,143.6,102.3,143.6,102.3z"/>
			</g>
			<g>
				<path class="st0" d="M134.7,122.2c-2.1-1-4.7-0.4-6.2,1.4c-0.4,0.5,0.3,1.2,0.7,0.7c1.2-1.5,3.2-2.1,5-1.2
					C134.8,123.4,135.3,122.5,134.7,122.2z"/>
			</g>
		</g>
	</g>
</g>
</svg>
