<?xml version="1.0" encoding="utf-8"?>
<!-- Generator: Adobe Illustrator 21.0.2, SVG Export Plug-In . SVG Version: 6.00 Build 0)  -->
<svg version="1.1" id="Слой_1" xmlns="http://www.w3.org/2000/svg" xmlns:xlink="http://www.w3.org/1999/xlink" x="0px" y="0px"
	 viewBox="0 0 343 334" style="enable-background:new 0 0 343 334;" xml:space="preserve">
<style type="text/css">
	.st0{fill:#030047;}
	.st1{fill:#FFFFFF;}
	.st2{fill:#E4E4EF;}
	.st3{fill:#5F5FFF;}
</style>
<g id="_x34_">
	<g id="Bottom_17_">
		<g id="Bench_4_">
			<g>
				<path class="st0" d="M78.8,177.7v96.2c0,2.4,3.7,2.4,3.7,0v-96.2C82.5,175.3,78.8,175.3,78.8,177.7z"/>
			</g>
			<g>
				<path class="st1" d="M222.4,187.7H75.8c-2.9,0-5.3-2.4-5.3-5.3v-31.3c0-2.9,2.4-5.3,5.3-5.3h146.6c2.9,0,5.3,2.4,5.3,5.3v31.3
					C227.7,185.3,225.3,187.7,222.4,187.7z"/>
				<path class="st0" d="M222.4,188.4H75.8c-3.4,0-6.1-2.7-6.1-6.1v-31.3c0-3.4,2.7-6.1,6.1-6.1h146.6c3.4,0,6.1,2.7,6.1,6.1v31.3
					C228.5,185.7,225.7,188.4,222.4,188.4z M75.8,146.5c-2.5,0-4.6,2.1-4.6,4.6v31.3c0,2.5,2.1,4.6,4.6,4.6h146.6
					c2.5,0,4.6-2.1,4.6-4.6v-31.3c0-2.5-2.1-4.6-4.6-4.6H75.8z"/>
			</g>
			<g>
				<path class="st1" d="M222.4,217.3H75.8c-2.9,0-5.3-2.4-5.3-5.3v-8.5c0-2.9,2.4-5.3,5.3-5.3h146.6c2.9,0,5.3,2.4,5.3,5.3v8.5
					C227.7,214.9,225.3,217.3,222.4,217.3z"/>
				<path class="st0" d="M222.4,218H75.8c-3.4,0-6.1-2.7-6.1-6.1v-8.5c0-3.4,2.7-6.1,6.1-6.1h146.6c3.4,0,6.1,2.7,6.1,6.1v8.5
					C228.5,215.3,225.7,218,222.4,218z M75.8,198.9c-2.5,0-4.6,2.1-4.6,4.6v8.5c0,2.5,2.1,4.6,4.6,4.6h146.6c2.5,0,4.6-2.1,4.6-4.6
					v-8.5c0-2.5-2.1-4.6-4.6-4.6H75.8z"/>
			</g>
			<g>
				<path class="st0" d="M227.7,159.9H70.5c-0.4,0-0.8-0.3-0.8-0.8s0.3-0.8,0.8-0.8h157.3c0.4,0,0.8,0.3,0.8,0.8
					S228.1,159.9,227.7,159.9z"/>
			</g>
			<g>
				<path class="st0" d="M227.7,174H70.5c-0.4,0-0.8-0.3-0.8-0.8s0.3-0.8,0.8-0.8h157.3c0.4,0,0.8,0.3,0.8,0.8S228.1,174,227.7,174z
					"/>
			</g>
			<g>
				<path class="st0" d="M227.7,205.4H70.5c-0.4,0-0.8-0.3-0.8-0.8s0.3-0.8,0.8-0.8h157.3c0.4,0,0.8,0.3,0.8,0.8
					S228.1,205.4,227.7,205.4z"/>
			</g>
			<g>
				<path class="st0" d="M227.7,211.5H70.5c-0.4,0-0.8-0.3-0.8-0.8s0.3-0.8,0.8-0.8h157.3c0.4,0,0.8,0.3,0.8,0.8
					S228.1,211.5,227.7,211.5z"/>
			</g>
		</g>
		<g id="Leg_27_">
			<g>
				<path class="st0" d="M234.2,274.9h-44.7v-16.5l26.7-10.4c0,0,1,6.4,3.4,11.7c0.1,0.3,0.3,0.6,0.4,0.8c0.4,0.9,0.9,1.8,1.4,2.6
					c0.2,0.3,0.4,0.5,0.5,0.8c1,1.3,2.2,2.3,3.5,2.8c3.5,1.2,5.6,2.8,6.9,4.2c0.3,0.3,0.5,0.6,0.7,0.9
					C234.2,273.5,234.2,274.9,234.2,274.9z"/>
			</g>
			<g>
				<path class="st1" d="M232.9,271.7h-43.5v-0.9h42.7C232.5,271.1,232.7,271.4,232.9,271.7z"/>
			</g>
			<g>
				<path class="st1" d="M219.9,260.5c-1.9,0.9-3.9,1.9-5.8,2.8c-0.5,0.2-1-0.5-0.5-0.8c2-0.9,3.9-1.9,5.9-2.8c0,0,0,0,0.1,0
					C219.6,260,219.8,260.2,219.9,260.5z"/>
			</g>
			<g>
				<path class="st1" d="M221.9,263.8c-1.7,1.2-3.3,2.4-5,3.6c-0.5,0.3-1-0.5-0.5-0.8c1.6-1.2,3.3-2.3,4.9-3.5
					C221.5,263.3,221.7,263.6,221.9,263.8z"/>
			</g>
			<g>
				<path class="st0" d="M273.1,227l-40.5,19l-1.4-2.9l-0.4-0.8l-7.3-15.6l21.8-16.4c0,0,3.6,5.3,8,9.2c0.2,0.2,0.5,0.4,0.7,0.6
					c0.8,0.6,1.6,1.2,2.4,1.7c0.3,0.2,0.5,0.3,0.8,0.4c1.5,0.8,2.9,1.2,4.3,1.1c3.7-0.4,6.2,0.1,8,0.9c0.4,0.2,0.7,0.3,1.1,0.5
					C272.5,225.7,273.1,227,273.1,227z"/>
			</g>
			<g>
				<path class="st1" d="M216.9,245.6c-0.9-5.6-2.2-13.5-3.5-21.9c2.8,4.7,4.8,7.8,4.8,7.8l32.4-16c0,0-9.3-18.2-22.8-42.2
					s-42.6-11.8-71.2-5l0.2,1c-10.6,0.1-21.2,0.5-31.7,1.5c-6.9,0.7-13.6,2-20.3,3.5c-0.6,20.9,0.7,35.8,15.5,36.5
					c18.8,0.9,56.7,0,56.7,0s-0.8,25.8,3.8,41.4c0.1,0.3,0.2,0.6,0.3,0.9c1,3.1,2.2,5.7,3.7,7.6l33.6-7.1c0,0-0.4-2.7-1.1-7.2
					C217,246.2,216.9,245.9,216.9,245.6z"/>
				<path class="st0" d="M184.2,261.6l-0.3-0.4c-1.5-1.9-2.7-4.5-3.8-7.9c-0.1-0.3-0.2-0.6-0.3-0.9c-4.1-14-3.9-36.4-3.8-40.9
					c-5.5,0.1-38.9,0.8-56,0c-15.9-0.8-16.7-17.4-16.2-37.3l0-0.6l0.6-0.1c6.1-1.3,13.3-2.8,20.4-3.5c9-0.9,18.5-1.3,30.9-1.5
					l-0.2-0.8l0.7-0.2c4.1-1,8.2-2,12.2-3.1c24.7-6.5,48-12.6,59.9,8.5c13.4,23.7,22.7,42,22.8,42.2l0.3,0.7l-33.7,16.7l-0.4-0.6
					c0,0-1.1-1.8-2.8-4.5c1.1,6.9,2.1,13.4,2.9,18.1l0,0c0,0.2,0.1,0.3,0.1,0.5l1.3,8.3L184.2,261.6z M177.6,210l0,0.8
					c0,0.3-0.8,25.9,3.7,41.2c0.1,0.3,0.2,0.6,0.3,0.9c0.9,3,2,5.3,3.3,7l32.5-6.8l-1.1-6.8c0-0.2-0.1-0.4-0.1-0.5
					c-0.9-5.6-2.2-13.5-3.5-21.9L212,220l2,3.3c2.1,3.5,3.7,6.1,4.4,7.2l31.1-15.4c-1.8-3.5-10.5-20.3-22.5-41.5
					c-11.4-20.1-34.1-14.1-58.2-7.8c-3.8,1-7.6,2-11.5,2.9l0.2,1.2l-0.9,0c-12.7,0.2-22.5,0.6-31.6,1.5c-6.9,0.7-13.7,2.1-19.7,3.4
					c-0.6,22.3,1.7,34.5,14.8,35.2c18.6,0.9,56.3,0,56.7,0L177.6,210z"/>
			</g>
			<g>
				<path class="st0" d="M197.1,180.4c0,0-0.1,0-0.1,0l-12.3-2.5c-0.4-0.1-0.7-0.5-0.6-0.9c0.1-0.4,0.5-0.7,0.9-0.6l12.3,2.5
					c0.4,0.1,0.7,0.5,0.6,0.9C197.8,180.1,197.5,180.4,197.1,180.4z"/>
			</g>
			<g>
				<path class="st1" d="M270.6,224.7l-39.4,18.5l-0.4-0.8l38.7-18.1C270,224.3,270.3,224.5,270.6,224.7z"/>
			</g>
			<g>
				<path class="st1" d="M254.1,220.1c-1.4,1.7-2.7,3.3-4.1,5c-0.4,0.5-1.1-0.1-0.8-0.5c1.4-1.7,2.7-3.3,4.1-5c0,0,0,0,0,0
					C253.6,219.7,253.8,219.9,254.1,220.1z"/>
			</g>
			<g>
				<path class="st1" d="M256.7,221.9c-0.9,1.5-1.7,3.1-2.6,4.6c-0.3,0.5,0.5,1.1,0.8,0.6c0.9-1.6,1.8-3.2,2.7-4.7L256.7,221.9z"/>
			</g>
			<g>
				<path class="st0" d="M210.6,219.1c-0.2,0-0.5-0.1-0.6-0.3c-8.8-13.5-13.3-24.1-16.5-38.9c-0.1-0.4,0.2-0.8,0.6-0.9
					c0.4-0.1,0.8,0.2,0.9,0.6c3.2,14.6,7.6,25,16.3,38.4c0.2,0.3,0.1,0.8-0.2,1C210.9,219,210.8,219.1,210.6,219.1z"/>
			</g>
			<g>
				<path class="st0" d="M216.7,224.6c-0.3,0-0.5-0.2-0.7-0.4c-0.2-0.4,0-0.8,0.3-1c9.6-4.8,19.2-9.9,28.5-15.3
					c0.4-0.2,0.8-0.1,1,0.3c0.2,0.4,0.1,0.8-0.3,1c-9.3,5.4-19,10.5-28.6,15.3C217,224.6,216.9,224.6,216.7,224.6z"/>
			</g>
			<g>
				<path class="st0" d="M182.9,252.6c-0.4,0-0.7-0.3-0.7-0.6c-0.1-0.4,0.2-0.8,0.6-0.9l7.3-1.3c8.5-1.6,15.7-2.9,25.3-4.6
					c0.4-0.1,0.8,0.2,0.9,0.6c0.1,0.4-0.2,0.8-0.6,0.9c-9.5,1.7-16.7,3.1-25.3,4.6l-7.3,1.3C183,252.5,183,252.6,182.9,252.6z"/>
			</g>
		</g>
	</g>
	<g id="Background_15_">
		<g>
			<path class="st0" d="M89.5,121.1c-0.8,0-1.5-0.1-2.3-0.3c-1.3-0.4-2.4-0.9-3.5-1.5c-1-0.5-1.9-1-2.9-1.3c-2.3-0.7-5.4-0.7-6.8,2
				c-0.2,0.4-0.6,0.5-1,0.3c-0.4-0.2-0.5-0.6-0.3-1c1.8-3.5,5.7-3.6,8.6-2.7c1.1,0.4,2.1,0.9,3.1,1.4c1.1,0.6,2.1,1.1,3.3,1.4
				c2.8,0.8,5.4-0.2,7-2.5c0.2-0.3,0.7-0.4,1-0.2c0.3,0.2,0.4,0.7,0.2,1C94.3,119.9,92,121.1,89.5,121.1z"/>
		</g>
		<g>
			<path class="st0" d="M89.5,126.4c-0.8,0-1.5-0.1-2.3-0.3c-1.3-0.4-2.4-0.9-3.5-1.5c-1-0.5-1.9-1-2.9-1.3c-2.3-0.7-5.4-0.7-6.8,2
				c-0.2,0.4-0.6,0.5-1,0.3c-0.4-0.2-0.5-0.6-0.3-1c1.8-3.5,5.7-3.6,8.6-2.7c1.1,0.4,2.1,0.9,3.1,1.4c1.1,0.6,2.1,1.1,3.3,1.4
				c2.8,0.8,5.4-0.2,7-2.5c0.2-0.3,0.7-0.4,1-0.2c0.3,0.2,0.4,0.7,0.2,1C94.3,125.2,92,126.4,89.5,126.4z"/>
		</g>
		<g>
			<polygon class="st0" points="96.1,113.1 101.5,111.2 100.8,116.9 			"/>
		</g>
		<g>
			<path class="st0" d="M273.5,197.8c-2.6,0-5.4-1.2-7.9-2.3c-1.5-0.6-2.9-1.3-4.1-1.6c-4-1.1-8.3-0.1-11.6,2.7
				c-0.3,0.3-0.8,0.2-1.1-0.1c-0.3-0.3-0.2-0.8,0.1-1.1c3.7-3.1,8.5-4.2,13-3c1.4,0.4,2.8,1,4.3,1.7c4.1,1.8,8.4,3.7,11.5,0.4
				c0.3-0.3,0.8-0.3,1.1,0c0.3,0.3,0.3,0.8,0,1.1C277.2,197.2,275.4,197.8,273.5,197.8z"/>
		</g>
		<g>
			<path class="st0" d="M273.5,205.5c-2.6,0-5.4-1.2-7.9-2.3c-1.5-0.6-2.9-1.3-4.1-1.6c-4-1.1-8.3-0.1-11.6,2.7
				c-0.3,0.3-0.8,0.2-1.1-0.1c-0.3-0.3-0.2-0.8,0.1-1.1c3.7-3.1,8.5-4.2,13-3c1.4,0.4,2.8,1,4.3,1.7c4.1,1.8,8.4,3.7,11.5,0.4
				c0.3-0.3,0.8-0.3,1.1,0c0.3,0.3,0.3,0.8,0,1.1C277.2,204.9,275.4,205.5,273.5,205.5z"/>
		</g>
		<g>
			<path class="st2" d="M268.1,198.2"/>
		</g>
		<g>
			
				<rect x="240.2" y="181.2" transform="matrix(0.8161 -0.5778 0.5778 0.8161 -62.0632 175.0752)" class="st0" width="7.8" height="7.8"/>
		</g>
		<g>
			<path class="st0" d="M101.6,276.2c-0.3,0-0.5-0.1-0.6-0.4l-5.9-9.9c-0.2-0.4-0.1-0.8,0.3-1c0.4-0.2,0.8-0.1,1,0.3l5.9,9.9
				c0.2,0.4,0.1,0.8-0.3,1C101.8,276.2,101.7,276.2,101.6,276.2z"/>
		</g>
		<g>
			<path class="st0" d="M106.3,276.1c-0.3,0-0.6-0.2-0.7-0.6l-1.2-4.6c-0.1-0.4,0.1-0.8,0.5-0.9s0.8,0.1,0.9,0.5l1.2,4.6
				c0.1,0.4-0.1,0.8-0.5,0.9C106.5,276.1,106.4,276.1,106.3,276.1z"/>
		</g>
		<g>
			<path class="st0" d="M66.6,276.2c-0.3,0-0.5-0.1-0.6-0.4l-3.1-4.9c-0.2-0.4-0.1-0.8,0.2-1s0.8-0.1,1,0.2l3.1,4.9
				c0.2,0.4,0.1,0.8-0.2,1C66.9,276.2,66.7,276.2,66.6,276.2z"/>
		</g>
		<g>
			<path class="st0" d="M241.9,275.8c-0.1,0-0.2,0-0.3-0.1c-0.4-0.2-0.5-0.6-0.4-1l2.4-5.3c0.2-0.4,0.6-0.5,1-0.4
				c0.4,0.2,0.5,0.6,0.4,1l-2.4,5.3C242.5,275.6,242.2,275.8,241.9,275.8z"/>
		</g>
	</g>
	<g id="Top_16_">
		<g id="Window_23_">
			<g>
				<rect x="178.1" y="83.9" class="st3" width="66.3" height="54.4"/>
			</g>
			<g>
				<circle class="st0" cx="186.7" cy="91" r="2.2"/>
			</g>
			<g>
				<circle class="st0" cx="194.7" cy="91" r="2.2"/>
			</g>
			<g>
				<path class="st1" d="M250.9,86.5c0,4.6-2.9,6.4-6.4,6.4S238,90,238,86.5s2.9-6.4,6.4-6.4S250.9,82.9,250.9,86.5z"/>
				<path class="st0" d="M244.4,93.7c-4,0-7.2-3.2-7.2-7.2s3.2-7.2,7.2-7.2s7.2,3.2,7.2,7.2C251.6,91,248.9,93.7,244.4,93.7z
					 M244.4,80.8c-3.1,0-5.7,2.6-5.7,5.7s2.6,5.7,5.7,5.7c2.1,0,5.7-0.7,5.7-5.7C250.1,83.3,247.6,80.8,244.4,80.8z"/>
			</g>
			<g>
				<path class="st3" d="M213.2,80.1h-30.9c-2.3,0-4.1-1.8-4.1-4.1v-0.8c0-2.3,1.8-4.1,4.1-4.1h30.9c2.3,0,4.1,1.8,4.1,4.1V76
					C217.3,78.3,215.5,80.1,213.2,80.1z"/>
			</g>
			<g>
				<g>
					<path class="st0" d="M229.4,123h-7.3c-0.9,0-1.6-0.7-1.6-1.6v0c0-0.9,0.7-1.6,1.6-1.6h7.3c0.9,0,1.6,0.7,1.6,1.6v0
						C230.9,122.3,230.2,123,229.4,123z"/>
				</g>
				<g>
					<path class="st0" d="M225.5,130h-3.5c-0.9,0-1.6-0.7-1.6-1.6l0,0c0-0.9,0.7-1.6,1.6-1.6h3.5c0.9,0,1.6,0.7,1.6,1.6l0,0
						C227.1,129.3,226.4,130,225.5,130z"/>
				</g>
				<g>
					<path class="st0" d="M240.7,130h-9.5c-0.9,0-1.6-0.7-1.6-1.6l0,0c0-0.9,0.7-1.6,1.6-1.6h9.5c0.9,0,1.6,0.7,1.6,1.6l0,0
						C242.3,129.3,241.6,130,240.7,130z"/>
				</g>
				<g>
					<path class="st0" d="M238.4,123l-3.8,0c-0.9,0-1.6-0.7-1.6-1.6l0,0c0-0.9,0.7-1.6,1.6-1.6h3.8c0.9,0,1.6,0.7,1.6,1.6l0,0
						C239.9,122.3,239.2,123,238.4,123z"/>
				</g>
				<g>
					<path class="st0" d="M252.9,123h-9c-0.9,0-1.6-0.7-1.6-1.6l0,0c0-0.9,0.7-1.6,1.6-1.6h9c0.9,0,1.6,0.7,1.6,1.6l0,0
						C254.4,122.3,253.7,123,252.9,123z"/>
				</g>
			</g>
			<g>
				<path class="st0" d="M243.8,83.3v6.7c0,0.5,1,0.5,1,0v-6.7C244.8,82.8,243.8,82.8,243.8,83.3z"/>
			</g>
		</g>
		<g id="Laptop_2_">
			<g>
				<path class="st0" d="M206.8,163h-26l-15.5,12.2c-1.3,1-0.6,3.2,1.1,3.2h20.9L206.8,163z"/>
			</g>
			<g>
				<path class="st0" d="M212.4,139l-5.6,24l-19.5,15.4l2.2-11.3l0.9-4.9l0.3-1.7l1.1-5.9l1.2-6.1c0.3-1.4,1.2-2.5,2.4-3.1l15.9-7.2
					C211.9,137.9,212.6,138.4,212.4,139z"/>
			</g>
			<g>
				
					<rect x="200.6" y="152" transform="matrix(0.7071 -0.7071 0.7071 0.7071 -49.6399 188.449)" class="st1" width="4.2" height="4.2"/>
			</g>
			<g>
				<path class="st1" d="M177.9,177H173c-0.4,0-0.8-0.3-0.8-0.8s0.3-0.8,0.8-0.8h4.9c0.4,0,0.8,0.3,0.8,0.8S178.3,177,177.9,177z"/>
			</g>
		</g>
		<g id="Hand_2_49_">
			<g>
				<path class="st0" d="M191.6,154.5c-7.9-2.7-23.2-3-23.2-3c-1.2-5.2-10.9-23.1-16.8-27.7l1.4,36.3c0,0,18,3,28.9,5.2
					C184.8,161.6,187.7,157.3,191.6,154.5z"/>
			</g>
			<g>
				<g>
					<path class="st1" d="M188.9,166.1c-2-0.6-6.1-1.5-12.4-2.6c2.2-4.8,6-8.2,10.5-9.4c1.6,0.3,2.9,0.7,4,1L188.9,166.1z"/>
				</g>
				<g>
					<path class="st0" d="M187.1,154.8c1.2,0.2,2.2,0.5,3.1,0.8l-1.8,9.6c-1.6-0.4-4.6-1.1-10.7-2.3
						C179.7,158.8,183.1,155.9,187.1,154.8 M187,153.3c-5.3,1.3-9.4,5.3-11.6,10.7c6.6,1.2,12.5,2.4,14,3l2.4-12.5
						C190.5,154.1,188.8,153.6,187,153.3L187,153.3z"/>
				</g>
			</g>
			<g>
				<path class="st0" d="M190.8,160.5l-0.3,1.7c-0.5-1.5-1.3-3-2.3-4.3c-0.4-0.5,0.4-0.9,0.8-0.5
					C189.7,158.3,190.3,159.4,190.8,160.5z"/>
			</g>
		</g>
		<g id="Lightenings_2_">
			<g>
				<polygon class="st1" points="180.8,108.4 174.2,134.6 187.6,133.2 193.6,142.1 193.6,120.5 183.9,122.3 				"/>
				<path class="st0" d="M194.4,144.6l-7.2-10.6l-14.1,1.5l7.7-30.3l3.6,16.2l9.9-1.8V144.6z M188,132.4l4.9,7.3v-18.2l-9.6,1.8
					l-2.6-11.5l-5.6,22.1L188,132.4z"/>
			</g>
			<g>
				<polygon class="st1" points="214.7,100.1 203,112.2 210.2,115.5 209.3,123.9 217.3,110.5 211.8,108.5 				"/>
				<path class="st0" d="M208.2,127.3l1.2-11.3l-7.7-3.5l14.8-15.2l-3.7,10.9l5.6,2L208.2,127.3z M204.3,112l6.7,3l-0.6,5.6l5.8-9.7
					l-5.3-1.9l2-5.9L204.3,112z"/>
			</g>
		</g>
		<g id="Look_7_">
			<g>
				<path class="st0" d="M161,123.6c-0.2,0-0.3-0.1-0.5-0.2l-4.8-4c-0.3-0.3-0.4-0.7-0.1-1.1c0.3-0.3,0.7-0.4,1.1-0.1l4.8,4
					c0.3,0.3,0.4,0.7,0.1,1.1C161.4,123.5,161.2,123.6,161,123.6z"/>
			</g>
			<g>
				<path class="st0" d="M166.7,113.8C166.6,113.8,166.6,113.8,166.7,113.8l-6.8-0.8c-0.4-0.1-0.7-0.4-0.7-0.8s0.4-0.7,0.8-0.7
					l6.7,0.8c0.4,0.1,0.7,0.4,0.7,0.8C167.4,113.5,167,113.8,166.7,113.8z"/>
			</g>
			<g>
				<path class="st0" d="M161.3,109.4c-0.4,0-0.7-0.3-0.7-0.7c0-0.4,0.3-0.8,0.7-0.8l2.8-0.2c0.4,0,0.8,0.3,0.8,0.7
					c0,0.4-0.3,0.8-0.7,0.8L161.3,109.4C161.4,109.4,161.3,109.4,161.3,109.4z"/>
			</g>
		</g>
		<g id="Body_75_">
			<g>
				<path class="st0" d="M160.2,170.1c1.9-11.2,6.1-47.9-19.6-50.6c-18.3-1.9-34.4,6.5-35.3,36.4c-0.3,8.3-0.7,16.1-0.8,23.1
					C123.4,178,142,175,160.2,170.1z"/>
			</g>
			<g>
				<path class="st1" d="M157.4,147.4c-0.3,0-0.6-0.2-0.7-0.5l-3.2-9c-0.1-0.4,0.1-0.8,0.5-1c0.4-0.1,0.8,0.1,1,0.5l3.2,9
					c0.1,0.4-0.1,0.8-0.5,1C157.5,147.4,157.4,147.4,157.4,147.4z"/>
			</g>
		</g>
		<g id="Hand_1_3_">
			<g>
				<path class="st1" d="M162,156c15.2-0.9,20.3-2.4,24.5,7.9c4.2,10.3-2.1,6.9-2.1,6.9s-0.3,2.3-5.1,1.6c0,0-3.9,2.2-6.3,0.1
					c-2.4-2-3.7-3.5-5.5-0.2c-1.8,3.2-9.9,3.9-12.1,1.5C151.9,170.1,162,156,162,156z"/>
				<path class="st0" d="M160.1,176c-2,0-4.2-0.4-5.3-1.7c-3.8-4,5.5-17.3,6.6-18.8l0.2-0.3l0.4,0c1.6-0.1,3-0.2,4.3-0.3
					c12-0.8,16.9-1.1,20.9,8.7c1.7,4.3,2,6.8,0.7,7.9c-0.9,0.8-2.3,0.5-3.1,0.2c-0.1,0.2-0.4,0.5-0.6,0.7c-1,0.8-2.6,1-4.7,0.7
					c-1,0.5-4.5,2-7-0.1l-0.4-0.4c-1-0.9-1.9-1.7-2.5-1.6c-0.4,0.1-0.9,0.6-1.4,1.5c-0.9,1.7-3.3,2.9-6.3,3.2
					C161.3,176,160.7,176,160.1,176z M162.4,156.7c-3.7,5.3-8.6,14.3-6.5,16.6c0.9,1,3.2,1.4,5.7,1.1c2.5-0.3,4.5-1.2,5.2-2.5
					c0.8-1.4,1.6-2.1,2.5-2.3c1.3-0.2,2.4,0.7,3.7,1.9l0.4,0.4c2,1.7,5.5-0.2,5.5-0.2l0.2-0.1l0.3,0c3.1,0.5,4.1-0.4,4.2-1l0.2-1
					l0.9,0.5c0.5,0.3,1.7,0.7,2.2,0.3c0.2-0.2,1-1.2-1.1-6.2c-3.6-8.8-7.6-8.5-19.4-7.7C165.1,156.6,163.8,156.6,162.4,156.7z"/>
			</g>
			<g>
				<path class="st0" d="M113.2,129.2c-9.7,10.7-18.1,37.5-11.9,50.7c3.5,7.5,13,8.7,26,7.7c10.1-0.8,22.2-4.1,35.4-11.4
					c0,0-3.4-15.4,0-21.3l-34.4,2.2L128,128L113.2,129.2z"/>
			</g>
			<g>
				<path class="st0" d="M179.7,171.7c-0.8-3.9-2.9-7.3-6-9.8c-0.5-0.4-1.1,0.3-0.7,0.7c3,2.4,5,5.6,5.8,9.4
					C178.9,172.6,179.8,172.3,179.7,171.7z"/>
			</g>
			<g>
				<path class="st0" d="M179.9,159.5c-0.4-0.5-1,0.2-0.7,0.7c2.8,3.2,4.4,7,4.8,11.2c0.1,0.6,1,0.6,0.9,0
					C184.6,166.9,182.8,162.9,179.9,159.5z"/>
			</g>
			<g>
				<path class="st1" d="M128.6,158.5c-0.4,0-0.7-0.3-0.7-0.7c-0.6-7-0.7-14.1-0.5-21.1c0-0.4,0.4-0.7,0.8-0.7
					c0.4,0,0.7,0.4,0.7,0.8c-0.2,7-0.1,14,0.5,21C129.4,158.1,129,158.5,128.6,158.5C128.6,158.5,128.6,158.5,128.6,158.5z"/>
			</g>
			<g>
				<path class="st1" d="M126.1,159.2c-0.4,0-0.7-0.3-0.7-0.7c0-0.4,0.2-0.8,0.7-0.8c11.4-1.4,23.1-2.3,34.6-2.7
					c0.4,0,0.8,0.3,0.8,0.7c0,0.4-0.3,0.8-0.7,0.8C149.2,156.9,137.6,157.8,126.1,159.2C126.2,159.2,126.1,159.2,126.1,159.2z"/>
			</g>
			<g>
				<path class="st1" d="M157.3,176.5c-0.3,0-0.5-0.2-0.7-0.4c-3-6.3-3.6-13.1-1.8-19.8c0.1-0.4,0.5-0.6,0.9-0.5
					c0.4,0.1,0.6,0.5,0.5,0.9c-1.7,6.3-1.2,12.8,1.7,18.8c0.2,0.4,0,0.8-0.4,1C157.6,176.4,157.4,176.5,157.3,176.5z"/>
			</g>
		</g>
		<g id="Head_84_">
			<g>
				<path class="st1" d="M147.8,94.1c-6.2-3.6-14.5-1-18.6,5.9c0,0,0,0,0,0.1c-0.7-0.3-1.3-0.6-1.9-0.8c-4.2-1.1-7.1,1.8-6.5,5.2
					c0.6,3,3.1,6,6.8,6.4c0.8,3.3,2.7,6.2,5.5,8.2c8.3,5.9,14.5,1,18.6-5.9C155.7,106.3,153.9,97.7,147.8,94.1z"/>
				<path class="st0" d="M140.2,122.4c-2.5,0-5-0.9-7.6-2.8c-2.7-1.9-4.7-4.8-5.6-8.1c-3.9-0.6-6.4-4-7-6.9
					c-0.4-1.8,0.2-3.6,1.5-4.8c1.5-1.4,3.6-1.9,5.9-1.3c0.5,0.1,1,0.3,1.5,0.5c4.4-6.9,12.9-9.4,19.3-5.7l0,0
					c6.5,3.8,8.4,12.9,4.1,20.1c-2.9,5-6.3,7.9-10,8.7C141.6,122.4,140.9,122.4,140.2,122.4z M125.5,99.8c-1.2,0-2.2,0.4-3,1.1
					c-0.9,0.9-1.3,2.1-1,3.5c0.5,2.6,2.7,5.5,6.1,5.8l0.5,0l0.1,0.5c0.8,3.2,2.6,5.9,5.2,7.7c3,2.1,5.8,2.9,8.5,2.3
					c3.3-0.7,6.3-3.4,9-8c3.8-6.5,2.2-14.6-3.6-18.1c-5.8-3.4-13.7-0.9-17.5,5.6l-0.4,0.6l-0.7-0.3c-0.6-0.3-1.2-0.6-1.8-0.7
					C126.5,99.9,126,99.8,125.5,99.8z"/>
			</g>
			<g>
				<ellipse transform="matrix(0.8004 -0.5994 0.5994 0.8004 -36.2402 107.0871)" class="st0" cx="142.7" cy="108" rx="1" ry="1"/>
			</g>
			<g>
				<path class="st0" d="M146.8,115.3c0.9-2.1,1.4-4.2,1.7-6.5c0.1-0.6-0.9-0.8-1-0.1c-0.2,2.1-0.8,4.2-1.6,6.2
					C145.6,115.5,146.5,115.9,146.8,115.3z"/>
			</g>
			<g>
				<path class="st0" d="M129.5,106.1c-0.4-2.3-2.4-4.1-4.7-4.2c-0.6,0-0.8,1-0.1,1c1.9,0.1,3.5,1.4,3.9,3.3
					C128.6,106.9,129.6,106.8,129.5,106.1z"/>
			</g>
			<g>
				<path class="st0" d="M150.9,101.9c-3.2-0.5-13.9-6.2-16,0.3c-0.5,1.6-0.3,2.9-2.1,2.8c-1.8-0.3-1.2-2.3-1.2-2.3
					c-1.6-1.4-2.5-1.8-4.4-2.7c0.7-7,5-10.6,7.9-9.7c0,0,9.6-10.8,13.3-3.3c0,0,11.9-5.3,13.7,6.1S150.9,101.9,150.9,101.9z"/>
			</g>
		</g>
	</g>
</g>
</svg>
