<svg xmlns="http://www.w3.org/2000/svg" xmlns:xlink="http://www.w3.org/1999/xlink" width="70" height="70" viewBox="0 0 70 70">
  <defs>
    <linearGradient id="linear-gradient" x1="0.5" x2="0.5" y2="1" gradientUnits="objectBoundingBox">
      <stop offset="0" stop-color="#fff"/>
      <stop offset="1" stop-color="#fff" stop-opacity="0"/>
    </linearGradient>
  </defs>
  <g id="Group_135" data-name="Group 135" transform="translate(-934 -3138)">
    <circle id="Ellipse_80" data-name="Ellipse 80" cx="35" cy="35" r="35" transform="translate(934 3138)" fill="#474dff" opacity="0.1"/>
    <path id="Union_4" data-name="Union 4" d="M1714.5-109.617H1690a11,11,0,0,1-11-11V-138a11,11,0,0,1,11-11h29.5a11,11,0,0,1,11,11v17.382a10.952,10.952,0,0,1-1.231,5.061l.012,0-.033.038a11.056,11.056,0,0,1-3.522,3.967L1714.5-98.9Z" transform="translate(-735.5 3302)" fill="#545aee" stroke="#fff" stroke-width="2"/>
    <path id="Path_127" data-name="Path 127" d="M4,0A4,4,0,1,1,0,4,4,4,0,0,1,4,0Z" transform="translate(955 3168)" fill="#ffc432"/>
    <circle id="Ellipse_35" data-name="Ellipse 35" cx="4" cy="4" r="4" transform="translate(967 3168)" fill="#fff"/>
    <circle id="Ellipse_36" data-name="Ellipse 36" cx="4" cy="4" r="4" transform="translate(978 3168)" fill="#fff"/>
    <g id="Group_84" data-name="Group 84" transform="translate(763)">
      <ellipse id="Ellipse_57" data-name="Ellipse 57" cx="18" cy="10.5" rx="18" ry="10.5" transform="translate(227.426 3180.928) rotate(-177)" opacity="0.2" fill="url(#linear-gradient)"/>
      <ellipse id="Ellipse_58" data-name="Ellipse 58" cx="18" cy="10.5" rx="18" ry="10.5" transform="matrix(-0.695, 0.719, -0.719, -0.695, 223.057, 3165.846)" opacity="0.1" fill="url(#linear-gradient)"/>
    </g>
  </g>
</svg>
