<svg id="Group_134" data-name="Group 134" xmlns="http://www.w3.org/2000/svg" xmlns:xlink="http://www.w3.org/1999/xlink" width="70" height="70" viewBox="0 0 70 70">
  <defs>
    <linearGradient id="linear-gradient" x1="0.5" x2="0.5" y2="1" gradientUnits="objectBoundingBox">
      <stop offset="0" stop-color="#fff"/>
      <stop offset="1" stop-color="#fff" stop-opacity="0"/>
    </linearGradient>
  </defs>
  <circle id="Ellipse_79" data-name="Ellipse 79" cx="35" cy="35" r="35" fill="#474dff" opacity="0.1"/>
  <g id="Group_14" data-name="Group 14" transform="translate(3 12.705)">
    <g id="Group_11" data-name="Group 11" transform="translate(6.5)">
      <path id="Union_1" data-name="Union 1" d="M20.822,39.382H14.5A14.5,14.5,0,0,1,0,24.882V14.5A14.5,14.5,0,0,1,14.5,0H37A14.5,14.5,0,0,1,51.5,14.5V24.882A14.5,14.5,0,0,1,37,39.382H30.728l-4.953,4.953Z" fill="#545aee" stroke="#fff" stroke-width="2"/>
      <g id="user" transform="translate(18.142 10.726)">
        <path id="Path_4" data-name="Path 4" d="M17.059,14.863v.69a1.527,1.527,0,0,1-1.506,1.506H3.506A1.527,1.527,0,0,1,2,15.553v-.69c0-1.82,2.133-2.949,4.141-3.827l.188-.094a.5.5,0,0,1,.471.031,4.868,4.868,0,0,0,2.7.816,5.05,5.05,0,0,0,2.7-.816.5.5,0,0,1,.471-.031l.188.094C14.925,11.914,17.059,13.012,17.059,14.863ZM9.529,2a3.945,3.945,0,0,1,3.733,4.141,3.945,3.945,0,0,1-3.733,4.141A3.945,3.945,0,0,1,5.8,6.141,3.945,3.945,0,0,1,9.529,2Z" transform="translate(-2 -2)" fill="#fff"/>
      </g>
    </g>
    <g id="favourite-31" transform="translate(0 0.295)">
      <path id="Path_28" data-name="Path 28" d="M15.144,5.438l-4.316-.627L8.9.9A1.041,1.041,0,0,0,7.1.9L5.173,4.811.856,5.438A1,1,0,0,0,.3,7.145l3.124,3.044-.737,4.3A1,1,0,0,0,4.14,15.542L8,13.513l3.861,2.03a1,1,0,0,0,1.451-1.054l-.737-4.3L15.7,7.146A1,1,0,0,0,15.144,5.438Z" transform="translate(0.001 -0.388)" fill="#ffc432"/>
    </g>
  </g>
  <g id="Group_85" data-name="Group 85" transform="translate(10.943 3.258)">
    <ellipse id="Ellipse_57" data-name="Ellipse 57" cx="18" cy="10.5" rx="18" ry="10.5" transform="translate(44.483 29.67) rotate(-177)" opacity="0.2" fill="url(#linear-gradient)"/>
    <ellipse id="Ellipse_58" data-name="Ellipse 58" cx="18" cy="10.5" rx="18" ry="10.5" transform="matrix(-0.695, 0.719, -0.719, -0.695, 40.114, 14.588)" opacity="0.1" fill="url(#linear-gradient)"/>
  </g>
</svg>
